G04 #@! TF.GenerationSoftware,KiCad,Pcbnew,5.1.4-e60b266~84~ubuntu18.04.1*
G04 #@! TF.CreationDate,2019-11-18T12:16:38+01:00*
G04 #@! TF.ProjectId,umi6r2,756d6936-7232-42e6-9b69-6361645f7063,rev?*
G04 #@! TF.SameCoordinates,Original*
G04 #@! TF.FileFunction,Legend,Top*
G04 #@! TF.FilePolarity,Positive*
%FSLAX46Y46*%
G04 Gerber Fmt 4.6, Leading zero omitted, Abs format (unit mm)*
G04 Created by KiCad (PCBNEW 5.1.4-e60b266~84~ubuntu18.04.1) date 2019-11-18 12:16:38*
%MOMM*%
%LPD*%
G04 APERTURE LIST*
%ADD10C,0.150000*%
%ADD11C,0.250000*%
%ADD12C,0.300000*%
%ADD13C,0.500000*%
%ADD14C,0.200000*%
%ADD15C,0.120000*%
G04 APERTURE END LIST*
D10*
X62835595Y-75571428D02*
X63597500Y-75571428D01*
X63216547Y-75952380D02*
X63216547Y-75190476D01*
X64549880Y-74952380D02*
X64073690Y-74952380D01*
X64026071Y-75428571D01*
X64073690Y-75380952D01*
X64168928Y-75333333D01*
X64407023Y-75333333D01*
X64502261Y-75380952D01*
X64549880Y-75428571D01*
X64597500Y-75523809D01*
X64597500Y-75761904D01*
X64549880Y-75857142D01*
X64502261Y-75904761D01*
X64407023Y-75952380D01*
X64168928Y-75952380D01*
X64073690Y-75904761D01*
X64026071Y-75857142D01*
X65787976Y-75952380D02*
X65787976Y-74952380D01*
X66264166Y-75952380D02*
X66264166Y-74952380D01*
X66835595Y-75952380D01*
X66835595Y-74952380D01*
X67740357Y-74952380D02*
X67549880Y-74952380D01*
X67454642Y-75000000D01*
X67407023Y-75047619D01*
X67311785Y-75190476D01*
X67264166Y-75380952D01*
X67264166Y-75761904D01*
X67311785Y-75857142D01*
X67359404Y-75904761D01*
X67454642Y-75952380D01*
X67645119Y-75952380D01*
X67740357Y-75904761D01*
X67787976Y-75857142D01*
X67835595Y-75761904D01*
X67835595Y-75523809D01*
X67787976Y-75428571D01*
X67740357Y-75380952D01*
X67645119Y-75333333D01*
X67454642Y-75333333D01*
X67359404Y-75380952D01*
X67311785Y-75428571D01*
X67264166Y-75523809D01*
X69026071Y-75952380D02*
X69026071Y-74952380D01*
X69502261Y-75952380D02*
X69502261Y-74952380D01*
X70073690Y-75952380D01*
X70073690Y-74952380D01*
X71026071Y-74952380D02*
X70549880Y-74952380D01*
X70502261Y-75428571D01*
X70549880Y-75380952D01*
X70645119Y-75333333D01*
X70883214Y-75333333D01*
X70978452Y-75380952D01*
X71026071Y-75428571D01*
X71073690Y-75523809D01*
X71073690Y-75761904D01*
X71026071Y-75857142D01*
X70978452Y-75904761D01*
X70883214Y-75952380D01*
X70645119Y-75952380D01*
X70549880Y-75904761D01*
X70502261Y-75857142D01*
X72787976Y-75000000D02*
X72692738Y-74952380D01*
X72549880Y-74952380D01*
X72407023Y-75000000D01*
X72311785Y-75095238D01*
X72264166Y-75190476D01*
X72216547Y-75380952D01*
X72216547Y-75523809D01*
X72264166Y-75714285D01*
X72311785Y-75809523D01*
X72407023Y-75904761D01*
X72549880Y-75952380D01*
X72645119Y-75952380D01*
X72787976Y-75904761D01*
X72835595Y-75857142D01*
X72835595Y-75523809D01*
X72645119Y-75523809D01*
X73264166Y-75952380D02*
X73264166Y-74952380D01*
X73835595Y-75952380D01*
X73835595Y-74952380D01*
X74311785Y-75952380D02*
X74311785Y-74952380D01*
X74549880Y-74952380D01*
X74692738Y-75000000D01*
X74787976Y-75095238D01*
X74835595Y-75190476D01*
X74883214Y-75380952D01*
X74883214Y-75523809D01*
X74835595Y-75714285D01*
X74787976Y-75809523D01*
X74692738Y-75904761D01*
X74549880Y-75952380D01*
X74311785Y-75952380D01*
X76073690Y-75571428D02*
X76835595Y-75571428D01*
X76454642Y-75952380D02*
X76454642Y-75190476D01*
X77787976Y-74952380D02*
X77311785Y-74952380D01*
X77264166Y-75428571D01*
X77311785Y-75380952D01*
X77407023Y-75333333D01*
X77645119Y-75333333D01*
X77740357Y-75380952D01*
X77787976Y-75428571D01*
X77835595Y-75523809D01*
X77835595Y-75761904D01*
X77787976Y-75857142D01*
X77740357Y-75904761D01*
X77645119Y-75952380D01*
X77407023Y-75952380D01*
X77311785Y-75904761D01*
X77264166Y-75857142D01*
X79026071Y-75952380D02*
X79026071Y-74952380D01*
X79502261Y-75952380D02*
X79502261Y-74952380D01*
X80073690Y-75952380D01*
X80073690Y-74952380D01*
X80978452Y-75285714D02*
X80978452Y-75952380D01*
X80740357Y-74904761D02*
X80502261Y-75619047D01*
X81121309Y-75619047D01*
X82264166Y-75952380D02*
X82264166Y-74952380D01*
X82740357Y-75952380D02*
X82740357Y-74952380D01*
X83311785Y-75952380D01*
X83311785Y-74952380D01*
X83692738Y-74952380D02*
X84311785Y-74952380D01*
X83978452Y-75333333D01*
X84121309Y-75333333D01*
X84216547Y-75380952D01*
X84264166Y-75428571D01*
X84311785Y-75523809D01*
X84311785Y-75761904D01*
X84264166Y-75857142D01*
X84216547Y-75904761D01*
X84121309Y-75952380D01*
X83835595Y-75952380D01*
X83740357Y-75904761D01*
X83692738Y-75857142D01*
X86026071Y-75000000D02*
X85930833Y-74952380D01*
X85787976Y-74952380D01*
X85645119Y-75000000D01*
X85549880Y-75095238D01*
X85502261Y-75190476D01*
X85454642Y-75380952D01*
X85454642Y-75523809D01*
X85502261Y-75714285D01*
X85549880Y-75809523D01*
X85645119Y-75904761D01*
X85787976Y-75952380D01*
X85883214Y-75952380D01*
X86026071Y-75904761D01*
X86073690Y-75857142D01*
X86073690Y-75523809D01*
X85883214Y-75523809D01*
X86502261Y-75952380D02*
X86502261Y-74952380D01*
X87073690Y-75952380D01*
X87073690Y-74952380D01*
X87549880Y-75952380D02*
X87549880Y-74952380D01*
X87787976Y-74952380D01*
X87930833Y-75000000D01*
X88026071Y-75095238D01*
X88073690Y-75190476D01*
X88121309Y-75380952D01*
X88121309Y-75523809D01*
X88073690Y-75714285D01*
X88026071Y-75809523D01*
X87930833Y-75904761D01*
X87787976Y-75952380D01*
X87549880Y-75952380D01*
X89311785Y-75571428D02*
X90073690Y-75571428D01*
X89692738Y-75952380D02*
X89692738Y-75190476D01*
X91026071Y-74952380D02*
X90549880Y-74952380D01*
X90502261Y-75428571D01*
X90549880Y-75380952D01*
X90645119Y-75333333D01*
X90883214Y-75333333D01*
X90978452Y-75380952D01*
X91026071Y-75428571D01*
X91073690Y-75523809D01*
X91073690Y-75761904D01*
X91026071Y-75857142D01*
X90978452Y-75904761D01*
X90883214Y-75952380D01*
X90645119Y-75952380D01*
X90549880Y-75904761D01*
X90502261Y-75857142D01*
X92264166Y-75952380D02*
X92264166Y-74952380D01*
X92740357Y-75952380D02*
X92740357Y-74952380D01*
X93311785Y-75952380D01*
X93311785Y-74952380D01*
X93740357Y-75047619D02*
X93787976Y-75000000D01*
X93883214Y-74952380D01*
X94121309Y-74952380D01*
X94216547Y-75000000D01*
X94264166Y-75047619D01*
X94311785Y-75142857D01*
X94311785Y-75238095D01*
X94264166Y-75380952D01*
X93692738Y-75952380D01*
X94311785Y-75952380D01*
X95502261Y-75952380D02*
X95502261Y-74952380D01*
X95978452Y-75952380D02*
X95978452Y-74952380D01*
X96549880Y-75952380D01*
X96549880Y-74952380D01*
X97549880Y-75952380D02*
X96978452Y-75952380D01*
X97264166Y-75952380D02*
X97264166Y-74952380D01*
X97168928Y-75095238D01*
X97073690Y-75190476D01*
X96978452Y-75238095D01*
X99264166Y-75000000D02*
X99168928Y-74952380D01*
X99026071Y-74952380D01*
X98883214Y-75000000D01*
X98787976Y-75095238D01*
X98740357Y-75190476D01*
X98692738Y-75380952D01*
X98692738Y-75523809D01*
X98740357Y-75714285D01*
X98787976Y-75809523D01*
X98883214Y-75904761D01*
X99026071Y-75952380D01*
X99121309Y-75952380D01*
X99264166Y-75904761D01*
X99311785Y-75857142D01*
X99311785Y-75523809D01*
X99121309Y-75523809D01*
X99740357Y-75952380D02*
X99740357Y-74952380D01*
X100311785Y-75952380D01*
X100311785Y-74952380D01*
X100787976Y-75952380D02*
X100787976Y-74952380D01*
X101026071Y-74952380D01*
X101168928Y-75000000D01*
X101264166Y-75095238D01*
X101311785Y-75190476D01*
X101359404Y-75380952D01*
X101359404Y-75523809D01*
X101311785Y-75714285D01*
X101264166Y-75809523D01*
X101168928Y-75904761D01*
X101026071Y-75952380D01*
X100787976Y-75952380D01*
X90335595Y-138452380D02*
X90335595Y-137452380D01*
X90907023Y-138452380D01*
X90907023Y-137452380D01*
X91573690Y-137452380D02*
X91764166Y-137452380D01*
X91859404Y-137500000D01*
X91954642Y-137595238D01*
X92002261Y-137785714D01*
X92002261Y-138119047D01*
X91954642Y-138309523D01*
X91859404Y-138404761D01*
X91764166Y-138452380D01*
X91573690Y-138452380D01*
X91478452Y-138404761D01*
X91383214Y-138309523D01*
X91335595Y-138119047D01*
X91335595Y-137785714D01*
X91383214Y-137595238D01*
X91478452Y-137500000D01*
X91573690Y-137452380D01*
X92954642Y-138452380D02*
X92383214Y-138452380D01*
X92668928Y-138452380D02*
X92668928Y-137452380D01*
X92573690Y-137595238D01*
X92478452Y-137690476D01*
X92383214Y-137738095D01*
X94716547Y-138357142D02*
X94668928Y-138404761D01*
X94526071Y-138452380D01*
X94430833Y-138452380D01*
X94287976Y-138404761D01*
X94192738Y-138309523D01*
X94145119Y-138214285D01*
X94097500Y-138023809D01*
X94097500Y-137880952D01*
X94145119Y-137690476D01*
X94192738Y-137595238D01*
X94287976Y-137500000D01*
X94430833Y-137452380D01*
X94526071Y-137452380D01*
X94668928Y-137500000D01*
X94716547Y-137547619D01*
X95335595Y-137452380D02*
X95526071Y-137452380D01*
X95621309Y-137500000D01*
X95716547Y-137595238D01*
X95764166Y-137785714D01*
X95764166Y-138119047D01*
X95716547Y-138309523D01*
X95621309Y-138404761D01*
X95526071Y-138452380D01*
X95335595Y-138452380D01*
X95240357Y-138404761D01*
X95145119Y-138309523D01*
X95097500Y-138119047D01*
X95097500Y-137785714D01*
X95145119Y-137595238D01*
X95240357Y-137500000D01*
X95335595Y-137452380D01*
X96192738Y-138452380D02*
X96192738Y-137452380D01*
X96526071Y-138166666D01*
X96859404Y-137452380D01*
X96859404Y-138452380D01*
X97859404Y-138452380D02*
X97287976Y-138452380D01*
X97573690Y-138452380D02*
X97573690Y-137452380D01*
X97478452Y-137595238D01*
X97383214Y-137690476D01*
X97287976Y-137738095D01*
X99049880Y-138452380D02*
X99049880Y-137452380D01*
X99621309Y-138452380D01*
X99621309Y-137452380D01*
X100668928Y-138357142D02*
X100621309Y-138404761D01*
X100478452Y-138452380D01*
X100383214Y-138452380D01*
X100240357Y-138404761D01*
X100145119Y-138309523D01*
X100097500Y-138214285D01*
X100049880Y-138023809D01*
X100049880Y-137880952D01*
X100097500Y-137690476D01*
X100145119Y-137595238D01*
X100240357Y-137500000D01*
X100383214Y-137452380D01*
X100478452Y-137452380D01*
X100621309Y-137500000D01*
X100668928Y-137547619D01*
X101621309Y-138452380D02*
X101049880Y-138452380D01*
X101335595Y-138452380D02*
X101335595Y-137452380D01*
X101240357Y-137595238D01*
X101145119Y-137690476D01*
X101049880Y-137738095D01*
X102811785Y-138452380D02*
X102811785Y-137452380D01*
X103383214Y-138452380D01*
X103383214Y-137452380D01*
X104049880Y-137452380D02*
X104240357Y-137452380D01*
X104335595Y-137500000D01*
X104430833Y-137595238D01*
X104478452Y-137785714D01*
X104478452Y-138119047D01*
X104430833Y-138309523D01*
X104335595Y-138404761D01*
X104240357Y-138452380D01*
X104049880Y-138452380D01*
X103954642Y-138404761D01*
X103859404Y-138309523D01*
X103811785Y-138119047D01*
X103811785Y-137785714D01*
X103859404Y-137595238D01*
X103954642Y-137500000D01*
X104049880Y-137452380D01*
X104859404Y-137547619D02*
X104907023Y-137500000D01*
X105002261Y-137452380D01*
X105240357Y-137452380D01*
X105335595Y-137500000D01*
X105383214Y-137547619D01*
X105430833Y-137642857D01*
X105430833Y-137738095D01*
X105383214Y-137880952D01*
X104811785Y-138452380D01*
X105430833Y-138452380D01*
X107192738Y-138357142D02*
X107145119Y-138404761D01*
X107002261Y-138452380D01*
X106907023Y-138452380D01*
X106764166Y-138404761D01*
X106668928Y-138309523D01*
X106621309Y-138214285D01*
X106573690Y-138023809D01*
X106573690Y-137880952D01*
X106621309Y-137690476D01*
X106668928Y-137595238D01*
X106764166Y-137500000D01*
X106907023Y-137452380D01*
X107002261Y-137452380D01*
X107145119Y-137500000D01*
X107192738Y-137547619D01*
X107811785Y-137452380D02*
X108002261Y-137452380D01*
X108097499Y-137500000D01*
X108192738Y-137595238D01*
X108240357Y-137785714D01*
X108240357Y-138119047D01*
X108192738Y-138309523D01*
X108097499Y-138404761D01*
X108002261Y-138452380D01*
X107811785Y-138452380D01*
X107716547Y-138404761D01*
X107621309Y-138309523D01*
X107573690Y-138119047D01*
X107573690Y-137785714D01*
X107621309Y-137595238D01*
X107716547Y-137500000D01*
X107811785Y-137452380D01*
X108668928Y-138452380D02*
X108668928Y-137452380D01*
X109002261Y-138166666D01*
X109335595Y-137452380D01*
X109335595Y-138452380D01*
X109764166Y-137547619D02*
X109811785Y-137500000D01*
X109907023Y-137452380D01*
X110145119Y-137452380D01*
X110240357Y-137500000D01*
X110287976Y-137547619D01*
X110335595Y-137642857D01*
X110335595Y-137738095D01*
X110287976Y-137880952D01*
X109716547Y-138452380D01*
X110335595Y-138452380D01*
X111526071Y-138452380D02*
X111526071Y-137452380D01*
X112097499Y-138452380D01*
X112097499Y-137452380D01*
X113145119Y-138357142D02*
X113097499Y-138404761D01*
X112954642Y-138452380D01*
X112859404Y-138452380D01*
X112716547Y-138404761D01*
X112621309Y-138309523D01*
X112573690Y-138214285D01*
X112526071Y-138023809D01*
X112526071Y-137880952D01*
X112573690Y-137690476D01*
X112621309Y-137595238D01*
X112716547Y-137500000D01*
X112859404Y-137452380D01*
X112954642Y-137452380D01*
X113097499Y-137500000D01*
X113145119Y-137547619D01*
X113526071Y-137547619D02*
X113573690Y-137500000D01*
X113668928Y-137452380D01*
X113907023Y-137452380D01*
X114002261Y-137500000D01*
X114049880Y-137547619D01*
X114097499Y-137642857D01*
X114097499Y-137738095D01*
X114049880Y-137880952D01*
X113478452Y-138452380D01*
X114097499Y-138452380D01*
X61428571Y-138071428D02*
X62190476Y-138071428D01*
X63428571Y-138071428D02*
X64190476Y-138071428D01*
X63809523Y-138452380D02*
X63809523Y-137690476D01*
X65380952Y-138166666D02*
X65857142Y-138166666D01*
X65285714Y-138452380D02*
X65619047Y-137452380D01*
X65952380Y-138452380D01*
X67380952Y-137928571D02*
X67523809Y-137976190D01*
X67571428Y-138023809D01*
X67619047Y-138119047D01*
X67619047Y-138261904D01*
X67571428Y-138357142D01*
X67523809Y-138404761D01*
X67428571Y-138452380D01*
X67047619Y-138452380D01*
X67047619Y-137452380D01*
X67380952Y-137452380D01*
X67476190Y-137500000D01*
X67523809Y-137547619D01*
X67571428Y-137642857D01*
X67571428Y-137738095D01*
X67523809Y-137833333D01*
X67476190Y-137880952D01*
X67380952Y-137928571D01*
X67047619Y-137928571D01*
D11*
X85857142Y-110250000D02*
X86571428Y-110250000D01*
X85714285Y-110678571D02*
X86214285Y-109178571D01*
X86714285Y-110678571D01*
X88071428Y-110678571D02*
X87571428Y-109964285D01*
X87214285Y-110678571D02*
X87214285Y-109178571D01*
X87785714Y-109178571D01*
X87928571Y-109250000D01*
X88000000Y-109321428D01*
X88071428Y-109464285D01*
X88071428Y-109678571D01*
X88000000Y-109821428D01*
X87928571Y-109892857D01*
X87785714Y-109964285D01*
X87214285Y-109964285D01*
X88714285Y-110678571D02*
X88714285Y-109178571D01*
X89071428Y-109178571D01*
X89285714Y-109250000D01*
X89428571Y-109392857D01*
X89500000Y-109535714D01*
X89571428Y-109821428D01*
X89571428Y-110035714D01*
X89500000Y-110321428D01*
X89428571Y-110464285D01*
X89285714Y-110607142D01*
X89071428Y-110678571D01*
X88714285Y-110678571D01*
X90214285Y-109178571D02*
X90214285Y-110392857D01*
X90285714Y-110535714D01*
X90357142Y-110607142D01*
X90500000Y-110678571D01*
X90785714Y-110678571D01*
X90928571Y-110607142D01*
X91000000Y-110535714D01*
X91071428Y-110392857D01*
X91071428Y-109178571D01*
X91785714Y-110678571D02*
X91785714Y-109178571D01*
X92500000Y-110678571D02*
X92500000Y-109178571D01*
X93357142Y-110678571D01*
X93357142Y-109178571D01*
X94357142Y-109178571D02*
X94642857Y-109178571D01*
X94785714Y-109250000D01*
X94928571Y-109392857D01*
X95000000Y-109678571D01*
X95000000Y-110178571D01*
X94928571Y-110464285D01*
X94785714Y-110607142D01*
X94642857Y-110678571D01*
X94357142Y-110678571D01*
X94214285Y-110607142D01*
X94071428Y-110464285D01*
X94000000Y-110178571D01*
X94000000Y-109678571D01*
X94071428Y-109392857D01*
X94214285Y-109250000D01*
X94357142Y-109178571D01*
X96785714Y-110678571D02*
X96785714Y-109178571D01*
X97642857Y-110678571D01*
X97642857Y-109178571D01*
X98285714Y-110250000D02*
X99000000Y-110250000D01*
X98142857Y-110678571D02*
X98642857Y-109178571D01*
X99142857Y-110678571D01*
X99642857Y-110678571D02*
X99642857Y-109178571D01*
X100500000Y-110678571D01*
X100500000Y-109178571D01*
X101500000Y-109178571D02*
X101785714Y-109178571D01*
X101928571Y-109250000D01*
X102071428Y-109392857D01*
X102142857Y-109678571D01*
X102142857Y-110178571D01*
X102071428Y-110464285D01*
X101928571Y-110607142D01*
X101785714Y-110678571D01*
X101500000Y-110678571D01*
X101357142Y-110607142D01*
X101214285Y-110464285D01*
X101142857Y-110178571D01*
X101142857Y-109678571D01*
X101214285Y-109392857D01*
X101357142Y-109250000D01*
X101500000Y-109178571D01*
D12*
X107837857Y-90678571D02*
X106980714Y-90678571D01*
X107409285Y-90678571D02*
X107409285Y-89178571D01*
X107266428Y-89392857D01*
X107123571Y-89535714D01*
X106980714Y-89607142D01*
X108552142Y-90678571D02*
X108837857Y-90678571D01*
X108980714Y-90607142D01*
X109052142Y-90535714D01*
X109195000Y-90321428D01*
X109266428Y-90035714D01*
X109266428Y-89464285D01*
X109195000Y-89321428D01*
X109123571Y-89250000D01*
X108980714Y-89178571D01*
X108695000Y-89178571D01*
X108552142Y-89250000D01*
X108480714Y-89321428D01*
X108409285Y-89464285D01*
X108409285Y-89821428D01*
X108480714Y-89964285D01*
X108552142Y-90035714D01*
X108695000Y-90107142D01*
X108980714Y-90107142D01*
X109123571Y-90035714D01*
X109195000Y-89964285D01*
X109266428Y-89821428D01*
X110695000Y-90678571D02*
X109837857Y-90678571D01*
X110266428Y-90678571D02*
X110266428Y-89178571D01*
X110123571Y-89392857D01*
X109980714Y-89535714D01*
X109837857Y-89607142D01*
X112123571Y-90678571D02*
X111266428Y-90678571D01*
X111695000Y-90678571D02*
X111695000Y-89178571D01*
X111552142Y-89392857D01*
X111409285Y-89535714D01*
X111266428Y-89607142D01*
X113052142Y-89178571D02*
X113195000Y-89178571D01*
X113337857Y-89250000D01*
X113409285Y-89321428D01*
X113480714Y-89464285D01*
X113552142Y-89750000D01*
X113552142Y-90107142D01*
X113480714Y-90392857D01*
X113409285Y-90535714D01*
X113337857Y-90607142D01*
X113195000Y-90678571D01*
X113052142Y-90678571D01*
X112909285Y-90607142D01*
X112837857Y-90535714D01*
X112766428Y-90392857D01*
X112695000Y-90107142D01*
X112695000Y-89750000D01*
X112766428Y-89464285D01*
X112837857Y-89321428D01*
X112909285Y-89250000D01*
X113052142Y-89178571D01*
X114980714Y-90678571D02*
X114123571Y-90678571D01*
X114552142Y-90678571D02*
X114552142Y-89178571D01*
X114409285Y-89392857D01*
X114266428Y-89535714D01*
X114123571Y-89607142D01*
X57761904Y-78404761D02*
X57761904Y-80023809D01*
X57857142Y-80214285D01*
X57952380Y-80309523D01*
X58142857Y-80404761D01*
X58523809Y-80404761D01*
X58714285Y-80309523D01*
X58809523Y-80214285D01*
X58904761Y-80023809D01*
X58904761Y-78404761D01*
X59857142Y-80404761D02*
X59857142Y-78404761D01*
X61000000Y-80404761D01*
X61000000Y-78404761D01*
X61952380Y-80404761D02*
X61952380Y-78404761D01*
X62619047Y-78404761D02*
X63285714Y-80404761D01*
X63952380Y-78404761D01*
X64619047Y-79357142D02*
X65285714Y-79357142D01*
X65571428Y-80404761D02*
X64619047Y-80404761D01*
X64619047Y-78404761D01*
X65571428Y-78404761D01*
X67571428Y-80404761D02*
X66904761Y-79452380D01*
X66428571Y-80404761D02*
X66428571Y-78404761D01*
X67190476Y-78404761D01*
X67380952Y-78500000D01*
X67476190Y-78595238D01*
X67571428Y-78785714D01*
X67571428Y-79071428D01*
X67476190Y-79261904D01*
X67380952Y-79357142D01*
X67190476Y-79452380D01*
X66428571Y-79452380D01*
X68333333Y-80309523D02*
X68619047Y-80404761D01*
X69095238Y-80404761D01*
X69285714Y-80309523D01*
X69380952Y-80214285D01*
X69476190Y-80023809D01*
X69476190Y-79833333D01*
X69380952Y-79642857D01*
X69285714Y-79547619D01*
X69095238Y-79452380D01*
X68714285Y-79357142D01*
X68523809Y-79261904D01*
X68428571Y-79166666D01*
X68333333Y-78976190D01*
X68333333Y-78785714D01*
X68428571Y-78595238D01*
X68523809Y-78500000D01*
X68714285Y-78404761D01*
X69190476Y-78404761D01*
X69476190Y-78500000D01*
X70238095Y-79833333D02*
X71190476Y-79833333D01*
X70047619Y-80404761D02*
X70714285Y-78404761D01*
X71380952Y-80404761D01*
X73000000Y-80404761D02*
X72047619Y-80404761D01*
X72047619Y-78404761D01*
X75190476Y-80404761D02*
X75190476Y-78404761D01*
X75857142Y-79833333D01*
X76523809Y-78404761D01*
X76523809Y-80404761D01*
X77857142Y-78404761D02*
X78238095Y-78404761D01*
X78428571Y-78500000D01*
X78619047Y-78690476D01*
X78714285Y-79071428D01*
X78714285Y-79738095D01*
X78619047Y-80119047D01*
X78428571Y-80309523D01*
X78238095Y-80404761D01*
X77857142Y-80404761D01*
X77666666Y-80309523D01*
X77476190Y-80119047D01*
X77380952Y-79738095D01*
X77380952Y-79071428D01*
X77476190Y-78690476D01*
X77666666Y-78500000D01*
X77857142Y-78404761D01*
X79571428Y-80404761D02*
X79571428Y-78404761D01*
X80047619Y-78404761D01*
X80333333Y-78500000D01*
X80523809Y-78690476D01*
X80619047Y-78880952D01*
X80714285Y-79261904D01*
X80714285Y-79547619D01*
X80619047Y-79928571D01*
X80523809Y-80119047D01*
X80333333Y-80309523D01*
X80047619Y-80404761D01*
X79571428Y-80404761D01*
X82238095Y-79357142D02*
X82523809Y-79452380D01*
X82619047Y-79547619D01*
X82714285Y-79738095D01*
X82714285Y-80023809D01*
X82619047Y-80214285D01*
X82523809Y-80309523D01*
X82333333Y-80404761D01*
X81571428Y-80404761D01*
X81571428Y-78404761D01*
X82238095Y-78404761D01*
X82428571Y-78500000D01*
X82523809Y-78595238D01*
X82619047Y-78785714D01*
X82619047Y-78976190D01*
X82523809Y-79166666D01*
X82428571Y-79261904D01*
X82238095Y-79357142D01*
X81571428Y-79357142D01*
X83571428Y-78404761D02*
X83571428Y-80023809D01*
X83666666Y-80214285D01*
X83761904Y-80309523D01*
X83952380Y-80404761D01*
X84333333Y-80404761D01*
X84523809Y-80309523D01*
X84619047Y-80214285D01*
X84714285Y-80023809D01*
X84714285Y-78404761D01*
X85571428Y-80309523D02*
X85857142Y-80404761D01*
X86333333Y-80404761D01*
X86523809Y-80309523D01*
X86619047Y-80214285D01*
X86714285Y-80023809D01*
X86714285Y-79833333D01*
X86619047Y-79642857D01*
X86523809Y-79547619D01*
X86333333Y-79452380D01*
X85952380Y-79357142D01*
X85761904Y-79261904D01*
X85666666Y-79166666D01*
X85571428Y-78976190D01*
X85571428Y-78785714D01*
X85666666Y-78595238D01*
X85761904Y-78500000D01*
X85952380Y-78404761D01*
X86428571Y-78404761D01*
X86714285Y-78500000D01*
X89095238Y-80404761D02*
X89095238Y-78404761D01*
X90047619Y-80404761D02*
X90047619Y-78404761D01*
X91190476Y-80404761D01*
X91190476Y-78404761D01*
X92142857Y-80404761D02*
X92142857Y-78404761D01*
X92904761Y-78404761D01*
X93095238Y-78500000D01*
X93190476Y-78595238D01*
X93285714Y-78785714D01*
X93285714Y-79071428D01*
X93190476Y-79261904D01*
X93095238Y-79357142D01*
X92904761Y-79452380D01*
X92142857Y-79452380D01*
X94142857Y-78404761D02*
X94142857Y-80023809D01*
X94238095Y-80214285D01*
X94333333Y-80309523D01*
X94523809Y-80404761D01*
X94904761Y-80404761D01*
X95095238Y-80309523D01*
X95190476Y-80214285D01*
X95285714Y-80023809D01*
X95285714Y-78404761D01*
X95952380Y-78404761D02*
X97095238Y-78404761D01*
X96523809Y-80404761D02*
X96523809Y-78404761D01*
X99285714Y-80404761D02*
X99285714Y-78404761D01*
X99952380Y-79833333D01*
X100619047Y-78404761D01*
X100619047Y-80404761D01*
X101952380Y-78404761D02*
X102333333Y-78404761D01*
X102523809Y-78500000D01*
X102714285Y-78690476D01*
X102809523Y-79071428D01*
X102809523Y-79738095D01*
X102714285Y-80119047D01*
X102523809Y-80309523D01*
X102333333Y-80404761D01*
X101952380Y-80404761D01*
X101761904Y-80309523D01*
X101571428Y-80119047D01*
X101476190Y-79738095D01*
X101476190Y-79071428D01*
X101571428Y-78690476D01*
X101761904Y-78500000D01*
X101952380Y-78404761D01*
X103666666Y-80404761D02*
X103666666Y-78404761D01*
X104142857Y-78404761D01*
X104428571Y-78500000D01*
X104619047Y-78690476D01*
X104714285Y-78880952D01*
X104809523Y-79261904D01*
X104809523Y-79547619D01*
X104714285Y-79928571D01*
X104619047Y-80119047D01*
X104428571Y-80309523D01*
X104142857Y-80404761D01*
X103666666Y-80404761D01*
X105666666Y-78404761D02*
X105666666Y-80023809D01*
X105761904Y-80214285D01*
X105857142Y-80309523D01*
X106047619Y-80404761D01*
X106428571Y-80404761D01*
X106619047Y-80309523D01*
X106714285Y-80214285D01*
X106809523Y-80023809D01*
X106809523Y-78404761D01*
X108714285Y-80404761D02*
X107761904Y-80404761D01*
X107761904Y-78404761D01*
X109380952Y-79357142D02*
X110047619Y-79357142D01*
X110333333Y-80404761D02*
X109380952Y-80404761D01*
X109380952Y-78404761D01*
X110333333Y-78404761D01*
X89909285Y-89678571D02*
X90266428Y-90678571D01*
X90623571Y-89678571D01*
X91980714Y-90678571D02*
X91123571Y-90678571D01*
X91552142Y-90678571D02*
X91552142Y-89178571D01*
X91409285Y-89392857D01*
X91266428Y-89535714D01*
X91123571Y-89607142D01*
X92623571Y-90535714D02*
X92695000Y-90607142D01*
X92623571Y-90678571D01*
X92552142Y-90607142D01*
X92623571Y-90535714D01*
X92623571Y-90678571D01*
X93623571Y-89178571D02*
X93766428Y-89178571D01*
X93909285Y-89250000D01*
X93980714Y-89321428D01*
X94052142Y-89464285D01*
X94123571Y-89750000D01*
X94123571Y-90107142D01*
X94052142Y-90392857D01*
X93980714Y-90535714D01*
X93909285Y-90607142D01*
X93766428Y-90678571D01*
X93623571Y-90678571D01*
X93480714Y-90607142D01*
X93409285Y-90535714D01*
X93337857Y-90392857D01*
X93266428Y-90107142D01*
X93266428Y-89750000D01*
X93337857Y-89464285D01*
X93409285Y-89321428D01*
X93480714Y-89250000D01*
X93623571Y-89178571D01*
D13*
X77301190Y-88904761D02*
X77301190Y-90523809D01*
X77396428Y-90714285D01*
X77491666Y-90809523D01*
X77682142Y-90904761D01*
X78063095Y-90904761D01*
X78253571Y-90809523D01*
X78348809Y-90714285D01*
X78444047Y-90523809D01*
X78444047Y-88904761D01*
X79396428Y-90904761D02*
X79396428Y-88904761D01*
X80063095Y-90333333D01*
X80729761Y-88904761D01*
X80729761Y-90904761D01*
X81682142Y-90904761D02*
X81682142Y-88904761D01*
X83491666Y-88904761D02*
X83110714Y-88904761D01*
X82920238Y-89000000D01*
X82825000Y-89095238D01*
X82634523Y-89380952D01*
X82539285Y-89761904D01*
X82539285Y-90523809D01*
X82634523Y-90714285D01*
X82729761Y-90809523D01*
X82920238Y-90904761D01*
X83301190Y-90904761D01*
X83491666Y-90809523D01*
X83586904Y-90714285D01*
X83682142Y-90523809D01*
X83682142Y-90047619D01*
X83586904Y-89857142D01*
X83491666Y-89761904D01*
X83301190Y-89666666D01*
X82920238Y-89666666D01*
X82729761Y-89761904D01*
X82634523Y-89857142D01*
X82539285Y-90047619D01*
X85682142Y-90904761D02*
X85015476Y-89952380D01*
X84539285Y-90904761D02*
X84539285Y-88904761D01*
X85301190Y-88904761D01*
X85491666Y-89000000D01*
X85586904Y-89095238D01*
X85682142Y-89285714D01*
X85682142Y-89571428D01*
X85586904Y-89761904D01*
X85491666Y-89857142D01*
X85301190Y-89952380D01*
X84539285Y-89952380D01*
X86444047Y-89095238D02*
X86539285Y-89000000D01*
X86729761Y-88904761D01*
X87205952Y-88904761D01*
X87396428Y-89000000D01*
X87491666Y-89095238D01*
X87586904Y-89285714D01*
X87586904Y-89476190D01*
X87491666Y-89761904D01*
X86348809Y-90904761D01*
X87586904Y-90904761D01*
D14*
X54262767Y-105178571D02*
X54102053Y-106464285D01*
X54012767Y-106607142D01*
X53860982Y-106678571D01*
X53789553Y-106678571D01*
X54325267Y-104678571D02*
X54244910Y-104750000D01*
X54307410Y-104821428D01*
X54387767Y-104750000D01*
X54325267Y-104678571D01*
X54307410Y-104821428D01*
X55494910Y-106178571D02*
X55593125Y-105392857D01*
X55539553Y-105250000D01*
X55405625Y-105178571D01*
X55119910Y-105178571D01*
X54968125Y-105250000D01*
X55503839Y-106107142D02*
X55352053Y-106178571D01*
X54994910Y-106178571D01*
X54860982Y-106107142D01*
X54807410Y-105964285D01*
X54825267Y-105821428D01*
X54914553Y-105678571D01*
X55066339Y-105607142D01*
X55423482Y-105607142D01*
X55575267Y-105535714D01*
X56119910Y-105178571D02*
X56691339Y-105178571D01*
X56396696Y-104678571D02*
X56235982Y-105964285D01*
X56289553Y-106107142D01*
X56423482Y-106178571D01*
X56566339Y-106178571D01*
X57646696Y-106107142D02*
X57494910Y-106178571D01*
X57209196Y-106178571D01*
X57075267Y-106107142D01*
X57021696Y-105964285D01*
X57093125Y-105392857D01*
X57182410Y-105250000D01*
X57334196Y-105178571D01*
X57619910Y-105178571D01*
X57753839Y-105250000D01*
X57807410Y-105392857D01*
X57789553Y-105535714D01*
X57057410Y-105678571D01*
X58566339Y-106178571D02*
X58432410Y-106107142D01*
X58378839Y-105964285D01*
X58539553Y-104678571D01*
X59155625Y-106035714D02*
X59218125Y-106107142D01*
X59137767Y-106178571D01*
X59075267Y-106107142D01*
X59155625Y-106035714D01*
X59137767Y-106178571D01*
X59789553Y-106107142D02*
X59923482Y-106178571D01*
X60209196Y-106178571D01*
X60360982Y-106107142D01*
X60450267Y-105964285D01*
X60459196Y-105892857D01*
X60405625Y-105750000D01*
X60271696Y-105678571D01*
X60057410Y-105678571D01*
X59923482Y-105607142D01*
X59869910Y-105464285D01*
X59878839Y-105392857D01*
X59968125Y-105250000D01*
X60119910Y-105178571D01*
X60334196Y-105178571D01*
X60468125Y-105250000D01*
X61066339Y-106178571D02*
X61253839Y-104678571D01*
X61280625Y-105607142D02*
X61637767Y-106178571D01*
X61762767Y-105178571D02*
X61119910Y-105750000D01*
D15*
X57304775Y-113225000D02*
X57304775Y-112725000D01*
X57554775Y-112975000D02*
X57054775Y-112975000D01*
X52149000Y-111784000D02*
X52149000Y-111216000D01*
X52189000Y-112018000D02*
X52189000Y-110982000D01*
X52229000Y-112177000D02*
X52229000Y-110823000D01*
X52269000Y-112305000D02*
X52269000Y-110695000D01*
X52309000Y-112415000D02*
X52309000Y-110585000D01*
X52349000Y-112511000D02*
X52349000Y-110489000D01*
X52389000Y-112598000D02*
X52389000Y-110402000D01*
X52429000Y-112678000D02*
X52429000Y-110322000D01*
X52469000Y-110460000D02*
X52469000Y-110249000D01*
X52469000Y-112751000D02*
X52469000Y-112540000D01*
X52509000Y-110460000D02*
X52509000Y-110181000D01*
X52509000Y-112819000D02*
X52509000Y-112540000D01*
X52549000Y-110460000D02*
X52549000Y-110117000D01*
X52549000Y-112883000D02*
X52549000Y-112540000D01*
X52589000Y-110460000D02*
X52589000Y-110057000D01*
X52589000Y-112943000D02*
X52589000Y-112540000D01*
X52629000Y-110460000D02*
X52629000Y-110000000D01*
X52629000Y-113000000D02*
X52629000Y-112540000D01*
X52669000Y-110460000D02*
X52669000Y-109946000D01*
X52669000Y-113054000D02*
X52669000Y-112540000D01*
X52709000Y-110460000D02*
X52709000Y-109895000D01*
X52709000Y-113105000D02*
X52709000Y-112540000D01*
X52749000Y-110460000D02*
X52749000Y-109847000D01*
X52749000Y-113153000D02*
X52749000Y-112540000D01*
X52789000Y-110460000D02*
X52789000Y-109801000D01*
X52789000Y-113199000D02*
X52789000Y-112540000D01*
X52829000Y-110460000D02*
X52829000Y-109757000D01*
X52829000Y-113243000D02*
X52829000Y-112540000D01*
X52869000Y-110460000D02*
X52869000Y-109715000D01*
X52869000Y-113285000D02*
X52869000Y-112540000D01*
X52909000Y-110460000D02*
X52909000Y-109674000D01*
X52909000Y-113326000D02*
X52909000Y-112540000D01*
X52949000Y-110460000D02*
X52949000Y-109636000D01*
X52949000Y-113364000D02*
X52949000Y-112540000D01*
X52989000Y-110460000D02*
X52989000Y-109599000D01*
X52989000Y-113401000D02*
X52989000Y-112540000D01*
X53029000Y-110460000D02*
X53029000Y-109563000D01*
X53029000Y-113437000D02*
X53029000Y-112540000D01*
X53069000Y-110460000D02*
X53069000Y-109529000D01*
X53069000Y-113471000D02*
X53069000Y-112540000D01*
X53109000Y-110460000D02*
X53109000Y-109496000D01*
X53109000Y-113504000D02*
X53109000Y-112540000D01*
X53149000Y-110460000D02*
X53149000Y-109465000D01*
X53149000Y-113535000D02*
X53149000Y-112540000D01*
X53189000Y-110460000D02*
X53189000Y-109435000D01*
X53189000Y-113565000D02*
X53189000Y-112540000D01*
X53229000Y-110460000D02*
X53229000Y-109405000D01*
X53229000Y-113595000D02*
X53229000Y-112540000D01*
X53269000Y-110460000D02*
X53269000Y-109378000D01*
X53269000Y-113622000D02*
X53269000Y-112540000D01*
X53309000Y-110460000D02*
X53309000Y-109351000D01*
X53309000Y-113649000D02*
X53309000Y-112540000D01*
X53349000Y-110460000D02*
X53349000Y-109325000D01*
X53349000Y-113675000D02*
X53349000Y-112540000D01*
X53389000Y-110460000D02*
X53389000Y-109300000D01*
X53389000Y-113700000D02*
X53389000Y-112540000D01*
X53429000Y-110460000D02*
X53429000Y-109276000D01*
X53429000Y-113724000D02*
X53429000Y-112540000D01*
X53469000Y-110460000D02*
X53469000Y-109253000D01*
X53469000Y-113747000D02*
X53469000Y-112540000D01*
X53509000Y-110460000D02*
X53509000Y-109232000D01*
X53509000Y-113768000D02*
X53509000Y-112540000D01*
X53549000Y-110460000D02*
X53549000Y-109210000D01*
X53549000Y-113790000D02*
X53549000Y-112540000D01*
X53589000Y-110460000D02*
X53589000Y-109190000D01*
X53589000Y-113810000D02*
X53589000Y-112540000D01*
X53629000Y-110460000D02*
X53629000Y-109171000D01*
X53629000Y-113829000D02*
X53629000Y-112540000D01*
X53669000Y-110460000D02*
X53669000Y-109152000D01*
X53669000Y-113848000D02*
X53669000Y-112540000D01*
X53709000Y-110460000D02*
X53709000Y-109135000D01*
X53709000Y-113865000D02*
X53709000Y-112540000D01*
X53749000Y-110460000D02*
X53749000Y-109118000D01*
X53749000Y-113882000D02*
X53749000Y-112540000D01*
X53789000Y-110460000D02*
X53789000Y-109102000D01*
X53789000Y-113898000D02*
X53789000Y-112540000D01*
X53829000Y-110460000D02*
X53829000Y-109086000D01*
X53829000Y-113914000D02*
X53829000Y-112540000D01*
X53869000Y-110460000D02*
X53869000Y-109072000D01*
X53869000Y-113928000D02*
X53869000Y-112540000D01*
X53909000Y-110460000D02*
X53909000Y-109058000D01*
X53909000Y-113942000D02*
X53909000Y-112540000D01*
X53949000Y-110460000D02*
X53949000Y-109045000D01*
X53949000Y-113955000D02*
X53949000Y-112540000D01*
X53989000Y-110460000D02*
X53989000Y-109032000D01*
X53989000Y-113968000D02*
X53989000Y-112540000D01*
X54029000Y-110460000D02*
X54029000Y-109020000D01*
X54029000Y-113980000D02*
X54029000Y-112540000D01*
X54070000Y-110460000D02*
X54070000Y-109009000D01*
X54070000Y-113991000D02*
X54070000Y-112540000D01*
X54110000Y-110460000D02*
X54110000Y-108999000D01*
X54110000Y-114001000D02*
X54110000Y-112540000D01*
X54150000Y-110460000D02*
X54150000Y-108989000D01*
X54150000Y-114011000D02*
X54150000Y-112540000D01*
X54190000Y-110460000D02*
X54190000Y-108980000D01*
X54190000Y-114020000D02*
X54190000Y-112540000D01*
X54230000Y-110460000D02*
X54230000Y-108972000D01*
X54230000Y-114028000D02*
X54230000Y-112540000D01*
X54270000Y-110460000D02*
X54270000Y-108964000D01*
X54270000Y-114036000D02*
X54270000Y-112540000D01*
X54310000Y-110460000D02*
X54310000Y-108957000D01*
X54310000Y-114043000D02*
X54310000Y-112540000D01*
X54350000Y-110460000D02*
X54350000Y-108950000D01*
X54350000Y-114050000D02*
X54350000Y-112540000D01*
X54390000Y-110460000D02*
X54390000Y-108944000D01*
X54390000Y-114056000D02*
X54390000Y-112540000D01*
X54430000Y-110460000D02*
X54430000Y-108939000D01*
X54430000Y-114061000D02*
X54430000Y-112540000D01*
X54470000Y-110460000D02*
X54470000Y-108935000D01*
X54470000Y-114065000D02*
X54470000Y-112540000D01*
X54510000Y-110460000D02*
X54510000Y-108931000D01*
X54510000Y-114069000D02*
X54510000Y-112540000D01*
X54550000Y-114073000D02*
X54550000Y-108927000D01*
X54590000Y-114076000D02*
X54590000Y-108924000D01*
X54630000Y-114078000D02*
X54630000Y-108922000D01*
X54670000Y-114079000D02*
X54670000Y-108921000D01*
X54710000Y-114080000D02*
X54710000Y-108920000D01*
X54750000Y-114080000D02*
X54750000Y-108920000D01*
X57370000Y-111500000D02*
G75*
G03X57370000Y-111500000I-2620000J0D01*
G01*
X57304775Y-135225000D02*
X57304775Y-134725000D01*
X57554775Y-134975000D02*
X57054775Y-134975000D01*
X52149000Y-133784000D02*
X52149000Y-133216000D01*
X52189000Y-134018000D02*
X52189000Y-132982000D01*
X52229000Y-134177000D02*
X52229000Y-132823000D01*
X52269000Y-134305000D02*
X52269000Y-132695000D01*
X52309000Y-134415000D02*
X52309000Y-132585000D01*
X52349000Y-134511000D02*
X52349000Y-132489000D01*
X52389000Y-134598000D02*
X52389000Y-132402000D01*
X52429000Y-134678000D02*
X52429000Y-132322000D01*
X52469000Y-132460000D02*
X52469000Y-132249000D01*
X52469000Y-134751000D02*
X52469000Y-134540000D01*
X52509000Y-132460000D02*
X52509000Y-132181000D01*
X52509000Y-134819000D02*
X52509000Y-134540000D01*
X52549000Y-132460000D02*
X52549000Y-132117000D01*
X52549000Y-134883000D02*
X52549000Y-134540000D01*
X52589000Y-132460000D02*
X52589000Y-132057000D01*
X52589000Y-134943000D02*
X52589000Y-134540000D01*
X52629000Y-132460000D02*
X52629000Y-132000000D01*
X52629000Y-135000000D02*
X52629000Y-134540000D01*
X52669000Y-132460000D02*
X52669000Y-131946000D01*
X52669000Y-135054000D02*
X52669000Y-134540000D01*
X52709000Y-132460000D02*
X52709000Y-131895000D01*
X52709000Y-135105000D02*
X52709000Y-134540000D01*
X52749000Y-132460000D02*
X52749000Y-131847000D01*
X52749000Y-135153000D02*
X52749000Y-134540000D01*
X52789000Y-132460000D02*
X52789000Y-131801000D01*
X52789000Y-135199000D02*
X52789000Y-134540000D01*
X52829000Y-132460000D02*
X52829000Y-131757000D01*
X52829000Y-135243000D02*
X52829000Y-134540000D01*
X52869000Y-132460000D02*
X52869000Y-131715000D01*
X52869000Y-135285000D02*
X52869000Y-134540000D01*
X52909000Y-132460000D02*
X52909000Y-131674000D01*
X52909000Y-135326000D02*
X52909000Y-134540000D01*
X52949000Y-132460000D02*
X52949000Y-131636000D01*
X52949000Y-135364000D02*
X52949000Y-134540000D01*
X52989000Y-132460000D02*
X52989000Y-131599000D01*
X52989000Y-135401000D02*
X52989000Y-134540000D01*
X53029000Y-132460000D02*
X53029000Y-131563000D01*
X53029000Y-135437000D02*
X53029000Y-134540000D01*
X53069000Y-132460000D02*
X53069000Y-131529000D01*
X53069000Y-135471000D02*
X53069000Y-134540000D01*
X53109000Y-132460000D02*
X53109000Y-131496000D01*
X53109000Y-135504000D02*
X53109000Y-134540000D01*
X53149000Y-132460000D02*
X53149000Y-131465000D01*
X53149000Y-135535000D02*
X53149000Y-134540000D01*
X53189000Y-132460000D02*
X53189000Y-131435000D01*
X53189000Y-135565000D02*
X53189000Y-134540000D01*
X53229000Y-132460000D02*
X53229000Y-131405000D01*
X53229000Y-135595000D02*
X53229000Y-134540000D01*
X53269000Y-132460000D02*
X53269000Y-131378000D01*
X53269000Y-135622000D02*
X53269000Y-134540000D01*
X53309000Y-132460000D02*
X53309000Y-131351000D01*
X53309000Y-135649000D02*
X53309000Y-134540000D01*
X53349000Y-132460000D02*
X53349000Y-131325000D01*
X53349000Y-135675000D02*
X53349000Y-134540000D01*
X53389000Y-132460000D02*
X53389000Y-131300000D01*
X53389000Y-135700000D02*
X53389000Y-134540000D01*
X53429000Y-132460000D02*
X53429000Y-131276000D01*
X53429000Y-135724000D02*
X53429000Y-134540000D01*
X53469000Y-132460000D02*
X53469000Y-131253000D01*
X53469000Y-135747000D02*
X53469000Y-134540000D01*
X53509000Y-132460000D02*
X53509000Y-131232000D01*
X53509000Y-135768000D02*
X53509000Y-134540000D01*
X53549000Y-132460000D02*
X53549000Y-131210000D01*
X53549000Y-135790000D02*
X53549000Y-134540000D01*
X53589000Y-132460000D02*
X53589000Y-131190000D01*
X53589000Y-135810000D02*
X53589000Y-134540000D01*
X53629000Y-132460000D02*
X53629000Y-131171000D01*
X53629000Y-135829000D02*
X53629000Y-134540000D01*
X53669000Y-132460000D02*
X53669000Y-131152000D01*
X53669000Y-135848000D02*
X53669000Y-134540000D01*
X53709000Y-132460000D02*
X53709000Y-131135000D01*
X53709000Y-135865000D02*
X53709000Y-134540000D01*
X53749000Y-132460000D02*
X53749000Y-131118000D01*
X53749000Y-135882000D02*
X53749000Y-134540000D01*
X53789000Y-132460000D02*
X53789000Y-131102000D01*
X53789000Y-135898000D02*
X53789000Y-134540000D01*
X53829000Y-132460000D02*
X53829000Y-131086000D01*
X53829000Y-135914000D02*
X53829000Y-134540000D01*
X53869000Y-132460000D02*
X53869000Y-131072000D01*
X53869000Y-135928000D02*
X53869000Y-134540000D01*
X53909000Y-132460000D02*
X53909000Y-131058000D01*
X53909000Y-135942000D02*
X53909000Y-134540000D01*
X53949000Y-132460000D02*
X53949000Y-131045000D01*
X53949000Y-135955000D02*
X53949000Y-134540000D01*
X53989000Y-132460000D02*
X53989000Y-131032000D01*
X53989000Y-135968000D02*
X53989000Y-134540000D01*
X54029000Y-132460000D02*
X54029000Y-131020000D01*
X54029000Y-135980000D02*
X54029000Y-134540000D01*
X54070000Y-132460000D02*
X54070000Y-131009000D01*
X54070000Y-135991000D02*
X54070000Y-134540000D01*
X54110000Y-132460000D02*
X54110000Y-130999000D01*
X54110000Y-136001000D02*
X54110000Y-134540000D01*
X54150000Y-132460000D02*
X54150000Y-130989000D01*
X54150000Y-136011000D02*
X54150000Y-134540000D01*
X54190000Y-132460000D02*
X54190000Y-130980000D01*
X54190000Y-136020000D02*
X54190000Y-134540000D01*
X54230000Y-132460000D02*
X54230000Y-130972000D01*
X54230000Y-136028000D02*
X54230000Y-134540000D01*
X54270000Y-132460000D02*
X54270000Y-130964000D01*
X54270000Y-136036000D02*
X54270000Y-134540000D01*
X54310000Y-132460000D02*
X54310000Y-130957000D01*
X54310000Y-136043000D02*
X54310000Y-134540000D01*
X54350000Y-132460000D02*
X54350000Y-130950000D01*
X54350000Y-136050000D02*
X54350000Y-134540000D01*
X54390000Y-132460000D02*
X54390000Y-130944000D01*
X54390000Y-136056000D02*
X54390000Y-134540000D01*
X54430000Y-132460000D02*
X54430000Y-130939000D01*
X54430000Y-136061000D02*
X54430000Y-134540000D01*
X54470000Y-132460000D02*
X54470000Y-130935000D01*
X54470000Y-136065000D02*
X54470000Y-134540000D01*
X54510000Y-132460000D02*
X54510000Y-130931000D01*
X54510000Y-136069000D02*
X54510000Y-134540000D01*
X54550000Y-136073000D02*
X54550000Y-130927000D01*
X54590000Y-136076000D02*
X54590000Y-130924000D01*
X54630000Y-136078000D02*
X54630000Y-130922000D01*
X54670000Y-136079000D02*
X54670000Y-130921000D01*
X54710000Y-136080000D02*
X54710000Y-130920000D01*
X54750000Y-136080000D02*
X54750000Y-130920000D01*
X57370000Y-133500000D02*
G75*
G03X57370000Y-133500000I-2620000J0D01*
G01*
X72725000Y-126695225D02*
X72225000Y-126695225D01*
X72475000Y-126445225D02*
X72475000Y-126945225D01*
X71284000Y-131851000D02*
X70716000Y-131851000D01*
X71518000Y-131811000D02*
X70482000Y-131811000D01*
X71677000Y-131771000D02*
X70323000Y-131771000D01*
X71805000Y-131731000D02*
X70195000Y-131731000D01*
X71915000Y-131691000D02*
X70085000Y-131691000D01*
X72011000Y-131651000D02*
X69989000Y-131651000D01*
X72098000Y-131611000D02*
X69902000Y-131611000D01*
X72178000Y-131571000D02*
X69822000Y-131571000D01*
X69960000Y-131531000D02*
X69749000Y-131531000D01*
X72251000Y-131531000D02*
X72040000Y-131531000D01*
X69960000Y-131491000D02*
X69681000Y-131491000D01*
X72319000Y-131491000D02*
X72040000Y-131491000D01*
X69960000Y-131451000D02*
X69617000Y-131451000D01*
X72383000Y-131451000D02*
X72040000Y-131451000D01*
X69960000Y-131411000D02*
X69557000Y-131411000D01*
X72443000Y-131411000D02*
X72040000Y-131411000D01*
X69960000Y-131371000D02*
X69500000Y-131371000D01*
X72500000Y-131371000D02*
X72040000Y-131371000D01*
X69960000Y-131331000D02*
X69446000Y-131331000D01*
X72554000Y-131331000D02*
X72040000Y-131331000D01*
X69960000Y-131291000D02*
X69395000Y-131291000D01*
X72605000Y-131291000D02*
X72040000Y-131291000D01*
X69960000Y-131251000D02*
X69347000Y-131251000D01*
X72653000Y-131251000D02*
X72040000Y-131251000D01*
X69960000Y-131211000D02*
X69301000Y-131211000D01*
X72699000Y-131211000D02*
X72040000Y-131211000D01*
X69960000Y-131171000D02*
X69257000Y-131171000D01*
X72743000Y-131171000D02*
X72040000Y-131171000D01*
X69960000Y-131131000D02*
X69215000Y-131131000D01*
X72785000Y-131131000D02*
X72040000Y-131131000D01*
X69960000Y-131091000D02*
X69174000Y-131091000D01*
X72826000Y-131091000D02*
X72040000Y-131091000D01*
X69960000Y-131051000D02*
X69136000Y-131051000D01*
X72864000Y-131051000D02*
X72040000Y-131051000D01*
X69960000Y-131011000D02*
X69099000Y-131011000D01*
X72901000Y-131011000D02*
X72040000Y-131011000D01*
X69960000Y-130971000D02*
X69063000Y-130971000D01*
X72937000Y-130971000D02*
X72040000Y-130971000D01*
X69960000Y-130931000D02*
X69029000Y-130931000D01*
X72971000Y-130931000D02*
X72040000Y-130931000D01*
X69960000Y-130891000D02*
X68996000Y-130891000D01*
X73004000Y-130891000D02*
X72040000Y-130891000D01*
X69960000Y-130851000D02*
X68965000Y-130851000D01*
X73035000Y-130851000D02*
X72040000Y-130851000D01*
X69960000Y-130811000D02*
X68935000Y-130811000D01*
X73065000Y-130811000D02*
X72040000Y-130811000D01*
X69960000Y-130771000D02*
X68905000Y-130771000D01*
X73095000Y-130771000D02*
X72040000Y-130771000D01*
X69960000Y-130731000D02*
X68878000Y-130731000D01*
X73122000Y-130731000D02*
X72040000Y-130731000D01*
X69960000Y-130691000D02*
X68851000Y-130691000D01*
X73149000Y-130691000D02*
X72040000Y-130691000D01*
X69960000Y-130651000D02*
X68825000Y-130651000D01*
X73175000Y-130651000D02*
X72040000Y-130651000D01*
X69960000Y-130611000D02*
X68800000Y-130611000D01*
X73200000Y-130611000D02*
X72040000Y-130611000D01*
X69960000Y-130571000D02*
X68776000Y-130571000D01*
X73224000Y-130571000D02*
X72040000Y-130571000D01*
X69960000Y-130531000D02*
X68753000Y-130531000D01*
X73247000Y-130531000D02*
X72040000Y-130531000D01*
X69960000Y-130491000D02*
X68732000Y-130491000D01*
X73268000Y-130491000D02*
X72040000Y-130491000D01*
X69960000Y-130451000D02*
X68710000Y-130451000D01*
X73290000Y-130451000D02*
X72040000Y-130451000D01*
X69960000Y-130411000D02*
X68690000Y-130411000D01*
X73310000Y-130411000D02*
X72040000Y-130411000D01*
X69960000Y-130371000D02*
X68671000Y-130371000D01*
X73329000Y-130371000D02*
X72040000Y-130371000D01*
X69960000Y-130331000D02*
X68652000Y-130331000D01*
X73348000Y-130331000D02*
X72040000Y-130331000D01*
X69960000Y-130291000D02*
X68635000Y-130291000D01*
X73365000Y-130291000D02*
X72040000Y-130291000D01*
X69960000Y-130251000D02*
X68618000Y-130251000D01*
X73382000Y-130251000D02*
X72040000Y-130251000D01*
X69960000Y-130211000D02*
X68602000Y-130211000D01*
X73398000Y-130211000D02*
X72040000Y-130211000D01*
X69960000Y-130171000D02*
X68586000Y-130171000D01*
X73414000Y-130171000D02*
X72040000Y-130171000D01*
X69960000Y-130131000D02*
X68572000Y-130131000D01*
X73428000Y-130131000D02*
X72040000Y-130131000D01*
X69960000Y-130091000D02*
X68558000Y-130091000D01*
X73442000Y-130091000D02*
X72040000Y-130091000D01*
X69960000Y-130051000D02*
X68545000Y-130051000D01*
X73455000Y-130051000D02*
X72040000Y-130051000D01*
X69960000Y-130011000D02*
X68532000Y-130011000D01*
X73468000Y-130011000D02*
X72040000Y-130011000D01*
X69960000Y-129971000D02*
X68520000Y-129971000D01*
X73480000Y-129971000D02*
X72040000Y-129971000D01*
X69960000Y-129930000D02*
X68509000Y-129930000D01*
X73491000Y-129930000D02*
X72040000Y-129930000D01*
X69960000Y-129890000D02*
X68499000Y-129890000D01*
X73501000Y-129890000D02*
X72040000Y-129890000D01*
X69960000Y-129850000D02*
X68489000Y-129850000D01*
X73511000Y-129850000D02*
X72040000Y-129850000D01*
X69960000Y-129810000D02*
X68480000Y-129810000D01*
X73520000Y-129810000D02*
X72040000Y-129810000D01*
X69960000Y-129770000D02*
X68472000Y-129770000D01*
X73528000Y-129770000D02*
X72040000Y-129770000D01*
X69960000Y-129730000D02*
X68464000Y-129730000D01*
X73536000Y-129730000D02*
X72040000Y-129730000D01*
X69960000Y-129690000D02*
X68457000Y-129690000D01*
X73543000Y-129690000D02*
X72040000Y-129690000D01*
X69960000Y-129650000D02*
X68450000Y-129650000D01*
X73550000Y-129650000D02*
X72040000Y-129650000D01*
X69960000Y-129610000D02*
X68444000Y-129610000D01*
X73556000Y-129610000D02*
X72040000Y-129610000D01*
X69960000Y-129570000D02*
X68439000Y-129570000D01*
X73561000Y-129570000D02*
X72040000Y-129570000D01*
X69960000Y-129530000D02*
X68435000Y-129530000D01*
X73565000Y-129530000D02*
X72040000Y-129530000D01*
X69960000Y-129490000D02*
X68431000Y-129490000D01*
X73569000Y-129490000D02*
X72040000Y-129490000D01*
X73573000Y-129450000D02*
X68427000Y-129450000D01*
X73576000Y-129410000D02*
X68424000Y-129410000D01*
X73578000Y-129370000D02*
X68422000Y-129370000D01*
X73579000Y-129330000D02*
X68421000Y-129330000D01*
X73580000Y-129290000D02*
X68420000Y-129290000D01*
X73580000Y-129250000D02*
X68420000Y-129250000D01*
X73620000Y-129250000D02*
G75*
G03X73620000Y-129250000I-2620000J0D01*
G01*
X72725000Y-120695225D02*
X72225000Y-120695225D01*
X72475000Y-120445225D02*
X72475000Y-120945225D01*
X71284000Y-125851000D02*
X70716000Y-125851000D01*
X71518000Y-125811000D02*
X70482000Y-125811000D01*
X71677000Y-125771000D02*
X70323000Y-125771000D01*
X71805000Y-125731000D02*
X70195000Y-125731000D01*
X71915000Y-125691000D02*
X70085000Y-125691000D01*
X72011000Y-125651000D02*
X69989000Y-125651000D01*
X72098000Y-125611000D02*
X69902000Y-125611000D01*
X72178000Y-125571000D02*
X69822000Y-125571000D01*
X69960000Y-125531000D02*
X69749000Y-125531000D01*
X72251000Y-125531000D02*
X72040000Y-125531000D01*
X69960000Y-125491000D02*
X69681000Y-125491000D01*
X72319000Y-125491000D02*
X72040000Y-125491000D01*
X69960000Y-125451000D02*
X69617000Y-125451000D01*
X72383000Y-125451000D02*
X72040000Y-125451000D01*
X69960000Y-125411000D02*
X69557000Y-125411000D01*
X72443000Y-125411000D02*
X72040000Y-125411000D01*
X69960000Y-125371000D02*
X69500000Y-125371000D01*
X72500000Y-125371000D02*
X72040000Y-125371000D01*
X69960000Y-125331000D02*
X69446000Y-125331000D01*
X72554000Y-125331000D02*
X72040000Y-125331000D01*
X69960000Y-125291000D02*
X69395000Y-125291000D01*
X72605000Y-125291000D02*
X72040000Y-125291000D01*
X69960000Y-125251000D02*
X69347000Y-125251000D01*
X72653000Y-125251000D02*
X72040000Y-125251000D01*
X69960000Y-125211000D02*
X69301000Y-125211000D01*
X72699000Y-125211000D02*
X72040000Y-125211000D01*
X69960000Y-125171000D02*
X69257000Y-125171000D01*
X72743000Y-125171000D02*
X72040000Y-125171000D01*
X69960000Y-125131000D02*
X69215000Y-125131000D01*
X72785000Y-125131000D02*
X72040000Y-125131000D01*
X69960000Y-125091000D02*
X69174000Y-125091000D01*
X72826000Y-125091000D02*
X72040000Y-125091000D01*
X69960000Y-125051000D02*
X69136000Y-125051000D01*
X72864000Y-125051000D02*
X72040000Y-125051000D01*
X69960000Y-125011000D02*
X69099000Y-125011000D01*
X72901000Y-125011000D02*
X72040000Y-125011000D01*
X69960000Y-124971000D02*
X69063000Y-124971000D01*
X72937000Y-124971000D02*
X72040000Y-124971000D01*
X69960000Y-124931000D02*
X69029000Y-124931000D01*
X72971000Y-124931000D02*
X72040000Y-124931000D01*
X69960000Y-124891000D02*
X68996000Y-124891000D01*
X73004000Y-124891000D02*
X72040000Y-124891000D01*
X69960000Y-124851000D02*
X68965000Y-124851000D01*
X73035000Y-124851000D02*
X72040000Y-124851000D01*
X69960000Y-124811000D02*
X68935000Y-124811000D01*
X73065000Y-124811000D02*
X72040000Y-124811000D01*
X69960000Y-124771000D02*
X68905000Y-124771000D01*
X73095000Y-124771000D02*
X72040000Y-124771000D01*
X69960000Y-124731000D02*
X68878000Y-124731000D01*
X73122000Y-124731000D02*
X72040000Y-124731000D01*
X69960000Y-124691000D02*
X68851000Y-124691000D01*
X73149000Y-124691000D02*
X72040000Y-124691000D01*
X69960000Y-124651000D02*
X68825000Y-124651000D01*
X73175000Y-124651000D02*
X72040000Y-124651000D01*
X69960000Y-124611000D02*
X68800000Y-124611000D01*
X73200000Y-124611000D02*
X72040000Y-124611000D01*
X69960000Y-124571000D02*
X68776000Y-124571000D01*
X73224000Y-124571000D02*
X72040000Y-124571000D01*
X69960000Y-124531000D02*
X68753000Y-124531000D01*
X73247000Y-124531000D02*
X72040000Y-124531000D01*
X69960000Y-124491000D02*
X68732000Y-124491000D01*
X73268000Y-124491000D02*
X72040000Y-124491000D01*
X69960000Y-124451000D02*
X68710000Y-124451000D01*
X73290000Y-124451000D02*
X72040000Y-124451000D01*
X69960000Y-124411000D02*
X68690000Y-124411000D01*
X73310000Y-124411000D02*
X72040000Y-124411000D01*
X69960000Y-124371000D02*
X68671000Y-124371000D01*
X73329000Y-124371000D02*
X72040000Y-124371000D01*
X69960000Y-124331000D02*
X68652000Y-124331000D01*
X73348000Y-124331000D02*
X72040000Y-124331000D01*
X69960000Y-124291000D02*
X68635000Y-124291000D01*
X73365000Y-124291000D02*
X72040000Y-124291000D01*
X69960000Y-124251000D02*
X68618000Y-124251000D01*
X73382000Y-124251000D02*
X72040000Y-124251000D01*
X69960000Y-124211000D02*
X68602000Y-124211000D01*
X73398000Y-124211000D02*
X72040000Y-124211000D01*
X69960000Y-124171000D02*
X68586000Y-124171000D01*
X73414000Y-124171000D02*
X72040000Y-124171000D01*
X69960000Y-124131000D02*
X68572000Y-124131000D01*
X73428000Y-124131000D02*
X72040000Y-124131000D01*
X69960000Y-124091000D02*
X68558000Y-124091000D01*
X73442000Y-124091000D02*
X72040000Y-124091000D01*
X69960000Y-124051000D02*
X68545000Y-124051000D01*
X73455000Y-124051000D02*
X72040000Y-124051000D01*
X69960000Y-124011000D02*
X68532000Y-124011000D01*
X73468000Y-124011000D02*
X72040000Y-124011000D01*
X69960000Y-123971000D02*
X68520000Y-123971000D01*
X73480000Y-123971000D02*
X72040000Y-123971000D01*
X69960000Y-123930000D02*
X68509000Y-123930000D01*
X73491000Y-123930000D02*
X72040000Y-123930000D01*
X69960000Y-123890000D02*
X68499000Y-123890000D01*
X73501000Y-123890000D02*
X72040000Y-123890000D01*
X69960000Y-123850000D02*
X68489000Y-123850000D01*
X73511000Y-123850000D02*
X72040000Y-123850000D01*
X69960000Y-123810000D02*
X68480000Y-123810000D01*
X73520000Y-123810000D02*
X72040000Y-123810000D01*
X69960000Y-123770000D02*
X68472000Y-123770000D01*
X73528000Y-123770000D02*
X72040000Y-123770000D01*
X69960000Y-123730000D02*
X68464000Y-123730000D01*
X73536000Y-123730000D02*
X72040000Y-123730000D01*
X69960000Y-123690000D02*
X68457000Y-123690000D01*
X73543000Y-123690000D02*
X72040000Y-123690000D01*
X69960000Y-123650000D02*
X68450000Y-123650000D01*
X73550000Y-123650000D02*
X72040000Y-123650000D01*
X69960000Y-123610000D02*
X68444000Y-123610000D01*
X73556000Y-123610000D02*
X72040000Y-123610000D01*
X69960000Y-123570000D02*
X68439000Y-123570000D01*
X73561000Y-123570000D02*
X72040000Y-123570000D01*
X69960000Y-123530000D02*
X68435000Y-123530000D01*
X73565000Y-123530000D02*
X72040000Y-123530000D01*
X69960000Y-123490000D02*
X68431000Y-123490000D01*
X73569000Y-123490000D02*
X72040000Y-123490000D01*
X73573000Y-123450000D02*
X68427000Y-123450000D01*
X73576000Y-123410000D02*
X68424000Y-123410000D01*
X73578000Y-123370000D02*
X68422000Y-123370000D01*
X73579000Y-123330000D02*
X68421000Y-123330000D01*
X73580000Y-123290000D02*
X68420000Y-123290000D01*
X73580000Y-123250000D02*
X68420000Y-123250000D01*
X73620000Y-123250000D02*
G75*
G03X73620000Y-123250000I-2620000J0D01*
G01*
X76770000Y-116730000D02*
X74230000Y-116730000D01*
X74230000Y-116730000D02*
X74230000Y-119400000D01*
X76770000Y-119400000D02*
X115000000Y-119400000D01*
X71560000Y-119400000D02*
X74230000Y-119400000D01*
X74230000Y-104030000D02*
X74230000Y-101360000D01*
X74230000Y-104030000D02*
X112330000Y-104030000D01*
X112330000Y-104030000D02*
X112330000Y-101360000D01*
X76770000Y-116730000D02*
X76770000Y-119400000D01*
X76770000Y-116730000D02*
X112330000Y-116730000D01*
X112330000Y-116730000D02*
X112330000Y-119400000D01*
X115000000Y-119400000D02*
X115000000Y-101360000D01*
X115000000Y-101360000D02*
X71560000Y-101360000D01*
X71560000Y-101360000D02*
X71560000Y-119400000D01*
X111316682Y-67165244D02*
G75*
G02X112000000Y-67020000I683318J-1534756D01*
G01*
X110464574Y-69383042D02*
G75*
G02X110465000Y-68016000I1535426J683042D01*
G01*
X112683042Y-70235426D02*
G75*
G02X111316000Y-70235000I-683042J1535426D01*
G01*
X113535426Y-68016958D02*
G75*
G02X113535000Y-69384000I-1535426J-683042D01*
G01*
X111971195Y-67019747D02*
G75*
G02X112684000Y-67165000I28805J-1680253D01*
G01*
X108600000Y-68700000D02*
G75*
G03X108600000Y-68700000I-1680000J0D01*
G01*
X103520000Y-68700000D02*
G75*
G03X103520000Y-68700000I-1680000J0D01*
G01*
X98440000Y-68700000D02*
G75*
G03X98440000Y-68700000I-1680000J0D01*
G01*
X93360000Y-68700000D02*
G75*
G03X93360000Y-68700000I-1680000J0D01*
G01*
X88280000Y-68700000D02*
G75*
G03X88280000Y-68700000I-1680000J0D01*
G01*
X83200000Y-68700000D02*
G75*
G03X83200000Y-68700000I-1680000J0D01*
G01*
X78120000Y-68700000D02*
G75*
G03X78120000Y-68700000I-1680000J0D01*
G01*
X73040000Y-68700000D02*
G75*
G03X73040000Y-68700000I-1680000J0D01*
G01*
X67960000Y-68700000D02*
G75*
G03X67960000Y-68700000I-1680000J0D01*
G01*
X62880000Y-68700000D02*
G75*
G03X62880000Y-68700000I-1680000J0D01*
G01*
X57800000Y-68700000D02*
G75*
G03X57800000Y-68700000I-1680000J0D01*
G01*
X114600000Y-64600000D02*
X53520000Y-64600000D01*
X114600000Y-66100000D02*
X53520000Y-66100000D01*
X114600000Y-71001000D02*
X53520000Y-71001000D01*
X114600000Y-73961000D02*
X53520000Y-73961000D01*
X114600000Y-64040000D02*
X53520000Y-64040000D01*
X114600000Y-73961000D02*
X114600000Y-64040000D01*
X53520000Y-73961000D02*
X53520000Y-64040000D01*
X105645000Y-69769000D02*
X105692000Y-69723000D01*
X107954000Y-67461000D02*
X107989000Y-67426000D01*
X105850000Y-69975000D02*
X105885000Y-69939000D01*
X108147000Y-67677000D02*
X108194000Y-67631000D01*
X100565000Y-69769000D02*
X100612000Y-69723000D01*
X102874000Y-67461000D02*
X102909000Y-67426000D01*
X100770000Y-69975000D02*
X100805000Y-69939000D01*
X103067000Y-67677000D02*
X103114000Y-67631000D01*
X95485000Y-69769000D02*
X95532000Y-69723000D01*
X97794000Y-67461000D02*
X97829000Y-67426000D01*
X95690000Y-69975000D02*
X95725000Y-69939000D01*
X97987000Y-67677000D02*
X98034000Y-67631000D01*
X90405000Y-69769000D02*
X90452000Y-69723000D01*
X92714000Y-67461000D02*
X92749000Y-67426000D01*
X90610000Y-69975000D02*
X90645000Y-69939000D01*
X92907000Y-67677000D02*
X92954000Y-67631000D01*
X85325000Y-69769000D02*
X85372000Y-69723000D01*
X87634000Y-67461000D02*
X87669000Y-67426000D01*
X85530000Y-69975000D02*
X85565000Y-69939000D01*
X87827000Y-67677000D02*
X87874000Y-67631000D01*
X80245000Y-69769000D02*
X80292000Y-69723000D01*
X82554000Y-67461000D02*
X82589000Y-67426000D01*
X80450000Y-69975000D02*
X80485000Y-69939000D01*
X82747000Y-67677000D02*
X82794000Y-67631000D01*
X75165000Y-69769000D02*
X75212000Y-69723000D01*
X77474000Y-67461000D02*
X77509000Y-67426000D01*
X75370000Y-69975000D02*
X75405000Y-69939000D01*
X77667000Y-67677000D02*
X77714000Y-67631000D01*
X70085000Y-69769000D02*
X70132000Y-69723000D01*
X72394000Y-67461000D02*
X72429000Y-67426000D01*
X70290000Y-69975000D02*
X70325000Y-69939000D01*
X72587000Y-67677000D02*
X72634000Y-67631000D01*
X65005000Y-69769000D02*
X65052000Y-69723000D01*
X67314000Y-67461000D02*
X67349000Y-67426000D01*
X65210000Y-69975000D02*
X65245000Y-69939000D01*
X67507000Y-67677000D02*
X67554000Y-67631000D01*
X59925000Y-69769000D02*
X59972000Y-69723000D01*
X62234000Y-67461000D02*
X62269000Y-67426000D01*
X60130000Y-69975000D02*
X60165000Y-69939000D01*
X62427000Y-67677000D02*
X62474000Y-67631000D01*
X54845000Y-69769000D02*
X54892000Y-69723000D01*
X57154000Y-67461000D02*
X57189000Y-67426000D01*
X55050000Y-69975000D02*
X55085000Y-69939000D01*
X57347000Y-67677000D02*
X57394000Y-67631000D01*
X114840000Y-64540000D02*
X114840000Y-63800000D01*
X114840000Y-63800000D02*
X114340000Y-63800000D01*
X87283318Y-145834756D02*
G75*
G02X86600000Y-145980000I-683318J1534756D01*
G01*
X88135426Y-143616958D02*
G75*
G02X88135000Y-144984000I-1535426J-683042D01*
G01*
X85916958Y-142764574D02*
G75*
G02X87284000Y-142765000I683042J-1535426D01*
G01*
X85064574Y-144983042D02*
G75*
G02X85065000Y-143616000I1535426J683042D01*
G01*
X86628805Y-145980253D02*
G75*
G02X85916000Y-145835000I-28805J1680253D01*
G01*
X93360000Y-144300000D02*
G75*
G03X93360000Y-144300000I-1680000J0D01*
G01*
X98440000Y-144300000D02*
G75*
G03X98440000Y-144300000I-1680000J0D01*
G01*
X103520000Y-144300000D02*
G75*
G03X103520000Y-144300000I-1680000J0D01*
G01*
X108600000Y-144300000D02*
G75*
G03X108600000Y-144300000I-1680000J0D01*
G01*
X113680000Y-144300000D02*
G75*
G03X113680000Y-144300000I-1680000J0D01*
G01*
X84000000Y-148400000D02*
X114600000Y-148400000D01*
X84000000Y-146900000D02*
X114600000Y-146900000D01*
X84000000Y-141999000D02*
X114600000Y-141999000D01*
X84000000Y-139039000D02*
X114600000Y-139039000D01*
X84000000Y-148960000D02*
X114600000Y-148960000D01*
X84000000Y-139039000D02*
X84000000Y-148960000D01*
X114600000Y-139039000D02*
X114600000Y-148960000D01*
X92955000Y-143231000D02*
X92908000Y-143277000D01*
X90646000Y-145539000D02*
X90611000Y-145574000D01*
X92750000Y-143025000D02*
X92715000Y-143061000D01*
X90453000Y-145323000D02*
X90406000Y-145369000D01*
X98035000Y-143231000D02*
X97988000Y-143277000D01*
X95726000Y-145539000D02*
X95691000Y-145574000D01*
X97830000Y-143025000D02*
X97795000Y-143061000D01*
X95533000Y-145323000D02*
X95486000Y-145369000D01*
X103115000Y-143231000D02*
X103068000Y-143277000D01*
X100806000Y-145539000D02*
X100771000Y-145574000D01*
X102910000Y-143025000D02*
X102875000Y-143061000D01*
X100613000Y-145323000D02*
X100566000Y-145369000D01*
X108195000Y-143231000D02*
X108148000Y-143277000D01*
X105886000Y-145539000D02*
X105851000Y-145574000D01*
X107990000Y-143025000D02*
X107955000Y-143061000D01*
X105693000Y-145323000D02*
X105646000Y-145369000D01*
X113275000Y-143231000D02*
X113228000Y-143277000D01*
X110966000Y-145539000D02*
X110931000Y-145574000D01*
X113070000Y-143025000D02*
X113035000Y-143061000D01*
X110773000Y-145323000D02*
X110726000Y-145369000D01*
X83760000Y-148460000D02*
X83760000Y-149200000D01*
X83760000Y-149200000D02*
X84260000Y-149200000D01*
X56783318Y-145834756D02*
G75*
G02X56100000Y-145980000I-683318J1534756D01*
G01*
X57635426Y-143616958D02*
G75*
G02X57635000Y-144984000I-1535426J-683042D01*
G01*
X55416958Y-142764574D02*
G75*
G02X56784000Y-142765000I683042J-1535426D01*
G01*
X54564574Y-144983042D02*
G75*
G02X54565000Y-143616000I1535426J683042D01*
G01*
X56128805Y-145980253D02*
G75*
G02X55416000Y-145835000I-28805J1680253D01*
G01*
X62860000Y-144300000D02*
G75*
G03X62860000Y-144300000I-1680000J0D01*
G01*
X67940000Y-144300000D02*
G75*
G03X67940000Y-144300000I-1680000J0D01*
G01*
X73020000Y-144300000D02*
G75*
G03X73020000Y-144300000I-1680000J0D01*
G01*
X53500000Y-148400000D02*
X73940000Y-148400000D01*
X53500000Y-146900000D02*
X73940000Y-146900000D01*
X53500000Y-141999000D02*
X73940000Y-141999000D01*
X53500000Y-139039000D02*
X73940000Y-139039000D01*
X53500000Y-148960000D02*
X73940000Y-148960000D01*
X53500000Y-139039000D02*
X53500000Y-148960000D01*
X73940000Y-139039000D02*
X73940000Y-148960000D01*
X62455000Y-143231000D02*
X62408000Y-143277000D01*
X60146000Y-145539000D02*
X60111000Y-145574000D01*
X62250000Y-143025000D02*
X62215000Y-143061000D01*
X59953000Y-145323000D02*
X59906000Y-145369000D01*
X67535000Y-143231000D02*
X67488000Y-143277000D01*
X65226000Y-145539000D02*
X65191000Y-145574000D01*
X67330000Y-143025000D02*
X67295000Y-143061000D01*
X65033000Y-145323000D02*
X64986000Y-145369000D01*
X72615000Y-143231000D02*
X72568000Y-143277000D01*
X70306000Y-145539000D02*
X70271000Y-145574000D01*
X72410000Y-143025000D02*
X72375000Y-143061000D01*
X70113000Y-145323000D02*
X70066000Y-145369000D01*
X53260000Y-148460000D02*
X53260000Y-149200000D01*
X53260000Y-149200000D02*
X53760000Y-149200000D01*
X94400000Y-126800000D02*
X94400000Y-120200000D01*
X94400000Y-135800000D02*
X94400000Y-129200000D01*
X94400000Y-135800000D02*
X74600000Y-135800000D01*
X74600000Y-135800000D02*
X74600000Y-120200000D01*
X74600000Y-120200000D02*
X94400000Y-120200000D01*
X78850000Y-123800000D02*
X78850000Y-126250000D01*
X78850000Y-132200000D02*
X78850000Y-129700000D01*
X89450000Y-121950000D02*
X86950000Y-121950000D01*
X90350000Y-127950000D02*
X91150000Y-127950000D01*
X86950000Y-133950000D02*
X89450000Y-133950000D01*
X83550000Y-127950000D02*
X82050000Y-127950000D01*
X82050000Y-127950000D02*
X77450000Y-130450000D01*
X83550000Y-124350000D02*
X90350000Y-124350000D01*
X83550000Y-127950000D02*
X83550000Y-124350000D01*
X90350000Y-127950000D02*
X90350000Y-124350000D01*
X86950000Y-133950000D02*
X86950000Y-129750000D01*
X86950000Y-126150000D02*
X86950000Y-121950000D01*
X84950000Y-126150000D02*
X88950000Y-129750000D01*
X88950000Y-126150000D02*
X88950000Y-129750000D01*
X88950000Y-129750000D02*
X84950000Y-129750000D01*
X84950000Y-129750000D02*
X84950000Y-126150000D01*
X84950000Y-126150000D02*
X88950000Y-126150000D01*
X105950000Y-126150000D02*
X109950000Y-126150000D01*
X105950000Y-129750000D02*
X105950000Y-126150000D01*
X109950000Y-129750000D02*
X105950000Y-129750000D01*
X109950000Y-126150000D02*
X109950000Y-129750000D01*
X105950000Y-126150000D02*
X109950000Y-129750000D01*
X107950000Y-126150000D02*
X107950000Y-121950000D01*
X107950000Y-133950000D02*
X107950000Y-129750000D01*
X111350000Y-127950000D02*
X111350000Y-124350000D01*
X104550000Y-127950000D02*
X104550000Y-124350000D01*
X104550000Y-124350000D02*
X111350000Y-124350000D01*
X103050000Y-127950000D02*
X98450000Y-130450000D01*
X104550000Y-127950000D02*
X103050000Y-127950000D01*
X107950000Y-133950000D02*
X110450000Y-133950000D01*
X111350000Y-127950000D02*
X112150000Y-127950000D01*
X110450000Y-121950000D02*
X107950000Y-121950000D01*
X99850000Y-132200000D02*
X99850000Y-129700000D01*
X99850000Y-123800000D02*
X99850000Y-126250000D01*
X95600000Y-120200000D02*
X115400000Y-120200000D01*
X95600000Y-135800000D02*
X95600000Y-120200000D01*
X115400000Y-135800000D02*
X95600000Y-135800000D01*
X115400000Y-135800000D02*
X115400000Y-129200000D01*
X115400000Y-126800000D02*
X115400000Y-120200000D01*
X53730000Y-128080000D02*
X53730000Y-117840000D01*
X58371000Y-128080000D02*
X58371000Y-117840000D01*
X53730000Y-128080000D02*
X58371000Y-128080000D01*
X53730000Y-117840000D02*
X58371000Y-117840000D01*
X55240000Y-128080000D02*
X55240000Y-117840000D01*
X53730000Y-124810000D02*
X55240000Y-124810000D01*
X53730000Y-121109000D02*
X55240000Y-121109000D01*
D10*
X53630952Y-115607142D02*
X53583333Y-115654761D01*
X53440476Y-115702380D01*
X53345238Y-115702380D01*
X53202380Y-115654761D01*
X53107142Y-115559523D01*
X53059523Y-115464285D01*
X53011904Y-115273809D01*
X53011904Y-115130952D01*
X53059523Y-114940476D01*
X53107142Y-114845238D01*
X53202380Y-114750000D01*
X53345238Y-114702380D01*
X53440476Y-114702380D01*
X53583333Y-114750000D01*
X53630952Y-114797619D01*
X54488095Y-115035714D02*
X54488095Y-115702380D01*
X54250000Y-114654761D02*
X54011904Y-115369047D01*
X54630952Y-115369047D01*
X55202380Y-114702380D02*
X55297619Y-114702380D01*
X55392857Y-114750000D01*
X55440476Y-114797619D01*
X55488095Y-114892857D01*
X55535714Y-115083333D01*
X55535714Y-115321428D01*
X55488095Y-115511904D01*
X55440476Y-115607142D01*
X55392857Y-115654761D01*
X55297619Y-115702380D01*
X55202380Y-115702380D01*
X55107142Y-115654761D01*
X55059523Y-115607142D01*
X55011904Y-115511904D01*
X54964285Y-115321428D01*
X54964285Y-115083333D01*
X55011904Y-114892857D01*
X55059523Y-114797619D01*
X55107142Y-114750000D01*
X55202380Y-114702380D01*
X56392857Y-114702380D02*
X56202380Y-114702380D01*
X56107142Y-114750000D01*
X56059523Y-114797619D01*
X55964285Y-114940476D01*
X55916666Y-115130952D01*
X55916666Y-115511904D01*
X55964285Y-115607142D01*
X56011904Y-115654761D01*
X56107142Y-115702380D01*
X56297619Y-115702380D01*
X56392857Y-115654761D01*
X56440476Y-115607142D01*
X56488095Y-115511904D01*
X56488095Y-115273809D01*
X56440476Y-115178571D01*
X56392857Y-115130952D01*
X56297619Y-115083333D01*
X56107142Y-115083333D01*
X56011904Y-115130952D01*
X55964285Y-115178571D01*
X55916666Y-115273809D01*
X53380952Y-130357142D02*
X53333333Y-130404761D01*
X53190476Y-130452380D01*
X53095238Y-130452380D01*
X52952380Y-130404761D01*
X52857142Y-130309523D01*
X52809523Y-130214285D01*
X52761904Y-130023809D01*
X52761904Y-129880952D01*
X52809523Y-129690476D01*
X52857142Y-129595238D01*
X52952380Y-129500000D01*
X53095238Y-129452380D01*
X53190476Y-129452380D01*
X53333333Y-129500000D01*
X53380952Y-129547619D01*
X54238095Y-129785714D02*
X54238095Y-130452380D01*
X54000000Y-129404761D02*
X53761904Y-130119047D01*
X54380952Y-130119047D01*
X54952380Y-129452380D02*
X55047619Y-129452380D01*
X55142857Y-129500000D01*
X55190476Y-129547619D01*
X55238095Y-129642857D01*
X55285714Y-129833333D01*
X55285714Y-130071428D01*
X55238095Y-130261904D01*
X55190476Y-130357142D01*
X55142857Y-130404761D01*
X55047619Y-130452380D01*
X54952380Y-130452380D01*
X54857142Y-130404761D01*
X54809523Y-130357142D01*
X54761904Y-130261904D01*
X54714285Y-130071428D01*
X54714285Y-129833333D01*
X54761904Y-129642857D01*
X54809523Y-129547619D01*
X54857142Y-129500000D01*
X54952380Y-129452380D01*
X56238095Y-130452380D02*
X55666666Y-130452380D01*
X55952380Y-130452380D02*
X55952380Y-129452380D01*
X55857142Y-129595238D01*
X55761904Y-129690476D01*
X55666666Y-129738095D01*
X67857142Y-130119047D02*
X67904761Y-130166666D01*
X67952380Y-130309523D01*
X67952380Y-130404761D01*
X67904761Y-130547619D01*
X67809523Y-130642857D01*
X67714285Y-130690476D01*
X67523809Y-130738095D01*
X67380952Y-130738095D01*
X67190476Y-130690476D01*
X67095238Y-130642857D01*
X67000000Y-130547619D01*
X66952380Y-130404761D01*
X66952380Y-130309523D01*
X67000000Y-130166666D01*
X67047619Y-130119047D01*
X66952380Y-129785714D02*
X66952380Y-129166666D01*
X67333333Y-129500000D01*
X67333333Y-129357142D01*
X67380952Y-129261904D01*
X67428571Y-129214285D01*
X67523809Y-129166666D01*
X67761904Y-129166666D01*
X67857142Y-129214285D01*
X67904761Y-129261904D01*
X67952380Y-129357142D01*
X67952380Y-129642857D01*
X67904761Y-129738095D01*
X67857142Y-129785714D01*
X66952380Y-128547619D02*
X66952380Y-128452380D01*
X67000000Y-128357142D01*
X67047619Y-128309523D01*
X67142857Y-128261904D01*
X67333333Y-128214285D01*
X67571428Y-128214285D01*
X67761904Y-128261904D01*
X67857142Y-128309523D01*
X67904761Y-128357142D01*
X67952380Y-128452380D01*
X67952380Y-128547619D01*
X67904761Y-128642857D01*
X67857142Y-128690476D01*
X67761904Y-128738095D01*
X67571428Y-128785714D01*
X67333333Y-128785714D01*
X67142857Y-128738095D01*
X67047619Y-128690476D01*
X67000000Y-128642857D01*
X66952380Y-128547619D01*
X67047619Y-127833333D02*
X67000000Y-127785714D01*
X66952380Y-127690476D01*
X66952380Y-127452380D01*
X67000000Y-127357142D01*
X67047619Y-127309523D01*
X67142857Y-127261904D01*
X67238095Y-127261904D01*
X67380952Y-127309523D01*
X67952380Y-127880952D01*
X67952380Y-127261904D01*
X67857142Y-124119047D02*
X67904761Y-124166666D01*
X67952380Y-124309523D01*
X67952380Y-124404761D01*
X67904761Y-124547619D01*
X67809523Y-124642857D01*
X67714285Y-124690476D01*
X67523809Y-124738095D01*
X67380952Y-124738095D01*
X67190476Y-124690476D01*
X67095238Y-124642857D01*
X67000000Y-124547619D01*
X66952380Y-124404761D01*
X66952380Y-124309523D01*
X67000000Y-124166666D01*
X67047619Y-124119047D01*
X66952380Y-123785714D02*
X66952380Y-123166666D01*
X67333333Y-123500000D01*
X67333333Y-123357142D01*
X67380952Y-123261904D01*
X67428571Y-123214285D01*
X67523809Y-123166666D01*
X67761904Y-123166666D01*
X67857142Y-123214285D01*
X67904761Y-123261904D01*
X67952380Y-123357142D01*
X67952380Y-123642857D01*
X67904761Y-123738095D01*
X67857142Y-123785714D01*
X66952380Y-122547619D02*
X66952380Y-122452380D01*
X67000000Y-122357142D01*
X67047619Y-122309523D01*
X67142857Y-122261904D01*
X67333333Y-122214285D01*
X67571428Y-122214285D01*
X67761904Y-122261904D01*
X67857142Y-122309523D01*
X67904761Y-122357142D01*
X67952380Y-122452380D01*
X67952380Y-122547619D01*
X67904761Y-122642857D01*
X67857142Y-122690476D01*
X67761904Y-122738095D01*
X67571428Y-122785714D01*
X67333333Y-122785714D01*
X67142857Y-122738095D01*
X67047619Y-122690476D01*
X67000000Y-122642857D01*
X66952380Y-122547619D01*
X67952380Y-121261904D02*
X67952380Y-121833333D01*
X67952380Y-121547619D02*
X66952380Y-121547619D01*
X67095238Y-121642857D01*
X67190476Y-121738095D01*
X67238095Y-121833333D01*
X70586666Y-112046666D02*
X70586666Y-111570476D01*
X70872380Y-112141904D02*
X69872380Y-111808571D01*
X70872380Y-111475238D01*
X70205714Y-110713333D02*
X70872380Y-110713333D01*
X69824761Y-110951428D02*
X70539047Y-111189523D01*
X70539047Y-110570476D01*
X69872380Y-109999047D02*
X69872380Y-109903809D01*
X69920000Y-109808571D01*
X69967619Y-109760952D01*
X70062857Y-109713333D01*
X70253333Y-109665714D01*
X70491428Y-109665714D01*
X70681904Y-109713333D01*
X70777142Y-109760952D01*
X70824761Y-109808571D01*
X70872380Y-109903809D01*
X70872380Y-109999047D01*
X70824761Y-110094285D01*
X70777142Y-110141904D01*
X70681904Y-110189523D01*
X70491428Y-110237142D01*
X70253333Y-110237142D01*
X70062857Y-110189523D01*
X69967619Y-110141904D01*
X69920000Y-110094285D01*
X69872380Y-109999047D01*
X70872380Y-108713333D02*
X70872380Y-109284761D01*
X70872380Y-108999047D02*
X69872380Y-108999047D01*
X70015238Y-109094285D01*
X70110476Y-109189523D01*
X70158095Y-109284761D01*
X111714285Y-74952380D02*
X111714285Y-75666666D01*
X111666666Y-75809523D01*
X111571428Y-75904761D01*
X111428571Y-75952380D01*
X111333333Y-75952380D01*
X112142857Y-75047619D02*
X112190476Y-75000000D01*
X112285714Y-74952380D01*
X112523809Y-74952380D01*
X112619047Y-75000000D01*
X112666666Y-75047619D01*
X112714285Y-75142857D01*
X112714285Y-75238095D01*
X112666666Y-75380952D01*
X112095238Y-75952380D01*
X112714285Y-75952380D01*
X113333333Y-74952380D02*
X113428571Y-74952380D01*
X113523809Y-75000000D01*
X113571428Y-75047619D01*
X113619047Y-75142857D01*
X113666666Y-75333333D01*
X113666666Y-75571428D01*
X113619047Y-75761904D01*
X113571428Y-75857142D01*
X113523809Y-75904761D01*
X113428571Y-75952380D01*
X113333333Y-75952380D01*
X113238095Y-75904761D01*
X113190476Y-75857142D01*
X113142857Y-75761904D01*
X113095238Y-75571428D01*
X113095238Y-75333333D01*
X113142857Y-75142857D01*
X113190476Y-75047619D01*
X113238095Y-75000000D01*
X113333333Y-74952380D01*
X114619047Y-75952380D02*
X114047619Y-75952380D01*
X114333333Y-75952380D02*
X114333333Y-74952380D01*
X114238095Y-75095238D01*
X114142857Y-75190476D01*
X114047619Y-75238095D01*
X84714285Y-137452380D02*
X84714285Y-138166666D01*
X84666666Y-138309523D01*
X84571428Y-138404761D01*
X84428571Y-138452380D01*
X84333333Y-138452380D01*
X85095238Y-137452380D02*
X85714285Y-137452380D01*
X85380952Y-137833333D01*
X85523809Y-137833333D01*
X85619047Y-137880952D01*
X85666666Y-137928571D01*
X85714285Y-138023809D01*
X85714285Y-138261904D01*
X85666666Y-138357142D01*
X85619047Y-138404761D01*
X85523809Y-138452380D01*
X85238095Y-138452380D01*
X85142857Y-138404761D01*
X85095238Y-138357142D01*
X86333333Y-137452380D02*
X86428571Y-137452380D01*
X86523809Y-137500000D01*
X86571428Y-137547619D01*
X86619047Y-137642857D01*
X86666666Y-137833333D01*
X86666666Y-138071428D01*
X86619047Y-138261904D01*
X86571428Y-138357142D01*
X86523809Y-138404761D01*
X86428571Y-138452380D01*
X86333333Y-138452380D01*
X86238095Y-138404761D01*
X86190476Y-138357142D01*
X86142857Y-138261904D01*
X86095238Y-138071428D01*
X86095238Y-137833333D01*
X86142857Y-137642857D01*
X86190476Y-137547619D01*
X86238095Y-137500000D01*
X86333333Y-137452380D01*
X87619047Y-138452380D02*
X87047619Y-138452380D01*
X87333333Y-138452380D02*
X87333333Y-137452380D01*
X87238095Y-137595238D01*
X87142857Y-137690476D01*
X87047619Y-137738095D01*
X54214285Y-137452380D02*
X54214285Y-138166666D01*
X54166666Y-138309523D01*
X54071428Y-138404761D01*
X53928571Y-138452380D01*
X53833333Y-138452380D01*
X55119047Y-137785714D02*
X55119047Y-138452380D01*
X54880952Y-137404761D02*
X54642857Y-138119047D01*
X55261904Y-138119047D01*
X55833333Y-137452380D02*
X55928571Y-137452380D01*
X56023809Y-137500000D01*
X56071428Y-137547619D01*
X56119047Y-137642857D01*
X56166666Y-137833333D01*
X56166666Y-138071428D01*
X56119047Y-138261904D01*
X56071428Y-138357142D01*
X56023809Y-138404761D01*
X55928571Y-138452380D01*
X55833333Y-138452380D01*
X55738095Y-138404761D01*
X55690476Y-138357142D01*
X55642857Y-138261904D01*
X55595238Y-138071428D01*
X55595238Y-137833333D01*
X55642857Y-137642857D01*
X55690476Y-137547619D01*
X55738095Y-137500000D01*
X55833333Y-137452380D01*
X57119047Y-138452380D02*
X56547619Y-138452380D01*
X56833333Y-138452380D02*
X56833333Y-137452380D01*
X56738095Y-137595238D01*
X56642857Y-137690476D01*
X56547619Y-137738095D01*
X74809523Y-137452380D02*
X74809523Y-136452380D01*
X75380952Y-137452380D02*
X74952380Y-136880952D01*
X75380952Y-136452380D02*
X74809523Y-137023809D01*
X75714285Y-136452380D02*
X76333333Y-136452380D01*
X76000000Y-136833333D01*
X76142857Y-136833333D01*
X76238095Y-136880952D01*
X76285714Y-136928571D01*
X76333333Y-137023809D01*
X76333333Y-137261904D01*
X76285714Y-137357142D01*
X76238095Y-137404761D01*
X76142857Y-137452380D01*
X75857142Y-137452380D01*
X75761904Y-137404761D01*
X75714285Y-137357142D01*
X76952380Y-136452380D02*
X77047619Y-136452380D01*
X77142857Y-136500000D01*
X77190476Y-136547619D01*
X77238095Y-136642857D01*
X77285714Y-136833333D01*
X77285714Y-137071428D01*
X77238095Y-137261904D01*
X77190476Y-137357142D01*
X77142857Y-137404761D01*
X77047619Y-137452380D01*
X76952380Y-137452380D01*
X76857142Y-137404761D01*
X76809523Y-137357142D01*
X76761904Y-137261904D01*
X76714285Y-137071428D01*
X76714285Y-136833333D01*
X76761904Y-136642857D01*
X76809523Y-136547619D01*
X76857142Y-136500000D01*
X76952380Y-136452380D01*
X78238095Y-137452380D02*
X77666666Y-137452380D01*
X77952380Y-137452380D02*
X77952380Y-136452380D01*
X77857142Y-136595238D01*
X77761904Y-136690476D01*
X77666666Y-136738095D01*
X116952380Y-123690476D02*
X115952380Y-123690476D01*
X116952380Y-123119047D02*
X116380952Y-123547619D01*
X115952380Y-123119047D02*
X116523809Y-123690476D01*
X115952380Y-122785714D02*
X115952380Y-122166666D01*
X116333333Y-122500000D01*
X116333333Y-122357142D01*
X116380952Y-122261904D01*
X116428571Y-122214285D01*
X116523809Y-122166666D01*
X116761904Y-122166666D01*
X116857142Y-122214285D01*
X116904761Y-122261904D01*
X116952380Y-122357142D01*
X116952380Y-122642857D01*
X116904761Y-122738095D01*
X116857142Y-122785714D01*
X115952380Y-121547619D02*
X115952380Y-121452380D01*
X116000000Y-121357142D01*
X116047619Y-121309523D01*
X116142857Y-121261904D01*
X116333333Y-121214285D01*
X116571428Y-121214285D01*
X116761904Y-121261904D01*
X116857142Y-121309523D01*
X116904761Y-121357142D01*
X116952380Y-121452380D01*
X116952380Y-121547619D01*
X116904761Y-121642857D01*
X116857142Y-121690476D01*
X116761904Y-121738095D01*
X116571428Y-121785714D01*
X116333333Y-121785714D01*
X116142857Y-121738095D01*
X116047619Y-121690476D01*
X116000000Y-121642857D01*
X115952380Y-121547619D01*
X116047619Y-120833333D02*
X116000000Y-120785714D01*
X115952380Y-120690476D01*
X115952380Y-120452380D01*
X116000000Y-120357142D01*
X116047619Y-120309523D01*
X116142857Y-120261904D01*
X116238095Y-120261904D01*
X116380952Y-120309523D01*
X116952380Y-120880952D01*
X116952380Y-120261904D01*
X52182380Y-124674285D02*
X52991904Y-124674285D01*
X53087142Y-124626666D01*
X53134761Y-124579047D01*
X53182380Y-124483809D01*
X53182380Y-124293333D01*
X53134761Y-124198095D01*
X53087142Y-124150476D01*
X52991904Y-124102857D01*
X52182380Y-124102857D01*
X52515714Y-123198095D02*
X53182380Y-123198095D01*
X52134761Y-123436190D02*
X52849047Y-123674285D01*
X52849047Y-123055238D01*
X52182380Y-122483809D02*
X52182380Y-122388571D01*
X52230000Y-122293333D01*
X52277619Y-122245714D01*
X52372857Y-122198095D01*
X52563333Y-122150476D01*
X52801428Y-122150476D01*
X52991904Y-122198095D01*
X53087142Y-122245714D01*
X53134761Y-122293333D01*
X53182380Y-122388571D01*
X53182380Y-122483809D01*
X53134761Y-122579047D01*
X53087142Y-122626666D01*
X52991904Y-122674285D01*
X52801428Y-122721904D01*
X52563333Y-122721904D01*
X52372857Y-122674285D01*
X52277619Y-122626666D01*
X52230000Y-122579047D01*
X52182380Y-122483809D01*
X52277619Y-121769523D02*
X52230000Y-121721904D01*
X52182380Y-121626666D01*
X52182380Y-121388571D01*
X52230000Y-121293333D01*
X52277619Y-121245714D01*
X52372857Y-121198095D01*
X52468095Y-121198095D01*
X52610952Y-121245714D01*
X53182380Y-121817142D01*
X53182380Y-121198095D01*
M02*
