G04 #@! TF.GenerationSoftware,KiCad,Pcbnew,5.1.4-e60b266~84~ubuntu18.04.1*
G04 #@! TF.CreationDate,2019-11-18T12:16:38+01:00*
G04 #@! TF.ProjectId,umi6r2,756d6936-7232-42e6-9b69-6361645f7063,rev?*
G04 #@! TF.SameCoordinates,Original*
G04 #@! TF.FileFunction,Copper,L1,Top*
G04 #@! TF.FilePolarity,Positive*
%FSLAX46Y46*%
G04 Gerber Fmt 4.6, Leading zero omitted, Abs format (unit mm)*
G04 Created by KiCad (PCBNEW 5.1.4-e60b266~84~ubuntu18.04.1) date 2019-11-18 12:16:38*
%MOMM*%
%LPD*%
G04 APERTURE LIST*
%ADD10C,1.600000*%
%ADD11R,1.600000X1.600000*%
%ADD12O,1.600000X1.600000*%
%ADD13R,2.600000X2.600000*%
%ADD14C,2.600000*%
%ADD15C,2.500000*%
%ADD16C,3.000000*%
%ADD17R,2.000000X1.905000*%
%ADD18O,2.000000X1.905000*%
%ADD19C,0.800000*%
%ADD20C,0.250000*%
%ADD21C,0.750000*%
%ADD22C,0.500000*%
G04 APERTURE END LIST*
D10*
X53500000Y-111500000D03*
D11*
X56000000Y-111500000D03*
D10*
X53500000Y-133500000D03*
D11*
X56000000Y-133500000D03*
D10*
X71000000Y-130500000D03*
D11*
X71000000Y-128000000D03*
D10*
X71000000Y-124500000D03*
D11*
X71000000Y-122000000D03*
X75500000Y-118000000D03*
D12*
X108520000Y-102760000D03*
X78040000Y-118000000D03*
X105980000Y-102760000D03*
X80580000Y-118000000D03*
X103440000Y-102760000D03*
X83120000Y-118000000D03*
X100900000Y-102760000D03*
X85660000Y-118000000D03*
X98360000Y-102760000D03*
X88200000Y-118000000D03*
X95820000Y-102760000D03*
X90740000Y-118000000D03*
X93280000Y-102760000D03*
X93280000Y-118000000D03*
X90740000Y-102760000D03*
X95820000Y-118000000D03*
X88200000Y-102760000D03*
X98360000Y-118000000D03*
X85660000Y-102760000D03*
X100900000Y-118000000D03*
X83120000Y-102760000D03*
X103440000Y-118000000D03*
X80580000Y-102760000D03*
X105980000Y-118000000D03*
X78040000Y-102760000D03*
X108520000Y-118000000D03*
X75500000Y-102760000D03*
X111060000Y-118000000D03*
X111060000Y-102760000D03*
D13*
X112000000Y-68700000D03*
D14*
X106920000Y-68700000D03*
X101840000Y-68700000D03*
X96760000Y-68700000D03*
X91680000Y-68700000D03*
X86600000Y-68700000D03*
X81520000Y-68700000D03*
X76440000Y-68700000D03*
X71360000Y-68700000D03*
X66280000Y-68700000D03*
X61200000Y-68700000D03*
X56120000Y-68700000D03*
D13*
X86600000Y-144300000D03*
D14*
X91680000Y-144300000D03*
X96760000Y-144300000D03*
X101840000Y-144300000D03*
X106920000Y-144300000D03*
X112000000Y-144300000D03*
D13*
X56100000Y-144300000D03*
D14*
X61180000Y-144300000D03*
X66260000Y-144300000D03*
X71340000Y-144300000D03*
D15*
X91050000Y-121950000D03*
D16*
X78850000Y-121950000D03*
X78800000Y-134000000D03*
D15*
X91050000Y-133950000D03*
D16*
X93000000Y-128000000D03*
X114000000Y-128000000D03*
D15*
X112050000Y-133950000D03*
D16*
X99800000Y-134000000D03*
X99850000Y-121950000D03*
D15*
X112050000Y-121950000D03*
D17*
X57000000Y-125500000D03*
D18*
X57000000Y-122960000D03*
X57000000Y-120420000D03*
D19*
X110650000Y-87300000D03*
X110700000Y-93700000D03*
X99550000Y-87450000D03*
X99550000Y-93450000D03*
X88550000Y-87550000D03*
X88550000Y-93750000D03*
X77450000Y-87450000D03*
X77450000Y-93600000D03*
X66500000Y-87500000D03*
X66500000Y-93650000D03*
X55450000Y-87450000D03*
X55450000Y-93600000D03*
X78050000Y-96550000D03*
X78850000Y-96550000D03*
X78850000Y-97250000D03*
X78050000Y-97250000D03*
X104550000Y-123750000D03*
X68750000Y-85350000D03*
X69350000Y-100650000D03*
X80700000Y-97250000D03*
X80700000Y-96550000D03*
X91850000Y-96850000D03*
X112650000Y-96850000D03*
X103025000Y-97025000D03*
X57550000Y-96950000D03*
X68500000Y-97050000D03*
X98650000Y-113050000D03*
X90650000Y-113400000D03*
X87650000Y-109100000D03*
X63150000Y-124400000D03*
X63150000Y-118000000D03*
X75500000Y-106100000D03*
X70200000Y-83050000D03*
X70200000Y-99900000D03*
X58350000Y-100550000D03*
X57750000Y-85350000D03*
X59200000Y-83000000D03*
X59200000Y-99700000D03*
X111600000Y-85500000D03*
X111600000Y-92800000D03*
X100350000Y-92550000D03*
X100350000Y-85850000D03*
X89350000Y-92800000D03*
X89350000Y-85850000D03*
X78250000Y-85750000D03*
X78250000Y-92800000D03*
X67250000Y-92700000D03*
X67250000Y-85850000D03*
X56200000Y-92750000D03*
X56200000Y-85850000D03*
X113550000Y-99650000D03*
X113550000Y-83000000D03*
X114400000Y-98900000D03*
X115500000Y-85350000D03*
X105650000Y-99700000D03*
X104550000Y-85350000D03*
X104900000Y-100400000D03*
X104550000Y-84050000D03*
X97250000Y-99450000D03*
X92200000Y-82950000D03*
X94950000Y-99500000D03*
X90800000Y-85350000D03*
X89800000Y-100450000D03*
X79750000Y-85350000D03*
X91700000Y-100000000D03*
X81200000Y-83050000D03*
D20*
X110650000Y-87300000D02*
X110650000Y-93400000D01*
X110650000Y-93400000D02*
X110650000Y-93650000D01*
X110650000Y-93650000D02*
X110700000Y-93700000D01*
X99550000Y-87450000D02*
X99550000Y-93450000D01*
X88550000Y-87550000D02*
X88550000Y-93750000D01*
X77450000Y-87450000D02*
X77450000Y-93600000D01*
X66500000Y-87500000D02*
X66500000Y-93650000D01*
X55450000Y-87450000D02*
X55450000Y-93600000D01*
D21*
X78040000Y-102760000D02*
X78040000Y-96560000D01*
X78040000Y-96560000D02*
X78050000Y-96550000D01*
X78850000Y-96550000D02*
X78850000Y-97250000D01*
X78050000Y-97250000D02*
X78850000Y-97250000D01*
X78050000Y-96550000D02*
X78850000Y-96550000D01*
X71000000Y-124500000D02*
X69950000Y-124500000D01*
X69950000Y-124500000D02*
X69000000Y-123550000D01*
X69000000Y-123550000D02*
X69000000Y-117850000D01*
X69000000Y-117850000D02*
X71300000Y-115550000D01*
X83120000Y-116720000D02*
X83120000Y-118000000D01*
X81950000Y-115550000D02*
X83120000Y-116720000D01*
X78040000Y-102760000D02*
X78040000Y-103810000D01*
X78040000Y-103810000D02*
X77150000Y-104700000D01*
X77150000Y-104700000D02*
X74900000Y-104700000D01*
X74900000Y-104700000D02*
X74250000Y-105350000D01*
X74250000Y-105350000D02*
X74250000Y-115550000D01*
X71300000Y-115550000D02*
X74250000Y-115550000D01*
X74250000Y-115550000D02*
X81950000Y-115550000D01*
X83120000Y-118000000D02*
X83120000Y-116930000D01*
X83120000Y-116930000D02*
X84450000Y-115600000D01*
X84450000Y-115600000D02*
X103900000Y-115600000D01*
D22*
X104700000Y-116400000D02*
X103900000Y-115600000D01*
X104700000Y-123600000D02*
X104700000Y-116400000D01*
X104550000Y-123750000D02*
X104700000Y-123600000D01*
D20*
X69400000Y-86000000D02*
X68750000Y-85350000D01*
X69350000Y-100650000D02*
X69400000Y-100600000D01*
X69400000Y-100600000D02*
X69400000Y-86000000D01*
D22*
X56120000Y-68700000D02*
X58620000Y-66200000D01*
X73940000Y-66200000D02*
X76440000Y-68700000D01*
X58620000Y-66200000D02*
X73940000Y-66200000D01*
X76440000Y-68700000D02*
X78940000Y-66200000D01*
X94260000Y-66200000D02*
X96760000Y-68700000D01*
X78940000Y-66200000D02*
X94260000Y-66200000D01*
X83120000Y-102760000D02*
X83120000Y-99670000D01*
X83120000Y-99670000D02*
X80700000Y-97250000D01*
X80700000Y-97250000D02*
X80700000Y-96550000D01*
X83120000Y-102760000D02*
X84530000Y-101350000D01*
X84530000Y-101350000D02*
X91950000Y-101350000D01*
X110200000Y-101350000D02*
X112650000Y-98900000D01*
X112650000Y-98900000D02*
X112650000Y-96850000D01*
X92650000Y-97650000D02*
X91850000Y-96850000D01*
X91950000Y-101350000D02*
X92650000Y-101350000D01*
X92650000Y-101350000D02*
X92650000Y-97650000D01*
X103025000Y-101325000D02*
X103000000Y-101350000D01*
X103025000Y-97025000D02*
X103025000Y-101325000D01*
X91950000Y-101350000D02*
X103000000Y-101350000D01*
X103000000Y-101350000D02*
X110200000Y-101350000D01*
X80700000Y-96550000D02*
X79300000Y-95150000D01*
X79300000Y-95150000D02*
X76350000Y-95150000D01*
X76350000Y-95150000D02*
X74350000Y-97150000D01*
X74350000Y-97150000D02*
X74350000Y-100100000D01*
X74350000Y-100100000D02*
X72600000Y-101850000D01*
X57650000Y-101850000D02*
X57150000Y-101350000D01*
X57150000Y-101350000D02*
X57150000Y-97350000D01*
X57150000Y-97350000D02*
X57550000Y-96950000D01*
X68350000Y-97200000D02*
X68350000Y-101850000D01*
X68500000Y-97050000D02*
X68350000Y-97200000D01*
X72600000Y-101850000D02*
X68350000Y-101850000D01*
X68350000Y-101850000D02*
X57650000Y-101850000D01*
X76440000Y-95060000D02*
X76350000Y-95150000D01*
X76440000Y-68700000D02*
X76440000Y-95060000D01*
X98650000Y-113050000D02*
X91000000Y-113050000D01*
X91000000Y-113050000D02*
X90650000Y-113400000D01*
X90650000Y-113400000D02*
X90650000Y-112100000D01*
X90650000Y-112100000D02*
X87650000Y-109100000D01*
X79780000Y-106100000D02*
X83120000Y-102760000D01*
X75500000Y-106100000D02*
X79780000Y-106100000D01*
X63150000Y-124400000D02*
X63150000Y-118000000D01*
D20*
X70200000Y-99900000D02*
X70200000Y-83050000D01*
X58350000Y-100550000D02*
X58350000Y-85950000D01*
X58350000Y-85950000D02*
X57750000Y-85350000D01*
X59200000Y-99700000D02*
X59200000Y-83000000D01*
X111600000Y-85500000D02*
X111600000Y-92800000D01*
X100350000Y-92550000D02*
X100350000Y-85850000D01*
X89350000Y-92800000D02*
X89350000Y-85850000D01*
X78250000Y-85750000D02*
X78250000Y-92800000D01*
X67250000Y-92700000D02*
X67250000Y-85850000D01*
X56200000Y-92750000D02*
X56200000Y-85850000D01*
D22*
X71000000Y-122000000D02*
X76900000Y-127900000D01*
X85000000Y-127900000D02*
X91050000Y-133950000D01*
X76900000Y-127900000D02*
X85000000Y-127900000D01*
X71000000Y-128000000D02*
X74650000Y-128000000D01*
X74650000Y-128000000D02*
X75600000Y-128950000D01*
X75600000Y-128950000D02*
X84450000Y-128950000D01*
X84450000Y-128950000D02*
X88650000Y-133150000D01*
X88650000Y-133150000D02*
X88650000Y-134750000D01*
X88650000Y-134750000D02*
X90050000Y-136150000D01*
X90050000Y-136150000D02*
X92000000Y-136150000D01*
X92000000Y-136150000D02*
X93500000Y-134650000D01*
X93500000Y-134650000D02*
X93500000Y-133900000D01*
X93500000Y-133900000D02*
X99400000Y-128000000D01*
X106100000Y-128000000D02*
X112050000Y-133950000D01*
X99400000Y-128000000D02*
X106100000Y-128000000D01*
D20*
X113550000Y-99650000D02*
X113550000Y-87600000D01*
X113550000Y-87600000D02*
X113550000Y-83000000D01*
X114400000Y-98900000D02*
X114400000Y-86450000D01*
X114400000Y-86450000D02*
X115500000Y-85350000D01*
X105650000Y-99700000D02*
X105650000Y-86450000D01*
X105650000Y-86450000D02*
X104550000Y-85350000D01*
X104900000Y-100400000D02*
X104900000Y-87100000D01*
X104900000Y-87100000D02*
X103800000Y-86000000D01*
X103800000Y-86000000D02*
X103800000Y-84800000D01*
X103800000Y-84800000D02*
X104550000Y-84050000D01*
X97250000Y-99450000D02*
X97250000Y-88000000D01*
X97250000Y-88000000D02*
X92200000Y-82950000D01*
X94950000Y-99500000D02*
X94950000Y-89500000D01*
X94950000Y-89500000D02*
X90800000Y-85350000D01*
X89800000Y-100450000D02*
X79750000Y-90400000D01*
X79750000Y-90400000D02*
X79750000Y-85350000D01*
X91700000Y-100000000D02*
X81200000Y-89500000D01*
X81200000Y-89500000D02*
X81200000Y-83050000D01*
G36*
X117325000Y-126148224D02*
G01*
X115588388Y-124411612D01*
X115569446Y-124396066D01*
X115547835Y-124384515D01*
X115524386Y-124377402D01*
X115500000Y-124375000D01*
X112500000Y-124375000D01*
X112475614Y-124377402D01*
X112452165Y-124384515D01*
X112430554Y-124396066D01*
X112411612Y-124411612D01*
X112072362Y-124750862D01*
X112063525Y-124755798D01*
X112056108Y-124761028D01*
X112006213Y-124796731D01*
X111987132Y-124806930D01*
X111912960Y-124867801D01*
X110912962Y-125867800D01*
X110888157Y-125888157D01*
X110863071Y-125918725D01*
X110806930Y-125987132D01*
X110783975Y-126030078D01*
X110773445Y-126049779D01*
X110411612Y-126411612D01*
X110396066Y-126430554D01*
X110384515Y-126452165D01*
X110377402Y-126475614D01*
X110375000Y-126500000D01*
X110375000Y-129500000D01*
X110377402Y-129524386D01*
X110384515Y-129547835D01*
X110396066Y-129569446D01*
X110411612Y-129588388D01*
X110699438Y-129876214D01*
X110700001Y-129881932D01*
X110705092Y-129933624D01*
X110709406Y-129977422D01*
X110746573Y-130099947D01*
X110806930Y-130212868D01*
X110867802Y-130287040D01*
X110867805Y-130287043D01*
X110888158Y-130311843D01*
X110912957Y-130332195D01*
X111912960Y-131332199D01*
X111914721Y-131333644D01*
X111949219Y-131367664D01*
X111988913Y-131399808D01*
X112027370Y-131433458D01*
X112034788Y-131438687D01*
X112119982Y-131497867D01*
X112171359Y-131526564D01*
X112222438Y-131556038D01*
X112230730Y-131559727D01*
X112325796Y-131601233D01*
X112381840Y-131619428D01*
X112437607Y-131638397D01*
X112446445Y-131640402D01*
X112446454Y-131640405D01*
X112446463Y-131640406D01*
X112547775Y-131662655D01*
X112606248Y-131669613D01*
X112664672Y-131677394D01*
X112673744Y-131677645D01*
X112777453Y-131679792D01*
X112836207Y-131675257D01*
X112894988Y-131671544D01*
X112903924Y-131670030D01*
X112903935Y-131670029D01*
X112903945Y-131670026D01*
X113006087Y-131651990D01*
X113062789Y-131636144D01*
X113104924Y-131625000D01*
X115500000Y-131625000D01*
X115524386Y-131622598D01*
X115547835Y-131615485D01*
X115569446Y-131603934D01*
X115588388Y-131588388D01*
X117325000Y-129851776D01*
X117325000Y-149325000D01*
X50675000Y-149325000D01*
X50675000Y-145600000D01*
X54171976Y-145600000D01*
X54184043Y-145722521D01*
X54219781Y-145840334D01*
X54277817Y-145948911D01*
X54355920Y-146044080D01*
X54451089Y-146122183D01*
X54559666Y-146180219D01*
X54677479Y-146215957D01*
X54800000Y-146228024D01*
X55818750Y-146225000D01*
X55975000Y-146068750D01*
X55975000Y-144425000D01*
X56225000Y-144425000D01*
X56225000Y-146068750D01*
X56381250Y-146225000D01*
X57400000Y-146228024D01*
X57522521Y-146215957D01*
X57640334Y-146180219D01*
X57748911Y-146122183D01*
X57844080Y-146044080D01*
X57922183Y-145948911D01*
X57980219Y-145840334D01*
X58015957Y-145722521D01*
X58028024Y-145600000D01*
X58025000Y-144581250D01*
X57868750Y-144425000D01*
X56225000Y-144425000D01*
X55975000Y-144425000D01*
X54331250Y-144425000D01*
X54175000Y-144581250D01*
X54171976Y-145600000D01*
X50675000Y-145600000D01*
X50675000Y-143000000D01*
X54171976Y-143000000D01*
X54175000Y-144018750D01*
X54331250Y-144175000D01*
X55975000Y-144175000D01*
X55975000Y-142531250D01*
X56225000Y-142531250D01*
X56225000Y-144175000D01*
X57868750Y-144175000D01*
X57933346Y-144110404D01*
X59255000Y-144110404D01*
X59255000Y-144489596D01*
X59328977Y-144861502D01*
X59474087Y-145211829D01*
X59684755Y-145527116D01*
X59952884Y-145795245D01*
X60268171Y-146005913D01*
X60618498Y-146151023D01*
X60990404Y-146225000D01*
X61369596Y-146225000D01*
X61741502Y-146151023D01*
X62091829Y-146005913D01*
X62407116Y-145795245D01*
X62675245Y-145527116D01*
X62885913Y-145211829D01*
X63031023Y-144861502D01*
X63105000Y-144489596D01*
X63105000Y-144110404D01*
X64335000Y-144110404D01*
X64335000Y-144489596D01*
X64408977Y-144861502D01*
X64554087Y-145211829D01*
X64764755Y-145527116D01*
X65032884Y-145795245D01*
X65348171Y-146005913D01*
X65698498Y-146151023D01*
X66070404Y-146225000D01*
X66449596Y-146225000D01*
X66821502Y-146151023D01*
X67171829Y-146005913D01*
X67487116Y-145795245D01*
X67755245Y-145527116D01*
X67965913Y-145211829D01*
X68111023Y-144861502D01*
X68185000Y-144489596D01*
X68185000Y-144110404D01*
X69415000Y-144110404D01*
X69415000Y-144489596D01*
X69488977Y-144861502D01*
X69634087Y-145211829D01*
X69844755Y-145527116D01*
X70112884Y-145795245D01*
X70428171Y-146005913D01*
X70778498Y-146151023D01*
X71150404Y-146225000D01*
X71529596Y-146225000D01*
X71901502Y-146151023D01*
X72251829Y-146005913D01*
X72567116Y-145795245D01*
X72835245Y-145527116D01*
X73045913Y-145211829D01*
X73191023Y-144861502D01*
X73265000Y-144489596D01*
X73265000Y-144110404D01*
X73191023Y-143738498D01*
X73045913Y-143388171D01*
X72835245Y-143072884D01*
X72762361Y-143000000D01*
X83164719Y-143000000D01*
X83164719Y-145600000D01*
X83205748Y-146016573D01*
X83327258Y-146417137D01*
X83524579Y-146786299D01*
X83790128Y-147109872D01*
X84113701Y-147375421D01*
X84482863Y-147572742D01*
X84883427Y-147694252D01*
X85300000Y-147735281D01*
X87900000Y-147735281D01*
X88316573Y-147694252D01*
X88717137Y-147572742D01*
X89086299Y-147375421D01*
X89409872Y-147109872D01*
X89519859Y-146975852D01*
X90057654Y-147335196D01*
X90680964Y-147593379D01*
X91342667Y-147725000D01*
X92017333Y-147725000D01*
X92679036Y-147593379D01*
X93302346Y-147335196D01*
X93863310Y-146960371D01*
X94220000Y-146603681D01*
X94576690Y-146960371D01*
X95137654Y-147335196D01*
X95760964Y-147593379D01*
X96422667Y-147725000D01*
X97097333Y-147725000D01*
X97759036Y-147593379D01*
X98382346Y-147335196D01*
X98943310Y-146960371D01*
X99300000Y-146603681D01*
X99656690Y-146960371D01*
X100217654Y-147335196D01*
X100840964Y-147593379D01*
X101502667Y-147725000D01*
X102177333Y-147725000D01*
X102839036Y-147593379D01*
X103462346Y-147335196D01*
X104023310Y-146960371D01*
X104380000Y-146603681D01*
X104736690Y-146960371D01*
X105297654Y-147335196D01*
X105920964Y-147593379D01*
X106582667Y-147725000D01*
X107257333Y-147725000D01*
X107919036Y-147593379D01*
X108542346Y-147335196D01*
X109103310Y-146960371D01*
X109460000Y-146603681D01*
X109816690Y-146960371D01*
X110377654Y-147335196D01*
X111000964Y-147593379D01*
X111662667Y-147725000D01*
X112337333Y-147725000D01*
X112999036Y-147593379D01*
X113622346Y-147335196D01*
X114183310Y-146960371D01*
X114660371Y-146483310D01*
X115035196Y-145922346D01*
X115293379Y-145299036D01*
X115425000Y-144637333D01*
X115425000Y-143962667D01*
X115293379Y-143300964D01*
X115035196Y-142677654D01*
X114660371Y-142116690D01*
X114183310Y-141639629D01*
X113622346Y-141264804D01*
X112999036Y-141006621D01*
X112337333Y-140875000D01*
X111662667Y-140875000D01*
X111000964Y-141006621D01*
X110377654Y-141264804D01*
X109816690Y-141639629D01*
X109460000Y-141996319D01*
X109103310Y-141639629D01*
X108542346Y-141264804D01*
X107919036Y-141006621D01*
X107257333Y-140875000D01*
X106582667Y-140875000D01*
X105920964Y-141006621D01*
X105297654Y-141264804D01*
X104736690Y-141639629D01*
X104380000Y-141996319D01*
X104023310Y-141639629D01*
X103462346Y-141264804D01*
X102839036Y-141006621D01*
X102177333Y-140875000D01*
X101502667Y-140875000D01*
X100840964Y-141006621D01*
X100217654Y-141264804D01*
X99656690Y-141639629D01*
X99300000Y-141996319D01*
X98943310Y-141639629D01*
X98382346Y-141264804D01*
X97759036Y-141006621D01*
X97097333Y-140875000D01*
X96422667Y-140875000D01*
X95760964Y-141006621D01*
X95137654Y-141264804D01*
X94576690Y-141639629D01*
X94220000Y-141996319D01*
X93863310Y-141639629D01*
X93302346Y-141264804D01*
X92679036Y-141006621D01*
X92017333Y-140875000D01*
X91342667Y-140875000D01*
X90680964Y-141006621D01*
X90057654Y-141264804D01*
X89519859Y-141624148D01*
X89409872Y-141490128D01*
X89086299Y-141224579D01*
X88717137Y-141027258D01*
X88316573Y-140905748D01*
X87900000Y-140864719D01*
X85300000Y-140864719D01*
X84883427Y-140905748D01*
X84482863Y-141027258D01*
X84113701Y-141224579D01*
X83790128Y-141490128D01*
X83524579Y-141813701D01*
X83327258Y-142182863D01*
X83205748Y-142583427D01*
X83164719Y-143000000D01*
X72762361Y-143000000D01*
X72567116Y-142804755D01*
X72251829Y-142594087D01*
X71901502Y-142448977D01*
X71529596Y-142375000D01*
X71150404Y-142375000D01*
X70778498Y-142448977D01*
X70428171Y-142594087D01*
X70112884Y-142804755D01*
X69844755Y-143072884D01*
X69634087Y-143388171D01*
X69488977Y-143738498D01*
X69415000Y-144110404D01*
X68185000Y-144110404D01*
X68111023Y-143738498D01*
X67965913Y-143388171D01*
X67755245Y-143072884D01*
X67487116Y-142804755D01*
X67171829Y-142594087D01*
X66821502Y-142448977D01*
X66449596Y-142375000D01*
X66070404Y-142375000D01*
X65698498Y-142448977D01*
X65348171Y-142594087D01*
X65032884Y-142804755D01*
X64764755Y-143072884D01*
X64554087Y-143388171D01*
X64408977Y-143738498D01*
X64335000Y-144110404D01*
X63105000Y-144110404D01*
X63031023Y-143738498D01*
X62885913Y-143388171D01*
X62675245Y-143072884D01*
X62407116Y-142804755D01*
X62091829Y-142594087D01*
X61741502Y-142448977D01*
X61369596Y-142375000D01*
X60990404Y-142375000D01*
X60618498Y-142448977D01*
X60268171Y-142594087D01*
X59952884Y-142804755D01*
X59684755Y-143072884D01*
X59474087Y-143388171D01*
X59328977Y-143738498D01*
X59255000Y-144110404D01*
X57933346Y-144110404D01*
X58025000Y-144018750D01*
X58028024Y-143000000D01*
X58015957Y-142877479D01*
X57980219Y-142759666D01*
X57922183Y-142651089D01*
X57844080Y-142555920D01*
X57748911Y-142477817D01*
X57640334Y-142419781D01*
X57522521Y-142384043D01*
X57400000Y-142371976D01*
X56381250Y-142375000D01*
X56225000Y-142531250D01*
X55975000Y-142531250D01*
X55818750Y-142375000D01*
X54800000Y-142371976D01*
X54677479Y-142384043D01*
X54559666Y-142419781D01*
X54451089Y-142477817D01*
X54355920Y-142555920D01*
X54277817Y-142651089D01*
X54219781Y-142759666D01*
X54184043Y-142877479D01*
X54171976Y-143000000D01*
X50675000Y-143000000D01*
X50675000Y-134486065D01*
X52690712Y-134486065D01*
X52762693Y-134727479D01*
X53016330Y-134847735D01*
X53288553Y-134916198D01*
X53568903Y-134930237D01*
X53846604Y-134889314D01*
X54110986Y-134795000D01*
X54237307Y-134727479D01*
X54309288Y-134486065D01*
X53500000Y-133676777D01*
X52690712Y-134486065D01*
X50675000Y-134486065D01*
X50675000Y-133568903D01*
X52069763Y-133568903D01*
X52110686Y-133846604D01*
X52205000Y-134110986D01*
X52272521Y-134237307D01*
X52513935Y-134309288D01*
X53323223Y-133500000D01*
X53676777Y-133500000D01*
X54486065Y-134309288D01*
X54571976Y-134283672D01*
X54571976Y-134300000D01*
X54584043Y-134422521D01*
X54619781Y-134540334D01*
X54677817Y-134648911D01*
X54755920Y-134744080D01*
X54851089Y-134822183D01*
X54959666Y-134880219D01*
X55077479Y-134915957D01*
X55200000Y-134928024D01*
X56800000Y-134928024D01*
X56922521Y-134915957D01*
X57040334Y-134880219D01*
X57148911Y-134822183D01*
X57244080Y-134744080D01*
X57322183Y-134648911D01*
X57380219Y-134540334D01*
X57415957Y-134422521D01*
X57428024Y-134300000D01*
X57428024Y-132700000D01*
X57415957Y-132577479D01*
X57392455Y-132500000D01*
X75175000Y-132500000D01*
X75175000Y-135500000D01*
X75177402Y-135524386D01*
X75184515Y-135547835D01*
X75196066Y-135569446D01*
X75211612Y-135588388D01*
X77211612Y-137588388D01*
X77230554Y-137603934D01*
X77252165Y-137615485D01*
X77275614Y-137622598D01*
X77300000Y-137625000D01*
X80300000Y-137625000D01*
X80324386Y-137622598D01*
X80347835Y-137615485D01*
X80369446Y-137603934D01*
X80388388Y-137588388D01*
X82388388Y-135588388D01*
X82403934Y-135569446D01*
X82415485Y-135547835D01*
X82422598Y-135524386D01*
X82425000Y-135500000D01*
X82425000Y-132500000D01*
X82422598Y-132475614D01*
X82415485Y-132452165D01*
X82403934Y-132430554D01*
X82388388Y-132411612D01*
X80388388Y-130411612D01*
X80369446Y-130396066D01*
X80347835Y-130384515D01*
X80324386Y-130377402D01*
X80300000Y-130375000D01*
X77300000Y-130375000D01*
X77275614Y-130377402D01*
X77252165Y-130384515D01*
X77230554Y-130396066D01*
X77211612Y-130411612D01*
X75211612Y-132411612D01*
X75196066Y-132430554D01*
X75184515Y-132452165D01*
X75177402Y-132475614D01*
X75175000Y-132500000D01*
X57392455Y-132500000D01*
X57380219Y-132459666D01*
X57322183Y-132351089D01*
X57244080Y-132255920D01*
X57148911Y-132177817D01*
X57040334Y-132119781D01*
X56922521Y-132084043D01*
X56800000Y-132071976D01*
X55200000Y-132071976D01*
X55077479Y-132084043D01*
X54959666Y-132119781D01*
X54851089Y-132177817D01*
X54755920Y-132255920D01*
X54677817Y-132351089D01*
X54619781Y-132459666D01*
X54584043Y-132577479D01*
X54571976Y-132700000D01*
X54571976Y-132716328D01*
X54486065Y-132690712D01*
X53676777Y-133500000D01*
X53323223Y-133500000D01*
X52513935Y-132690712D01*
X52272521Y-132762693D01*
X52152265Y-133016330D01*
X52083802Y-133288553D01*
X52069763Y-133568903D01*
X50675000Y-133568903D01*
X50675000Y-132513935D01*
X52690712Y-132513935D01*
X53500000Y-133323223D01*
X54309288Y-132513935D01*
X54237307Y-132272521D01*
X53983670Y-132152265D01*
X53711447Y-132083802D01*
X53431097Y-132069763D01*
X53153396Y-132110686D01*
X52889014Y-132205000D01*
X52762693Y-132272521D01*
X52690712Y-132513935D01*
X50675000Y-132513935D01*
X50675000Y-131486065D01*
X70190712Y-131486065D01*
X70262693Y-131727479D01*
X70516330Y-131847735D01*
X70788553Y-131916198D01*
X71068903Y-131930237D01*
X71346604Y-131889314D01*
X71610986Y-131795000D01*
X71737307Y-131727479D01*
X71809288Y-131486065D01*
X71000000Y-130676777D01*
X70190712Y-131486065D01*
X50675000Y-131486065D01*
X50675000Y-130568903D01*
X69569763Y-130568903D01*
X69610686Y-130846604D01*
X69705000Y-131110986D01*
X69772521Y-131237307D01*
X70013935Y-131309288D01*
X70823223Y-130500000D01*
X71176777Y-130500000D01*
X71986065Y-131309288D01*
X72227479Y-131237307D01*
X72347735Y-130983670D01*
X72416198Y-130711447D01*
X72430237Y-130431097D01*
X72389314Y-130153396D01*
X72295000Y-129889014D01*
X72227479Y-129762693D01*
X71986065Y-129690712D01*
X71176777Y-130500000D01*
X70823223Y-130500000D01*
X70013935Y-129690712D01*
X69772521Y-129762693D01*
X69652265Y-130016330D01*
X69583802Y-130288553D01*
X69569763Y-130568903D01*
X50675000Y-130568903D01*
X50675000Y-124547500D01*
X55371976Y-124547500D01*
X55371976Y-126452500D01*
X55384043Y-126575021D01*
X55419781Y-126692834D01*
X55477817Y-126801411D01*
X55555920Y-126896580D01*
X55651089Y-126974683D01*
X55759666Y-127032719D01*
X55877479Y-127068457D01*
X56000000Y-127080524D01*
X58000000Y-127080524D01*
X58122521Y-127068457D01*
X58240334Y-127032719D01*
X58348911Y-126974683D01*
X58444080Y-126896580D01*
X58522183Y-126801411D01*
X58580219Y-126692834D01*
X58615957Y-126575021D01*
X58628024Y-126452500D01*
X58628024Y-125486065D01*
X70190712Y-125486065D01*
X70262693Y-125727479D01*
X70516330Y-125847735D01*
X70788553Y-125916198D01*
X71068903Y-125930237D01*
X71346604Y-125889314D01*
X71610986Y-125795000D01*
X71737307Y-125727479D01*
X71809288Y-125486065D01*
X71000000Y-124676777D01*
X70190712Y-125486065D01*
X58628024Y-125486065D01*
X58628024Y-124547500D01*
X58615957Y-124424979D01*
X58580219Y-124307166D01*
X58522183Y-124198589D01*
X58444080Y-124103420D01*
X58348911Y-124025317D01*
X58240334Y-123967281D01*
X58122521Y-123931543D01*
X58000000Y-123919476D01*
X56000000Y-123919476D01*
X55877479Y-123931543D01*
X55759666Y-123967281D01*
X55651089Y-124025317D01*
X55555920Y-124103420D01*
X55477817Y-124198589D01*
X55419781Y-124307166D01*
X55384043Y-124424979D01*
X55371976Y-124547500D01*
X50675000Y-124547500D01*
X50675000Y-120420000D01*
X55367368Y-120420000D01*
X55397826Y-120729244D01*
X55488029Y-121026604D01*
X55634511Y-121300652D01*
X55831642Y-121540858D01*
X56071848Y-121737989D01*
X56345896Y-121884471D01*
X56643256Y-121974674D01*
X56875011Y-121997500D01*
X57124989Y-121997500D01*
X57356744Y-121974674D01*
X57654104Y-121884471D01*
X57928152Y-121737989D01*
X58168358Y-121540858D01*
X58365489Y-121300652D01*
X58511971Y-121026604D01*
X58602174Y-120729244D01*
X58632632Y-120420000D01*
X58602174Y-120110756D01*
X58511971Y-119813396D01*
X58365489Y-119539348D01*
X58168358Y-119299142D01*
X57928152Y-119102011D01*
X57654104Y-118955529D01*
X57356744Y-118865326D01*
X57124989Y-118842500D01*
X56875011Y-118842500D01*
X56643256Y-118865326D01*
X56345896Y-118955529D01*
X56071848Y-119102011D01*
X55831642Y-119299142D01*
X55634511Y-119539348D01*
X55488029Y-119813396D01*
X55397826Y-120110756D01*
X55367368Y-120420000D01*
X50675000Y-120420000D01*
X50675000Y-117899046D01*
X62125000Y-117899046D01*
X62125000Y-118100954D01*
X62164390Y-118298982D01*
X62241656Y-118485520D01*
X62275001Y-118535424D01*
X62275000Y-123864577D01*
X62241656Y-123914480D01*
X62164390Y-124101018D01*
X62125000Y-124299046D01*
X62125000Y-124500954D01*
X62164390Y-124698982D01*
X62241656Y-124885520D01*
X62353830Y-125053400D01*
X62496600Y-125196170D01*
X62664480Y-125308344D01*
X62851018Y-125385610D01*
X63049046Y-125425000D01*
X63250954Y-125425000D01*
X63448982Y-125385610D01*
X63635520Y-125308344D01*
X63803400Y-125196170D01*
X63946170Y-125053400D01*
X64058344Y-124885520D01*
X64135610Y-124698982D01*
X64161484Y-124568903D01*
X69569763Y-124568903D01*
X69610686Y-124846604D01*
X69705000Y-125110986D01*
X69772521Y-125237307D01*
X70013935Y-125309288D01*
X70823223Y-124500000D01*
X70013935Y-123690712D01*
X69772521Y-123762693D01*
X69652265Y-124016330D01*
X69583802Y-124288553D01*
X69569763Y-124568903D01*
X64161484Y-124568903D01*
X64175000Y-124500954D01*
X64175000Y-124299046D01*
X64135610Y-124101018D01*
X64058344Y-123914480D01*
X64025000Y-123864577D01*
X64025000Y-121200000D01*
X69571976Y-121200000D01*
X69571976Y-122800000D01*
X69584043Y-122922521D01*
X69619781Y-123040334D01*
X69677817Y-123148911D01*
X69755920Y-123244080D01*
X69851089Y-123322183D01*
X69959666Y-123380219D01*
X70077479Y-123415957D01*
X70200000Y-123428024D01*
X70216328Y-123428024D01*
X70190712Y-123513935D01*
X71000000Y-124323223D01*
X71014142Y-124309081D01*
X71190919Y-124485858D01*
X71176777Y-124500000D01*
X71986065Y-125309288D01*
X72227479Y-125237307D01*
X72347735Y-124983670D01*
X72416198Y-124711447D01*
X72418955Y-124656391D01*
X74934491Y-127171928D01*
X74821530Y-127137661D01*
X74692979Y-127125000D01*
X74650000Y-127120767D01*
X74607021Y-127125000D01*
X72420637Y-127125000D01*
X72415957Y-127077479D01*
X72380219Y-126959666D01*
X72322183Y-126851089D01*
X72244080Y-126755920D01*
X72148911Y-126677817D01*
X72040334Y-126619781D01*
X71922521Y-126584043D01*
X71800000Y-126571976D01*
X70200000Y-126571976D01*
X70077479Y-126584043D01*
X69959666Y-126619781D01*
X69851089Y-126677817D01*
X69755920Y-126755920D01*
X69677817Y-126851089D01*
X69619781Y-126959666D01*
X69584043Y-127077479D01*
X69571976Y-127200000D01*
X69571976Y-128800000D01*
X69584043Y-128922521D01*
X69619781Y-129040334D01*
X69677817Y-129148911D01*
X69755920Y-129244080D01*
X69851089Y-129322183D01*
X69959666Y-129380219D01*
X70077479Y-129415957D01*
X70200000Y-129428024D01*
X70216328Y-129428024D01*
X70190712Y-129513935D01*
X71000000Y-130323223D01*
X71809288Y-129513935D01*
X71783672Y-129428024D01*
X71800000Y-129428024D01*
X71922521Y-129415957D01*
X72040334Y-129380219D01*
X72148911Y-129322183D01*
X72244080Y-129244080D01*
X72322183Y-129148911D01*
X72380219Y-129040334D01*
X72415957Y-128922521D01*
X72420637Y-128875000D01*
X74287564Y-128875000D01*
X74950888Y-129538325D01*
X74978288Y-129571712D01*
X75111524Y-129681056D01*
X75243018Y-129751340D01*
X75263532Y-129762305D01*
X75428470Y-129812339D01*
X75600000Y-129829233D01*
X75642979Y-129825000D01*
X84087564Y-129825000D01*
X87775000Y-133512437D01*
X87775001Y-134707012D01*
X87770767Y-134750000D01*
X87787661Y-134921529D01*
X87837695Y-135086467D01*
X87875516Y-135157226D01*
X87918945Y-135238476D01*
X88028289Y-135371712D01*
X88061676Y-135399112D01*
X89400888Y-136738325D01*
X89428288Y-136771712D01*
X89561524Y-136881056D01*
X89713532Y-136962305D01*
X89878470Y-137012339D01*
X90050000Y-137029233D01*
X90092979Y-137025000D01*
X91957021Y-137025000D01*
X92000000Y-137029233D01*
X92042979Y-137025000D01*
X92171530Y-137012339D01*
X92336468Y-136962305D01*
X92488476Y-136881056D01*
X92621712Y-136771712D01*
X92649117Y-136738319D01*
X94088320Y-135299116D01*
X94121712Y-135271712D01*
X94231056Y-135138476D01*
X94312305Y-134986468D01*
X94357299Y-134838145D01*
X94362339Y-134821531D01*
X94379233Y-134650001D01*
X94375000Y-134607022D01*
X94375000Y-134262436D01*
X96184186Y-132453251D01*
X96177402Y-132475614D01*
X96175000Y-132500000D01*
X96175000Y-135500000D01*
X96177402Y-135524386D01*
X96184515Y-135547835D01*
X96196066Y-135569446D01*
X96211612Y-135588388D01*
X98211612Y-137588388D01*
X98230554Y-137603934D01*
X98252165Y-137615485D01*
X98275614Y-137622598D01*
X98300000Y-137625000D01*
X101300000Y-137625000D01*
X101324386Y-137622598D01*
X101347835Y-137615485D01*
X101369446Y-137603934D01*
X101388388Y-137588388D01*
X103388388Y-135588388D01*
X103403934Y-135569446D01*
X103415485Y-135547835D01*
X103422598Y-135524386D01*
X103425000Y-135500000D01*
X103425000Y-132500000D01*
X103422598Y-132475614D01*
X103415485Y-132452165D01*
X103403934Y-132430554D01*
X103388388Y-132411612D01*
X101388388Y-130411612D01*
X101369446Y-130396066D01*
X101347835Y-130384515D01*
X101324386Y-130377402D01*
X101300000Y-130375000D01*
X98300000Y-130375000D01*
X98275614Y-130377402D01*
X98253251Y-130384186D01*
X99762437Y-128875000D01*
X105737564Y-128875000D01*
X110252501Y-133389938D01*
X110247056Y-133403083D01*
X110175000Y-133765329D01*
X110175000Y-134134671D01*
X110247056Y-134496917D01*
X110388397Y-134838145D01*
X110593593Y-135145243D01*
X110854757Y-135406407D01*
X111161855Y-135611603D01*
X111503083Y-135752944D01*
X111865329Y-135825000D01*
X112234671Y-135825000D01*
X112596917Y-135752944D01*
X112938145Y-135611603D01*
X113245243Y-135406407D01*
X113506407Y-135145243D01*
X113711603Y-134838145D01*
X113852944Y-134496917D01*
X113925000Y-134134671D01*
X113925000Y-133765329D01*
X113852944Y-133403083D01*
X113711603Y-133061855D01*
X113506407Y-132754757D01*
X113245243Y-132493593D01*
X112938145Y-132288397D01*
X112596917Y-132147056D01*
X112234671Y-132075000D01*
X111865329Y-132075000D01*
X111503083Y-132147056D01*
X111489938Y-132152501D01*
X106749117Y-127411681D01*
X106721712Y-127378288D01*
X106588476Y-127268944D01*
X106436468Y-127187695D01*
X106271530Y-127137661D01*
X106142979Y-127125000D01*
X106100000Y-127120767D01*
X106057021Y-127125000D01*
X99442978Y-127125000D01*
X99399999Y-127120767D01*
X99228470Y-127137661D01*
X99063532Y-127187695D01*
X98911524Y-127268944D01*
X98778288Y-127378288D01*
X98750888Y-127411675D01*
X96615814Y-129546749D01*
X96622598Y-129524386D01*
X96625000Y-129500000D01*
X96625000Y-126500000D01*
X96622598Y-126475614D01*
X96615485Y-126452165D01*
X96603934Y-126430554D01*
X96588388Y-126411612D01*
X94588388Y-124411612D01*
X94569446Y-124396066D01*
X94547835Y-124384515D01*
X94524386Y-124377402D01*
X94500000Y-124375000D01*
X91500000Y-124375000D01*
X91475614Y-124377402D01*
X91452165Y-124384515D01*
X91430554Y-124396066D01*
X91411612Y-124411612D01*
X91072362Y-124750862D01*
X91063525Y-124755798D01*
X91056108Y-124761028D01*
X91006213Y-124796731D01*
X90987132Y-124806930D01*
X90912960Y-124867801D01*
X89912962Y-125867800D01*
X89888157Y-125888157D01*
X89863071Y-125918725D01*
X89806930Y-125987132D01*
X89783975Y-126030078D01*
X89773445Y-126049779D01*
X89411612Y-126411612D01*
X89396066Y-126430554D01*
X89384515Y-126452165D01*
X89377402Y-126475614D01*
X89375000Y-126500000D01*
X89375000Y-129500000D01*
X89377402Y-129524386D01*
X89384515Y-129547835D01*
X89396066Y-129569446D01*
X89411612Y-129588388D01*
X89699438Y-129876214D01*
X89700001Y-129881932D01*
X89705092Y-129933624D01*
X89709406Y-129977422D01*
X89746573Y-130099947D01*
X89806930Y-130212868D01*
X89867802Y-130287040D01*
X89867805Y-130287043D01*
X89888158Y-130311843D01*
X89912957Y-130332195D01*
X90912960Y-131332199D01*
X90914721Y-131333644D01*
X90949219Y-131367664D01*
X90988913Y-131399808D01*
X91027370Y-131433458D01*
X91034788Y-131438687D01*
X91119982Y-131497867D01*
X91171359Y-131526564D01*
X91222438Y-131556038D01*
X91230730Y-131559727D01*
X91325796Y-131601233D01*
X91381840Y-131619428D01*
X91437607Y-131638397D01*
X91446445Y-131640402D01*
X91446454Y-131640405D01*
X91446463Y-131640406D01*
X91547775Y-131662655D01*
X91606248Y-131669613D01*
X91664672Y-131677394D01*
X91673744Y-131677645D01*
X91777453Y-131679792D01*
X91836207Y-131675257D01*
X91894988Y-131671544D01*
X91903924Y-131670030D01*
X91903935Y-131670029D01*
X91903945Y-131670026D01*
X92006087Y-131651990D01*
X92062789Y-131636144D01*
X92104924Y-131625000D01*
X94500000Y-131625000D01*
X94524386Y-131622598D01*
X94546749Y-131615814D01*
X92911676Y-133250888D01*
X92878289Y-133278288D01*
X92827092Y-133340671D01*
X92711603Y-133061855D01*
X92506407Y-132754757D01*
X92245243Y-132493593D01*
X91938145Y-132288397D01*
X91596917Y-132147056D01*
X91234671Y-132075000D01*
X90865329Y-132075000D01*
X90503083Y-132147056D01*
X90489938Y-132152501D01*
X85649117Y-127311681D01*
X85621712Y-127278288D01*
X85488476Y-127168944D01*
X85336468Y-127087695D01*
X85171530Y-127037661D01*
X85042979Y-127025000D01*
X85000000Y-127020767D01*
X84957021Y-127025000D01*
X77262437Y-127025000D01*
X72428024Y-122190588D01*
X72428024Y-121200000D01*
X72415957Y-121077479D01*
X72380219Y-120959666D01*
X72322183Y-120851089D01*
X72244080Y-120755920D01*
X72148911Y-120677817D01*
X72040334Y-120619781D01*
X71922521Y-120584043D01*
X71800000Y-120571976D01*
X70200000Y-120571976D01*
X70077479Y-120584043D01*
X69959666Y-120619781D01*
X69851089Y-120677817D01*
X69755920Y-120755920D01*
X69677817Y-120851089D01*
X69619781Y-120959666D01*
X69584043Y-121077479D01*
X69571976Y-121200000D01*
X64025000Y-121200000D01*
X64025000Y-118535423D01*
X64058344Y-118485520D01*
X64135610Y-118298982D01*
X64175000Y-118100954D01*
X64175000Y-117899046D01*
X64135610Y-117701018D01*
X64058344Y-117514480D01*
X63946170Y-117346600D01*
X63803400Y-117203830D01*
X63797669Y-117200000D01*
X74071976Y-117200000D01*
X74071976Y-118800000D01*
X74084043Y-118922521D01*
X74119781Y-119040334D01*
X74177817Y-119148911D01*
X74255920Y-119244080D01*
X74351089Y-119322183D01*
X74459666Y-119380219D01*
X74577479Y-119415957D01*
X74700000Y-119428024D01*
X76152737Y-119428024D01*
X75517802Y-120062960D01*
X75516362Y-120064715D01*
X75482336Y-120099219D01*
X75450197Y-120138908D01*
X75416542Y-120177370D01*
X75411313Y-120184788D01*
X75352133Y-120269982D01*
X75350730Y-120272494D01*
X75261612Y-120361612D01*
X75246066Y-120380554D01*
X75234515Y-120402165D01*
X75227402Y-120425614D01*
X75225000Y-120450000D01*
X75225000Y-120548222D01*
X75211603Y-120587608D01*
X75209598Y-120596445D01*
X75209595Y-120596454D01*
X75209595Y-120596458D01*
X75187345Y-120697776D01*
X75180387Y-120756243D01*
X75172606Y-120814672D01*
X75172355Y-120823744D01*
X75170208Y-120927454D01*
X75174743Y-120986210D01*
X75178456Y-121044988D01*
X75179970Y-121053924D01*
X75179971Y-121053935D01*
X75179974Y-121053945D01*
X75198010Y-121156087D01*
X75213856Y-121212789D01*
X75225000Y-121254924D01*
X75225000Y-123450000D01*
X75227402Y-123474386D01*
X75234515Y-123497835D01*
X75246066Y-123519446D01*
X75261612Y-123538388D01*
X77261612Y-125538388D01*
X77280554Y-125553934D01*
X77302165Y-125565485D01*
X77325614Y-125572598D01*
X77350000Y-125575000D01*
X80350000Y-125575000D01*
X80374386Y-125572598D01*
X80397835Y-125565485D01*
X80419446Y-125553934D01*
X80438388Y-125538388D01*
X82438388Y-123538388D01*
X82453934Y-123519446D01*
X82465485Y-123497835D01*
X82472598Y-123474386D01*
X82475000Y-123450000D01*
X82475000Y-121765329D01*
X89175000Y-121765329D01*
X89175000Y-122134671D01*
X89247056Y-122496917D01*
X89388397Y-122838145D01*
X89593593Y-123145243D01*
X89854757Y-123406407D01*
X90161855Y-123611603D01*
X90503083Y-123752944D01*
X90865329Y-123825000D01*
X91234671Y-123825000D01*
X91596917Y-123752944D01*
X91938145Y-123611603D01*
X92245243Y-123406407D01*
X92506407Y-123145243D01*
X92711603Y-122838145D01*
X92852944Y-122496917D01*
X92925000Y-122134671D01*
X92925000Y-121765329D01*
X92852944Y-121403083D01*
X92711603Y-121061855D01*
X92506407Y-120754757D01*
X92245243Y-120493593D01*
X91938145Y-120288397D01*
X91596917Y-120147056D01*
X91234671Y-120075000D01*
X90865329Y-120075000D01*
X90503083Y-120147056D01*
X90161855Y-120288397D01*
X89854757Y-120493593D01*
X89593593Y-120754757D01*
X89388397Y-121061855D01*
X89247056Y-121403083D01*
X89175000Y-121765329D01*
X82475000Y-121765329D01*
X82475000Y-120450000D01*
X82472598Y-120425614D01*
X82465485Y-120402165D01*
X82453934Y-120380554D01*
X82438388Y-120361612D01*
X81305029Y-119228253D01*
X81375518Y-119190576D01*
X81592502Y-119012502D01*
X81770576Y-118795518D01*
X81852095Y-118643008D01*
X81974980Y-118848274D01*
X82162471Y-119055357D01*
X82386760Y-119221883D01*
X82639227Y-119341453D01*
X82774479Y-119382476D01*
X82995000Y-119262577D01*
X82995000Y-118125000D01*
X82975000Y-118125000D01*
X82975000Y-117875000D01*
X82995000Y-117875000D01*
X82995000Y-116737423D01*
X83245000Y-116737423D01*
X83245000Y-117875000D01*
X83265000Y-117875000D01*
X83265000Y-118125000D01*
X83245000Y-118125000D01*
X83245000Y-119262577D01*
X83465521Y-119382476D01*
X83600773Y-119341453D01*
X83853240Y-119221883D01*
X84077529Y-119055357D01*
X84265020Y-118848274D01*
X84387905Y-118643008D01*
X84469424Y-118795518D01*
X84647498Y-119012502D01*
X84864482Y-119190576D01*
X85112038Y-119322898D01*
X85380651Y-119404381D01*
X85590003Y-119425000D01*
X85729997Y-119425000D01*
X85939349Y-119404381D01*
X86207962Y-119322898D01*
X86455518Y-119190576D01*
X86672502Y-119012502D01*
X86850576Y-118795518D01*
X86930000Y-118646927D01*
X87009424Y-118795518D01*
X87187498Y-119012502D01*
X87404482Y-119190576D01*
X87652038Y-119322898D01*
X87920651Y-119404381D01*
X88130003Y-119425000D01*
X88269997Y-119425000D01*
X88479349Y-119404381D01*
X88747962Y-119322898D01*
X88995518Y-119190576D01*
X89212502Y-119012502D01*
X89390576Y-118795518D01*
X89470000Y-118646927D01*
X89549424Y-118795518D01*
X89727498Y-119012502D01*
X89944482Y-119190576D01*
X90192038Y-119322898D01*
X90460651Y-119404381D01*
X90670003Y-119425000D01*
X90809997Y-119425000D01*
X91019349Y-119404381D01*
X91287962Y-119322898D01*
X91535518Y-119190576D01*
X91752502Y-119012502D01*
X91930576Y-118795518D01*
X92010000Y-118646927D01*
X92089424Y-118795518D01*
X92267498Y-119012502D01*
X92484482Y-119190576D01*
X92732038Y-119322898D01*
X93000651Y-119404381D01*
X93210003Y-119425000D01*
X93349997Y-119425000D01*
X93559349Y-119404381D01*
X93827962Y-119322898D01*
X94075518Y-119190576D01*
X94292502Y-119012502D01*
X94470576Y-118795518D01*
X94550000Y-118646927D01*
X94629424Y-118795518D01*
X94807498Y-119012502D01*
X95024482Y-119190576D01*
X95272038Y-119322898D01*
X95540651Y-119404381D01*
X95750003Y-119425000D01*
X95889997Y-119425000D01*
X96099349Y-119404381D01*
X96367962Y-119322898D01*
X96615518Y-119190576D01*
X96832502Y-119012502D01*
X97010576Y-118795518D01*
X97090000Y-118646927D01*
X97169424Y-118795518D01*
X97347498Y-119012502D01*
X97468750Y-119112011D01*
X96517802Y-120062960D01*
X96516362Y-120064715D01*
X96482336Y-120099219D01*
X96450197Y-120138908D01*
X96416542Y-120177370D01*
X96411313Y-120184788D01*
X96352133Y-120269982D01*
X96350730Y-120272494D01*
X96261612Y-120361612D01*
X96246066Y-120380554D01*
X96234515Y-120402165D01*
X96227402Y-120425614D01*
X96225000Y-120450000D01*
X96225000Y-120548222D01*
X96211603Y-120587608D01*
X96209598Y-120596445D01*
X96209595Y-120596454D01*
X96209595Y-120596458D01*
X96187345Y-120697776D01*
X96180387Y-120756243D01*
X96172606Y-120814672D01*
X96172355Y-120823744D01*
X96170208Y-120927454D01*
X96174743Y-120986210D01*
X96178456Y-121044988D01*
X96179970Y-121053924D01*
X96179971Y-121053935D01*
X96179974Y-121053945D01*
X96198010Y-121156087D01*
X96213856Y-121212789D01*
X96225000Y-121254924D01*
X96225000Y-123450000D01*
X96227402Y-123474386D01*
X96234515Y-123497835D01*
X96246066Y-123519446D01*
X96261612Y-123538388D01*
X98261612Y-125538388D01*
X98280554Y-125553934D01*
X98302165Y-125565485D01*
X98325614Y-125572598D01*
X98350000Y-125575000D01*
X101350000Y-125575000D01*
X101374386Y-125572598D01*
X101397835Y-125565485D01*
X101419446Y-125553934D01*
X101438388Y-125538388D01*
X103438388Y-123538388D01*
X103453934Y-123519446D01*
X103465485Y-123497835D01*
X103472598Y-123474386D01*
X103475000Y-123450000D01*
X103475000Y-121765329D01*
X110175000Y-121765329D01*
X110175000Y-122134671D01*
X110247056Y-122496917D01*
X110388397Y-122838145D01*
X110593593Y-123145243D01*
X110854757Y-123406407D01*
X111161855Y-123611603D01*
X111503083Y-123752944D01*
X111865329Y-123825000D01*
X112234671Y-123825000D01*
X112596917Y-123752944D01*
X112938145Y-123611603D01*
X113245243Y-123406407D01*
X113506407Y-123145243D01*
X113711603Y-122838145D01*
X113852944Y-122496917D01*
X113925000Y-122134671D01*
X113925000Y-121765329D01*
X113852944Y-121403083D01*
X113711603Y-121061855D01*
X113506407Y-120754757D01*
X113245243Y-120493593D01*
X112938145Y-120288397D01*
X112596917Y-120147056D01*
X112234671Y-120075000D01*
X111865329Y-120075000D01*
X111503083Y-120147056D01*
X111161855Y-120288397D01*
X110854757Y-120493593D01*
X110593593Y-120754757D01*
X110388397Y-121061855D01*
X110247056Y-121403083D01*
X110175000Y-121765329D01*
X103475000Y-121765329D01*
X103475000Y-120450000D01*
X103472598Y-120425614D01*
X103465485Y-120402165D01*
X103453934Y-120380554D01*
X103438388Y-120361612D01*
X101992185Y-118915409D01*
X102090576Y-118795518D01*
X102170000Y-118646927D01*
X102249424Y-118795518D01*
X102427498Y-119012502D01*
X102644482Y-119190576D01*
X102892038Y-119322898D01*
X103160651Y-119404381D01*
X103370003Y-119425000D01*
X103509997Y-119425000D01*
X103719349Y-119404381D01*
X103987962Y-119322898D01*
X104235518Y-119190576D01*
X104452502Y-119012502D01*
X104630576Y-118795518D01*
X104710000Y-118646927D01*
X104789424Y-118795518D01*
X104967498Y-119012502D01*
X105184482Y-119190576D01*
X105432038Y-119322898D01*
X105700651Y-119404381D01*
X105910003Y-119425000D01*
X106049997Y-119425000D01*
X106259349Y-119404381D01*
X106527962Y-119322898D01*
X106775518Y-119190576D01*
X106992502Y-119012502D01*
X107170576Y-118795518D01*
X107250000Y-118646927D01*
X107329424Y-118795518D01*
X107507498Y-119012502D01*
X107724482Y-119190576D01*
X107972038Y-119322898D01*
X108240651Y-119404381D01*
X108450003Y-119425000D01*
X108589997Y-119425000D01*
X108799349Y-119404381D01*
X109067962Y-119322898D01*
X109315518Y-119190576D01*
X109532502Y-119012502D01*
X109710576Y-118795518D01*
X109790000Y-118646927D01*
X109869424Y-118795518D01*
X110047498Y-119012502D01*
X110264482Y-119190576D01*
X110512038Y-119322898D01*
X110780651Y-119404381D01*
X110990003Y-119425000D01*
X111129997Y-119425000D01*
X111339349Y-119404381D01*
X111607962Y-119322898D01*
X111855518Y-119190576D01*
X112072502Y-119012502D01*
X112250576Y-118795518D01*
X112382898Y-118547962D01*
X112464381Y-118279349D01*
X112491894Y-118000000D01*
X112464381Y-117720651D01*
X112382898Y-117452038D01*
X112250576Y-117204482D01*
X112072502Y-116987498D01*
X111855518Y-116809424D01*
X111607962Y-116677102D01*
X111339349Y-116595619D01*
X111129997Y-116575000D01*
X110990003Y-116575000D01*
X110780651Y-116595619D01*
X110512038Y-116677102D01*
X110264482Y-116809424D01*
X110047498Y-116987498D01*
X109869424Y-117204482D01*
X109790000Y-117353073D01*
X109710576Y-117204482D01*
X109532502Y-116987498D01*
X109315518Y-116809424D01*
X109067962Y-116677102D01*
X108799349Y-116595619D01*
X108589997Y-116575000D01*
X108450003Y-116575000D01*
X108240651Y-116595619D01*
X107972038Y-116677102D01*
X107724482Y-116809424D01*
X107507498Y-116987498D01*
X107329424Y-117204482D01*
X107250000Y-117353073D01*
X107170576Y-117204482D01*
X106992502Y-116987498D01*
X106775518Y-116809424D01*
X106527962Y-116677102D01*
X106259349Y-116595619D01*
X106049997Y-116575000D01*
X105910003Y-116575000D01*
X105700651Y-116595619D01*
X105432038Y-116677102D01*
X105184482Y-116809424D01*
X104967498Y-116987498D01*
X104789424Y-117204482D01*
X104710000Y-117353073D01*
X104630576Y-117204482D01*
X104452502Y-116987498D01*
X104235518Y-116809424D01*
X103987962Y-116677102D01*
X103719349Y-116595619D01*
X103509997Y-116575000D01*
X103370003Y-116575000D01*
X103160651Y-116595619D01*
X102892038Y-116677102D01*
X102644482Y-116809424D01*
X102427498Y-116987498D01*
X102249424Y-117204482D01*
X102170000Y-117353073D01*
X102090576Y-117204482D01*
X101912502Y-116987498D01*
X101695518Y-116809424D01*
X101447962Y-116677102D01*
X101179349Y-116595619D01*
X100969997Y-116575000D01*
X100830003Y-116575000D01*
X100620651Y-116595619D01*
X100352038Y-116677102D01*
X100104482Y-116809424D01*
X99887498Y-116987498D01*
X99709424Y-117204482D01*
X99630000Y-117353073D01*
X99550576Y-117204482D01*
X99372502Y-116987498D01*
X99155518Y-116809424D01*
X98907962Y-116677102D01*
X98639349Y-116595619D01*
X98429997Y-116575000D01*
X98290003Y-116575000D01*
X98080651Y-116595619D01*
X97812038Y-116677102D01*
X97564482Y-116809424D01*
X97347498Y-116987498D01*
X97169424Y-117204482D01*
X97090000Y-117353073D01*
X97010576Y-117204482D01*
X96832502Y-116987498D01*
X96615518Y-116809424D01*
X96367962Y-116677102D01*
X96099349Y-116595619D01*
X95889997Y-116575000D01*
X95750003Y-116575000D01*
X95540651Y-116595619D01*
X95272038Y-116677102D01*
X95024482Y-116809424D01*
X94807498Y-116987498D01*
X94629424Y-117204482D01*
X94550000Y-117353073D01*
X94470576Y-117204482D01*
X94292502Y-116987498D01*
X94075518Y-116809424D01*
X93827962Y-116677102D01*
X93559349Y-116595619D01*
X93349997Y-116575000D01*
X93210003Y-116575000D01*
X93000651Y-116595619D01*
X92732038Y-116677102D01*
X92484482Y-116809424D01*
X92267498Y-116987498D01*
X92089424Y-117204482D01*
X92010000Y-117353073D01*
X91930576Y-117204482D01*
X91752502Y-116987498D01*
X91535518Y-116809424D01*
X91287962Y-116677102D01*
X91019349Y-116595619D01*
X90809997Y-116575000D01*
X90670003Y-116575000D01*
X90460651Y-116595619D01*
X90192038Y-116677102D01*
X89944482Y-116809424D01*
X89727498Y-116987498D01*
X89549424Y-117204482D01*
X89470000Y-117353073D01*
X89390576Y-117204482D01*
X89212502Y-116987498D01*
X88995518Y-116809424D01*
X88747962Y-116677102D01*
X88479349Y-116595619D01*
X88269997Y-116575000D01*
X88130003Y-116575000D01*
X87920651Y-116595619D01*
X87652038Y-116677102D01*
X87404482Y-116809424D01*
X87187498Y-116987498D01*
X87009424Y-117204482D01*
X86930000Y-117353073D01*
X86850576Y-117204482D01*
X86672502Y-116987498D01*
X86455518Y-116809424D01*
X86207962Y-116677102D01*
X85939349Y-116595619D01*
X85729997Y-116575000D01*
X85590003Y-116575000D01*
X85380651Y-116595619D01*
X85112038Y-116677102D01*
X84864482Y-116809424D01*
X84647498Y-116987498D01*
X84469424Y-117204482D01*
X84387905Y-117356992D01*
X84265020Y-117151726D01*
X84077529Y-116944643D01*
X83853240Y-116778117D01*
X83600773Y-116658547D01*
X83465521Y-116617524D01*
X83245000Y-116737423D01*
X82995000Y-116737423D01*
X82774479Y-116617524D01*
X82639227Y-116658547D01*
X82386760Y-116778117D01*
X82162471Y-116944643D01*
X81974980Y-117151726D01*
X81852095Y-117356992D01*
X81770576Y-117204482D01*
X81592502Y-116987498D01*
X81375518Y-116809424D01*
X81127962Y-116677102D01*
X80859349Y-116595619D01*
X80649997Y-116575000D01*
X80510003Y-116575000D01*
X80300651Y-116595619D01*
X80032038Y-116677102D01*
X79784482Y-116809424D01*
X79567498Y-116987498D01*
X79389424Y-117204482D01*
X79310000Y-117353073D01*
X79230576Y-117204482D01*
X79052502Y-116987498D01*
X78835518Y-116809424D01*
X78587962Y-116677102D01*
X78319349Y-116595619D01*
X78109997Y-116575000D01*
X77970003Y-116575000D01*
X77760651Y-116595619D01*
X77492038Y-116677102D01*
X77244482Y-116809424D01*
X77027498Y-116987498D01*
X76919996Y-117118490D01*
X76915957Y-117077479D01*
X76880219Y-116959666D01*
X76822183Y-116851089D01*
X76744080Y-116755920D01*
X76648911Y-116677817D01*
X76540334Y-116619781D01*
X76422521Y-116584043D01*
X76300000Y-116571976D01*
X74700000Y-116571976D01*
X74577479Y-116584043D01*
X74459666Y-116619781D01*
X74351089Y-116677817D01*
X74255920Y-116755920D01*
X74177817Y-116851089D01*
X74119781Y-116959666D01*
X74084043Y-117077479D01*
X74071976Y-117200000D01*
X63797669Y-117200000D01*
X63635520Y-117091656D01*
X63448982Y-117014390D01*
X63250954Y-116975000D01*
X63049046Y-116975000D01*
X62851018Y-117014390D01*
X62664480Y-117091656D01*
X62496600Y-117203830D01*
X62353830Y-117346600D01*
X62241656Y-117514480D01*
X62164390Y-117701018D01*
X62125000Y-117899046D01*
X50675000Y-117899046D01*
X50675000Y-112486065D01*
X52690712Y-112486065D01*
X52762693Y-112727479D01*
X53016330Y-112847735D01*
X53288553Y-112916198D01*
X53568903Y-112930237D01*
X53846604Y-112889314D01*
X54110986Y-112795000D01*
X54237307Y-112727479D01*
X54309288Y-112486065D01*
X53500000Y-111676777D01*
X52690712Y-112486065D01*
X50675000Y-112486065D01*
X50675000Y-111568903D01*
X52069763Y-111568903D01*
X52110686Y-111846604D01*
X52205000Y-112110986D01*
X52272521Y-112237307D01*
X52513935Y-112309288D01*
X53323223Y-111500000D01*
X53676777Y-111500000D01*
X54486065Y-112309288D01*
X54571976Y-112283672D01*
X54571976Y-112300000D01*
X54584043Y-112422521D01*
X54619781Y-112540334D01*
X54677817Y-112648911D01*
X54755920Y-112744080D01*
X54851089Y-112822183D01*
X54959666Y-112880219D01*
X55077479Y-112915957D01*
X55200000Y-112928024D01*
X56800000Y-112928024D01*
X56922521Y-112915957D01*
X57040334Y-112880219D01*
X57148911Y-112822183D01*
X57244080Y-112744080D01*
X57322183Y-112648911D01*
X57380219Y-112540334D01*
X57415957Y-112422521D01*
X57428024Y-112300000D01*
X57428024Y-110700000D01*
X57415957Y-110577479D01*
X57380219Y-110459666D01*
X57322183Y-110351089D01*
X57244080Y-110255920D01*
X57148911Y-110177817D01*
X57040334Y-110119781D01*
X56922521Y-110084043D01*
X56800000Y-110071976D01*
X55200000Y-110071976D01*
X55077479Y-110084043D01*
X54959666Y-110119781D01*
X54851089Y-110177817D01*
X54755920Y-110255920D01*
X54677817Y-110351089D01*
X54619781Y-110459666D01*
X54584043Y-110577479D01*
X54571976Y-110700000D01*
X54571976Y-110716328D01*
X54486065Y-110690712D01*
X53676777Y-111500000D01*
X53323223Y-111500000D01*
X52513935Y-110690712D01*
X52272521Y-110762693D01*
X52152265Y-111016330D01*
X52083802Y-111288553D01*
X52069763Y-111568903D01*
X50675000Y-111568903D01*
X50675000Y-110513935D01*
X52690712Y-110513935D01*
X53500000Y-111323223D01*
X54309288Y-110513935D01*
X54237307Y-110272521D01*
X53983670Y-110152265D01*
X53711447Y-110083802D01*
X53431097Y-110069763D01*
X53153396Y-110110686D01*
X52889014Y-110205000D01*
X52762693Y-110272521D01*
X52690712Y-110513935D01*
X50675000Y-110513935D01*
X50675000Y-108999046D01*
X86625000Y-108999046D01*
X86625000Y-109200954D01*
X86664390Y-109398982D01*
X86741656Y-109585520D01*
X86853830Y-109753400D01*
X86996600Y-109896170D01*
X87164480Y-110008344D01*
X87351018Y-110085610D01*
X87409883Y-110097319D01*
X89775001Y-112462438D01*
X89775000Y-112864577D01*
X89741656Y-112914480D01*
X89664390Y-113101018D01*
X89625000Y-113299046D01*
X89625000Y-113500954D01*
X89664390Y-113698982D01*
X89741656Y-113885520D01*
X89853830Y-114053400D01*
X89996600Y-114196170D01*
X90164480Y-114308344D01*
X90351018Y-114385610D01*
X90549046Y-114425000D01*
X90750954Y-114425000D01*
X90948982Y-114385610D01*
X91135520Y-114308344D01*
X91303400Y-114196170D01*
X91446170Y-114053400D01*
X91531964Y-113925000D01*
X98114577Y-113925000D01*
X98164480Y-113958344D01*
X98351018Y-114035610D01*
X98549046Y-114075000D01*
X98750954Y-114075000D01*
X98948982Y-114035610D01*
X99135520Y-113958344D01*
X99303400Y-113846170D01*
X99446170Y-113703400D01*
X99558344Y-113535520D01*
X99635610Y-113348982D01*
X99675000Y-113150954D01*
X99675000Y-112949046D01*
X99635610Y-112751018D01*
X99558344Y-112564480D01*
X99446170Y-112396600D01*
X99303400Y-112253830D01*
X99135520Y-112141656D01*
X98948982Y-112064390D01*
X98750954Y-112025000D01*
X98549046Y-112025000D01*
X98351018Y-112064390D01*
X98164480Y-112141656D01*
X98114577Y-112175000D01*
X91525000Y-112175000D01*
X91525000Y-112142979D01*
X91529233Y-112100000D01*
X91512339Y-111928470D01*
X91462305Y-111763532D01*
X91381056Y-111611524D01*
X91346078Y-111568903D01*
X91271712Y-111478288D01*
X91238325Y-111450888D01*
X88647319Y-108859883D01*
X88635610Y-108801018D01*
X88558344Y-108614480D01*
X88446170Y-108446600D01*
X88303400Y-108303830D01*
X88135520Y-108191656D01*
X87948982Y-108114390D01*
X87750954Y-108075000D01*
X87549046Y-108075000D01*
X87351018Y-108114390D01*
X87164480Y-108191656D01*
X86996600Y-108303830D01*
X86853830Y-108446600D01*
X86741656Y-108614480D01*
X86664390Y-108801018D01*
X86625000Y-108999046D01*
X50675000Y-108999046D01*
X50675000Y-102760000D01*
X74068106Y-102760000D01*
X74095619Y-103039349D01*
X74177102Y-103307962D01*
X74309424Y-103555518D01*
X74487498Y-103772502D01*
X74704482Y-103950576D01*
X74952038Y-104082898D01*
X75220651Y-104164381D01*
X75430003Y-104185000D01*
X75569997Y-104185000D01*
X75779349Y-104164381D01*
X76047962Y-104082898D01*
X76295518Y-103950576D01*
X76512502Y-103772502D01*
X76690576Y-103555518D01*
X76772095Y-103403008D01*
X76894980Y-103608274D01*
X77082471Y-103815357D01*
X77306760Y-103981883D01*
X77559227Y-104101453D01*
X77694479Y-104142476D01*
X77915000Y-104022577D01*
X77915000Y-102885000D01*
X77895000Y-102885000D01*
X77895000Y-102635000D01*
X77915000Y-102635000D01*
X77915000Y-101497423D01*
X77694479Y-101377524D01*
X77559227Y-101418547D01*
X77306760Y-101538117D01*
X77082471Y-101704643D01*
X76894980Y-101911726D01*
X76772095Y-102116992D01*
X76690576Y-101964482D01*
X76512502Y-101747498D01*
X76295518Y-101569424D01*
X76047962Y-101437102D01*
X75779349Y-101355619D01*
X75569997Y-101335000D01*
X75430003Y-101335000D01*
X75220651Y-101355619D01*
X74952038Y-101437102D01*
X74704482Y-101569424D01*
X74487498Y-101747498D01*
X74309424Y-101964482D01*
X74177102Y-102212038D01*
X74095619Y-102480651D01*
X74068106Y-102760000D01*
X50675000Y-102760000D01*
X50675000Y-68510404D01*
X54195000Y-68510404D01*
X54195000Y-68889596D01*
X54268977Y-69261502D01*
X54414087Y-69611829D01*
X54624755Y-69927116D01*
X54892884Y-70195245D01*
X55208171Y-70405913D01*
X55558498Y-70551023D01*
X55930404Y-70625000D01*
X56309596Y-70625000D01*
X56681502Y-70551023D01*
X57031829Y-70405913D01*
X57347116Y-70195245D01*
X57615245Y-69927116D01*
X57825913Y-69611829D01*
X57971023Y-69261502D01*
X58045000Y-68889596D01*
X58045000Y-68510404D01*
X57971023Y-68138498D01*
X57955768Y-68101669D01*
X58982437Y-67075000D01*
X60167076Y-67075000D01*
X59972884Y-67204755D01*
X59704755Y-67472884D01*
X59494087Y-67788171D01*
X59348977Y-68138498D01*
X59275000Y-68510404D01*
X59275000Y-68889596D01*
X59348977Y-69261502D01*
X59494087Y-69611829D01*
X59704755Y-69927116D01*
X59972884Y-70195245D01*
X60288171Y-70405913D01*
X60638498Y-70551023D01*
X61010404Y-70625000D01*
X61389596Y-70625000D01*
X61761502Y-70551023D01*
X62111829Y-70405913D01*
X62427116Y-70195245D01*
X62695245Y-69927116D01*
X62905913Y-69611829D01*
X63051023Y-69261502D01*
X63125000Y-68889596D01*
X63125000Y-68510404D01*
X63051023Y-68138498D01*
X62905913Y-67788171D01*
X62695245Y-67472884D01*
X62427116Y-67204755D01*
X62232924Y-67075000D01*
X65247076Y-67075000D01*
X65052884Y-67204755D01*
X64784755Y-67472884D01*
X64574087Y-67788171D01*
X64428977Y-68138498D01*
X64355000Y-68510404D01*
X64355000Y-68889596D01*
X64428977Y-69261502D01*
X64574087Y-69611829D01*
X64784755Y-69927116D01*
X65052884Y-70195245D01*
X65368171Y-70405913D01*
X65718498Y-70551023D01*
X66090404Y-70625000D01*
X66469596Y-70625000D01*
X66841502Y-70551023D01*
X67191829Y-70405913D01*
X67507116Y-70195245D01*
X67659802Y-70042559D01*
X70194218Y-70042559D01*
X70326542Y-70335095D01*
X70665391Y-70505295D01*
X71030934Y-70606118D01*
X71409122Y-70633690D01*
X71785422Y-70586951D01*
X72145374Y-70467698D01*
X72393458Y-70335095D01*
X72525782Y-70042559D01*
X71360000Y-68876777D01*
X70194218Y-70042559D01*
X67659802Y-70042559D01*
X67775245Y-69927116D01*
X67985913Y-69611829D01*
X68131023Y-69261502D01*
X68205000Y-68889596D01*
X68205000Y-68749122D01*
X69426310Y-68749122D01*
X69473049Y-69125422D01*
X69592302Y-69485374D01*
X69724905Y-69733458D01*
X70017441Y-69865782D01*
X71183223Y-68700000D01*
X71536777Y-68700000D01*
X72702559Y-69865782D01*
X72995095Y-69733458D01*
X73165295Y-69394609D01*
X73266118Y-69029066D01*
X73293690Y-68650878D01*
X73246951Y-68274578D01*
X73127698Y-67914626D01*
X72995095Y-67666542D01*
X72702559Y-67534218D01*
X71536777Y-68700000D01*
X71183223Y-68700000D01*
X70017441Y-67534218D01*
X69724905Y-67666542D01*
X69554705Y-68005391D01*
X69453882Y-68370934D01*
X69426310Y-68749122D01*
X68205000Y-68749122D01*
X68205000Y-68510404D01*
X68131023Y-68138498D01*
X67985913Y-67788171D01*
X67775245Y-67472884D01*
X67507116Y-67204755D01*
X67312924Y-67075000D01*
X70321976Y-67075000D01*
X70194218Y-67357441D01*
X71360000Y-68523223D01*
X72525782Y-67357441D01*
X72398024Y-67075000D01*
X73577564Y-67075000D01*
X74604232Y-68101669D01*
X74588977Y-68138498D01*
X74515000Y-68510404D01*
X74515000Y-68889596D01*
X74588977Y-69261502D01*
X74734087Y-69611829D01*
X74944755Y-69927116D01*
X75212884Y-70195245D01*
X75528171Y-70405913D01*
X75565000Y-70421168D01*
X75565001Y-94697562D01*
X73761680Y-96500883D01*
X73728288Y-96528288D01*
X73618944Y-96661525D01*
X73563914Y-96764480D01*
X73537695Y-96813533D01*
X73487661Y-96978471D01*
X73470767Y-97150000D01*
X73475000Y-97192979D01*
X73475001Y-99737562D01*
X72237564Y-100975000D01*
X70324833Y-100975000D01*
X70335610Y-100948982D01*
X70342004Y-100916835D01*
X70498982Y-100885610D01*
X70685520Y-100808344D01*
X70853400Y-100696170D01*
X70996170Y-100553400D01*
X71108344Y-100385520D01*
X71185610Y-100198982D01*
X71225000Y-100000954D01*
X71225000Y-99799046D01*
X71185610Y-99601018D01*
X71108344Y-99414480D01*
X70996170Y-99246600D01*
X70950000Y-99200430D01*
X70950000Y-83749570D01*
X70996170Y-83703400D01*
X71108344Y-83535520D01*
X71185610Y-83348982D01*
X71225000Y-83150954D01*
X71225000Y-82949046D01*
X71185610Y-82751018D01*
X71108344Y-82564480D01*
X70996170Y-82396600D01*
X70853400Y-82253830D01*
X70685520Y-82141656D01*
X70498982Y-82064390D01*
X70300954Y-82025000D01*
X70099046Y-82025000D01*
X69901018Y-82064390D01*
X69714480Y-82141656D01*
X69546600Y-82253830D01*
X69403830Y-82396600D01*
X69291656Y-82564480D01*
X69214390Y-82751018D01*
X69175000Y-82949046D01*
X69175000Y-83150954D01*
X69214390Y-83348982D01*
X69291656Y-83535520D01*
X69403830Y-83703400D01*
X69450001Y-83749571D01*
X69450001Y-84600431D01*
X69403400Y-84553830D01*
X69235520Y-84441656D01*
X69048982Y-84364390D01*
X68850954Y-84325000D01*
X68649046Y-84325000D01*
X68451018Y-84364390D01*
X68264480Y-84441656D01*
X68096600Y-84553830D01*
X67953830Y-84696600D01*
X67841656Y-84864480D01*
X67793611Y-84980471D01*
X67735520Y-84941656D01*
X67548982Y-84864390D01*
X67350954Y-84825000D01*
X67149046Y-84825000D01*
X66951018Y-84864390D01*
X66764480Y-84941656D01*
X66596600Y-85053830D01*
X66453830Y-85196600D01*
X66341656Y-85364480D01*
X66264390Y-85551018D01*
X66225000Y-85749046D01*
X66225000Y-85950954D01*
X66264390Y-86148982D01*
X66341656Y-86335520D01*
X66453830Y-86503400D01*
X66500001Y-86549571D01*
X66500000Y-92000430D01*
X66453830Y-92046600D01*
X66341656Y-92214480D01*
X66264390Y-92401018D01*
X66225000Y-92599046D01*
X66225000Y-92800954D01*
X66264390Y-92998982D01*
X66341656Y-93185520D01*
X66453830Y-93353400D01*
X66596600Y-93496170D01*
X66764480Y-93608344D01*
X66951018Y-93685610D01*
X67149046Y-93725000D01*
X67350954Y-93725000D01*
X67548982Y-93685610D01*
X67735520Y-93608344D01*
X67903400Y-93496170D01*
X68046170Y-93353400D01*
X68158344Y-93185520D01*
X68235610Y-92998982D01*
X68275000Y-92800954D01*
X68275000Y-92599046D01*
X68235610Y-92401018D01*
X68158344Y-92214480D01*
X68046170Y-92046600D01*
X68000000Y-92000430D01*
X68000000Y-86549570D01*
X68046170Y-86503400D01*
X68158344Y-86335520D01*
X68206389Y-86219529D01*
X68264480Y-86258344D01*
X68451018Y-86335610D01*
X68649046Y-86375000D01*
X68650001Y-86375000D01*
X68650000Y-96034756D01*
X68600954Y-96025000D01*
X68399046Y-96025000D01*
X68201018Y-96064390D01*
X68014480Y-96141656D01*
X67846600Y-96253830D01*
X67703830Y-96396600D01*
X67591656Y-96564480D01*
X67514390Y-96751018D01*
X67475000Y-96949046D01*
X67475000Y-97150954D01*
X67475400Y-97152963D01*
X67470767Y-97200000D01*
X67475000Y-97242979D01*
X67475001Y-100975000D01*
X59283412Y-100975000D01*
X59335610Y-100848982D01*
X59362715Y-100712715D01*
X59498982Y-100685610D01*
X59685520Y-100608344D01*
X59853400Y-100496170D01*
X59996170Y-100353400D01*
X60108344Y-100185520D01*
X60185610Y-99998982D01*
X60225000Y-99800954D01*
X60225000Y-99599046D01*
X60185610Y-99401018D01*
X60108344Y-99214480D01*
X59996170Y-99046600D01*
X59950000Y-99000430D01*
X59950000Y-83699570D01*
X59996170Y-83653400D01*
X60108344Y-83485520D01*
X60185610Y-83298982D01*
X60225000Y-83100954D01*
X60225000Y-82899046D01*
X60185610Y-82701018D01*
X60108344Y-82514480D01*
X59996170Y-82346600D01*
X59853400Y-82203830D01*
X59685520Y-82091656D01*
X59498982Y-82014390D01*
X59300954Y-81975000D01*
X59099046Y-81975000D01*
X58901018Y-82014390D01*
X58714480Y-82091656D01*
X58546600Y-82203830D01*
X58403830Y-82346600D01*
X58291656Y-82514480D01*
X58214390Y-82701018D01*
X58175000Y-82899046D01*
X58175000Y-83100954D01*
X58214390Y-83298982D01*
X58291656Y-83485520D01*
X58403830Y-83653400D01*
X58450001Y-83699571D01*
X58450001Y-84600431D01*
X58403400Y-84553830D01*
X58235520Y-84441656D01*
X58048982Y-84364390D01*
X57850954Y-84325000D01*
X57649046Y-84325000D01*
X57451018Y-84364390D01*
X57264480Y-84441656D01*
X57096600Y-84553830D01*
X56953830Y-84696600D01*
X56841656Y-84864480D01*
X56782773Y-85006638D01*
X56685520Y-84941656D01*
X56498982Y-84864390D01*
X56300954Y-84825000D01*
X56099046Y-84825000D01*
X55901018Y-84864390D01*
X55714480Y-84941656D01*
X55546600Y-85053830D01*
X55403830Y-85196600D01*
X55291656Y-85364480D01*
X55214390Y-85551018D01*
X55175000Y-85749046D01*
X55175000Y-85950954D01*
X55214390Y-86148982D01*
X55291656Y-86335520D01*
X55403830Y-86503400D01*
X55450001Y-86549571D01*
X55450000Y-92050430D01*
X55403830Y-92096600D01*
X55291656Y-92264480D01*
X55214390Y-92451018D01*
X55175000Y-92649046D01*
X55175000Y-92850954D01*
X55214390Y-93048982D01*
X55291656Y-93235520D01*
X55403830Y-93403400D01*
X55546600Y-93546170D01*
X55714480Y-93658344D01*
X55901018Y-93735610D01*
X56099046Y-93775000D01*
X56300954Y-93775000D01*
X56498982Y-93735610D01*
X56685520Y-93658344D01*
X56853400Y-93546170D01*
X56996170Y-93403400D01*
X57108344Y-93235520D01*
X57185610Y-93048982D01*
X57225000Y-92850954D01*
X57225000Y-92649046D01*
X57185610Y-92451018D01*
X57108344Y-92264480D01*
X56996170Y-92096600D01*
X56950000Y-92050430D01*
X56950000Y-86549570D01*
X56996170Y-86503400D01*
X57108344Y-86335520D01*
X57167227Y-86193362D01*
X57264480Y-86258344D01*
X57451018Y-86335610D01*
X57600001Y-86365244D01*
X57600000Y-95925000D01*
X57449046Y-95925000D01*
X57251018Y-95964390D01*
X57064480Y-96041656D01*
X56896600Y-96153830D01*
X56753830Y-96296600D01*
X56641656Y-96464480D01*
X56564390Y-96651018D01*
X56553065Y-96707955D01*
X56528289Y-96728288D01*
X56418945Y-96861524D01*
X56409887Y-96878471D01*
X56337695Y-97013533D01*
X56287661Y-97178471D01*
X56270767Y-97350000D01*
X56275001Y-97392989D01*
X56275000Y-101307021D01*
X56270767Y-101350000D01*
X56275000Y-101392978D01*
X56287661Y-101521529D01*
X56337695Y-101686467D01*
X56418944Y-101838475D01*
X56528288Y-101971712D01*
X56561681Y-101999117D01*
X57000883Y-102438319D01*
X57028288Y-102471712D01*
X57161524Y-102581056D01*
X57313532Y-102662305D01*
X57478470Y-102712339D01*
X57650000Y-102729233D01*
X57692979Y-102725000D01*
X68307021Y-102725000D01*
X68350000Y-102729233D01*
X68392979Y-102725000D01*
X72557021Y-102725000D01*
X72600000Y-102729233D01*
X72642979Y-102725000D01*
X72771530Y-102712339D01*
X72936468Y-102662305D01*
X73088476Y-102581056D01*
X73221712Y-102471712D01*
X73249116Y-102438320D01*
X74938325Y-100749112D01*
X74971712Y-100721712D01*
X75081056Y-100588476D01*
X75162305Y-100436468D01*
X75212339Y-100271530D01*
X75225000Y-100142979D01*
X75229233Y-100100000D01*
X75225000Y-100057021D01*
X75225000Y-97512436D01*
X76712437Y-96025000D01*
X78937564Y-96025000D01*
X79702681Y-96790118D01*
X79714390Y-96848982D01*
X79735522Y-96900000D01*
X79714390Y-96951018D01*
X79675000Y-97149046D01*
X79675000Y-97350954D01*
X79714390Y-97548982D01*
X79791656Y-97735520D01*
X79903830Y-97903400D01*
X80046600Y-98046170D01*
X80214480Y-98158344D01*
X80401018Y-98235610D01*
X80459883Y-98247319D01*
X82245001Y-100032438D01*
X82245000Y-101634653D01*
X82107498Y-101747498D01*
X81929424Y-101964482D01*
X81850000Y-102113073D01*
X81770576Y-101964482D01*
X81592502Y-101747498D01*
X81375518Y-101569424D01*
X81127962Y-101437102D01*
X80859349Y-101355619D01*
X80649997Y-101335000D01*
X80510003Y-101335000D01*
X80300651Y-101355619D01*
X80032038Y-101437102D01*
X79784482Y-101569424D01*
X79567498Y-101747498D01*
X79389424Y-101964482D01*
X79307905Y-102116992D01*
X79185020Y-101911726D01*
X78997529Y-101704643D01*
X78773240Y-101538117D01*
X78520773Y-101418547D01*
X78385521Y-101377524D01*
X78165000Y-101497423D01*
X78165000Y-102635000D01*
X78185000Y-102635000D01*
X78185000Y-102885000D01*
X78165000Y-102885000D01*
X78165000Y-104022577D01*
X78385521Y-104142476D01*
X78520773Y-104101453D01*
X78773240Y-103981883D01*
X78997529Y-103815357D01*
X79185020Y-103608274D01*
X79307905Y-103403008D01*
X79389424Y-103555518D01*
X79567498Y-103772502D01*
X79784482Y-103950576D01*
X80032038Y-104082898D01*
X80300651Y-104164381D01*
X80462266Y-104180298D01*
X79417564Y-105225000D01*
X76035423Y-105225000D01*
X75985520Y-105191656D01*
X75798982Y-105114390D01*
X75600954Y-105075000D01*
X75399046Y-105075000D01*
X75201018Y-105114390D01*
X75014480Y-105191656D01*
X74846600Y-105303830D01*
X74703830Y-105446600D01*
X74591656Y-105614480D01*
X74514390Y-105801018D01*
X74475000Y-105999046D01*
X74475000Y-106200954D01*
X74514390Y-106398982D01*
X74591656Y-106585520D01*
X74703830Y-106753400D01*
X74846600Y-106896170D01*
X75014480Y-107008344D01*
X75201018Y-107085610D01*
X75399046Y-107125000D01*
X75600954Y-107125000D01*
X75798982Y-107085610D01*
X75985520Y-107008344D01*
X76035423Y-106975000D01*
X79737021Y-106975000D01*
X79780000Y-106979233D01*
X79822979Y-106975000D01*
X79951530Y-106962339D01*
X80116468Y-106912305D01*
X80268476Y-106831056D01*
X80401712Y-106721712D01*
X80429117Y-106688319D01*
X82942977Y-104174459D01*
X83050003Y-104185000D01*
X83189997Y-104185000D01*
X83399349Y-104164381D01*
X83667962Y-104082898D01*
X83915518Y-103950576D01*
X84132502Y-103772502D01*
X84310576Y-103555518D01*
X84390000Y-103406927D01*
X84469424Y-103555518D01*
X84647498Y-103772502D01*
X84864482Y-103950576D01*
X85112038Y-104082898D01*
X85380651Y-104164381D01*
X85590003Y-104185000D01*
X85729997Y-104185000D01*
X85939349Y-104164381D01*
X86207962Y-104082898D01*
X86455518Y-103950576D01*
X86672502Y-103772502D01*
X86850576Y-103555518D01*
X86930000Y-103406927D01*
X87009424Y-103555518D01*
X87187498Y-103772502D01*
X87404482Y-103950576D01*
X87652038Y-104082898D01*
X87920651Y-104164381D01*
X88130003Y-104185000D01*
X88269997Y-104185000D01*
X88479349Y-104164381D01*
X88747962Y-104082898D01*
X88995518Y-103950576D01*
X89212502Y-103772502D01*
X89390576Y-103555518D01*
X89470000Y-103406927D01*
X89549424Y-103555518D01*
X89727498Y-103772502D01*
X89944482Y-103950576D01*
X90192038Y-104082898D01*
X90460651Y-104164381D01*
X90670003Y-104185000D01*
X90809997Y-104185000D01*
X91019349Y-104164381D01*
X91287962Y-104082898D01*
X91535518Y-103950576D01*
X91752502Y-103772502D01*
X91930576Y-103555518D01*
X92010000Y-103406927D01*
X92089424Y-103555518D01*
X92267498Y-103772502D01*
X92484482Y-103950576D01*
X92732038Y-104082898D01*
X93000651Y-104164381D01*
X93210003Y-104185000D01*
X93349997Y-104185000D01*
X93559349Y-104164381D01*
X93827962Y-104082898D01*
X94075518Y-103950576D01*
X94292502Y-103772502D01*
X94470576Y-103555518D01*
X94550000Y-103406927D01*
X94629424Y-103555518D01*
X94807498Y-103772502D01*
X95024482Y-103950576D01*
X95272038Y-104082898D01*
X95540651Y-104164381D01*
X95750003Y-104185000D01*
X95889997Y-104185000D01*
X96099349Y-104164381D01*
X96367962Y-104082898D01*
X96615518Y-103950576D01*
X96832502Y-103772502D01*
X97010576Y-103555518D01*
X97090000Y-103406927D01*
X97169424Y-103555518D01*
X97347498Y-103772502D01*
X97564482Y-103950576D01*
X97812038Y-104082898D01*
X98080651Y-104164381D01*
X98290003Y-104185000D01*
X98429997Y-104185000D01*
X98639349Y-104164381D01*
X98907962Y-104082898D01*
X99155518Y-103950576D01*
X99372502Y-103772502D01*
X99550576Y-103555518D01*
X99630000Y-103406927D01*
X99709424Y-103555518D01*
X99887498Y-103772502D01*
X100104482Y-103950576D01*
X100352038Y-104082898D01*
X100620651Y-104164381D01*
X100830003Y-104185000D01*
X100969997Y-104185000D01*
X101179349Y-104164381D01*
X101447962Y-104082898D01*
X101695518Y-103950576D01*
X101912502Y-103772502D01*
X102090576Y-103555518D01*
X102170000Y-103406927D01*
X102249424Y-103555518D01*
X102427498Y-103772502D01*
X102644482Y-103950576D01*
X102892038Y-104082898D01*
X103160651Y-104164381D01*
X103370003Y-104185000D01*
X103509997Y-104185000D01*
X103719349Y-104164381D01*
X103987962Y-104082898D01*
X104235518Y-103950576D01*
X104452502Y-103772502D01*
X104630576Y-103555518D01*
X104710000Y-103406927D01*
X104789424Y-103555518D01*
X104967498Y-103772502D01*
X105184482Y-103950576D01*
X105432038Y-104082898D01*
X105700651Y-104164381D01*
X105910003Y-104185000D01*
X106049997Y-104185000D01*
X106259349Y-104164381D01*
X106527962Y-104082898D01*
X106775518Y-103950576D01*
X106992502Y-103772502D01*
X107170576Y-103555518D01*
X107250000Y-103406927D01*
X107329424Y-103555518D01*
X107507498Y-103772502D01*
X107724482Y-103950576D01*
X107972038Y-104082898D01*
X108240651Y-104164381D01*
X108450003Y-104185000D01*
X108589997Y-104185000D01*
X108799349Y-104164381D01*
X109067962Y-104082898D01*
X109315518Y-103950576D01*
X109532502Y-103772502D01*
X109710576Y-103555518D01*
X109790000Y-103406927D01*
X109869424Y-103555518D01*
X110047498Y-103772502D01*
X110264482Y-103950576D01*
X110512038Y-104082898D01*
X110780651Y-104164381D01*
X110990003Y-104185000D01*
X111129997Y-104185000D01*
X111339349Y-104164381D01*
X111607962Y-104082898D01*
X111855518Y-103950576D01*
X112072502Y-103772502D01*
X112250576Y-103555518D01*
X112382898Y-103307962D01*
X112464381Y-103039349D01*
X112491894Y-102760000D01*
X112464381Y-102480651D01*
X112382898Y-102212038D01*
X112250576Y-101964482D01*
X112072502Y-101747498D01*
X111855518Y-101569424D01*
X111607962Y-101437102D01*
X111410296Y-101377140D01*
X112645766Y-100141671D01*
X112753830Y-100303400D01*
X112896600Y-100446170D01*
X113064480Y-100558344D01*
X113251018Y-100635610D01*
X113449046Y-100675000D01*
X113650954Y-100675000D01*
X113848982Y-100635610D01*
X114035520Y-100558344D01*
X114203400Y-100446170D01*
X114346170Y-100303400D01*
X114458344Y-100135520D01*
X114535610Y-99948982D01*
X114542004Y-99916835D01*
X114698982Y-99885610D01*
X114885520Y-99808344D01*
X115053400Y-99696170D01*
X115196170Y-99553400D01*
X115308344Y-99385520D01*
X115385610Y-99198982D01*
X115425000Y-99000954D01*
X115425000Y-98799046D01*
X115385610Y-98601018D01*
X115308344Y-98414480D01*
X115196170Y-98246600D01*
X115150000Y-98200430D01*
X115150000Y-86760659D01*
X115535660Y-86375000D01*
X115600954Y-86375000D01*
X115798982Y-86335610D01*
X115985520Y-86258344D01*
X116153400Y-86146170D01*
X116296170Y-86003400D01*
X116408344Y-85835520D01*
X116485610Y-85648982D01*
X116525000Y-85450954D01*
X116525000Y-85249046D01*
X116485610Y-85051018D01*
X116408344Y-84864480D01*
X116296170Y-84696600D01*
X116153400Y-84553830D01*
X115985520Y-84441656D01*
X115798982Y-84364390D01*
X115600954Y-84325000D01*
X115399046Y-84325000D01*
X115201018Y-84364390D01*
X115014480Y-84441656D01*
X114846600Y-84553830D01*
X114703830Y-84696600D01*
X114591656Y-84864480D01*
X114514390Y-85051018D01*
X114475000Y-85249046D01*
X114475000Y-85314340D01*
X114300000Y-85489341D01*
X114300000Y-83699570D01*
X114346170Y-83653400D01*
X114458344Y-83485520D01*
X114535610Y-83298982D01*
X114575000Y-83100954D01*
X114575000Y-82899046D01*
X114535610Y-82701018D01*
X114458344Y-82514480D01*
X114346170Y-82346600D01*
X114203400Y-82203830D01*
X114035520Y-82091656D01*
X113848982Y-82014390D01*
X113650954Y-81975000D01*
X113449046Y-81975000D01*
X113251018Y-82014390D01*
X113064480Y-82091656D01*
X112896600Y-82203830D01*
X112753830Y-82346600D01*
X112641656Y-82514480D01*
X112564390Y-82701018D01*
X112525000Y-82899046D01*
X112525000Y-83100954D01*
X112564390Y-83298982D01*
X112641656Y-83485520D01*
X112753830Y-83653400D01*
X112800001Y-83699571D01*
X112800000Y-87636834D01*
X112800001Y-87636844D01*
X112800000Y-95834756D01*
X112750954Y-95825000D01*
X112549046Y-95825000D01*
X112351018Y-95864390D01*
X112164480Y-95941656D01*
X111996600Y-96053830D01*
X111853830Y-96196600D01*
X111741656Y-96364480D01*
X111664390Y-96551018D01*
X111625000Y-96749046D01*
X111625000Y-96950954D01*
X111664390Y-97148982D01*
X111741656Y-97335520D01*
X111775001Y-97385424D01*
X111775000Y-98537563D01*
X109837564Y-100475000D01*
X106324570Y-100475000D01*
X106446170Y-100353400D01*
X106558344Y-100185520D01*
X106635610Y-99998982D01*
X106675000Y-99800954D01*
X106675000Y-99599046D01*
X106635610Y-99401018D01*
X106558344Y-99214480D01*
X106446170Y-99046600D01*
X106400000Y-99000430D01*
X106400000Y-86486827D01*
X106403627Y-86450000D01*
X106400000Y-86413172D01*
X106400000Y-86413165D01*
X106389147Y-86302974D01*
X106346261Y-86161599D01*
X106276619Y-86031307D01*
X106220696Y-85963165D01*
X106206376Y-85945716D01*
X106206374Y-85945714D01*
X106182895Y-85917105D01*
X106154286Y-85893626D01*
X105659706Y-85399046D01*
X110575000Y-85399046D01*
X110575000Y-85600954D01*
X110614390Y-85798982D01*
X110691656Y-85985520D01*
X110803830Y-86153400D01*
X110850000Y-86199570D01*
X110850001Y-92100429D01*
X110803830Y-92146600D01*
X110691656Y-92314480D01*
X110614390Y-92501018D01*
X110575000Y-92699046D01*
X110575000Y-92900954D01*
X110614390Y-93098982D01*
X110691656Y-93285520D01*
X110803830Y-93453400D01*
X110946600Y-93596170D01*
X111114480Y-93708344D01*
X111301018Y-93785610D01*
X111499046Y-93825000D01*
X111700954Y-93825000D01*
X111898982Y-93785610D01*
X112085520Y-93708344D01*
X112253400Y-93596170D01*
X112396170Y-93453400D01*
X112508344Y-93285520D01*
X112585610Y-93098982D01*
X112625000Y-92900954D01*
X112625000Y-92699046D01*
X112585610Y-92501018D01*
X112508344Y-92314480D01*
X112396170Y-92146600D01*
X112350000Y-92100430D01*
X112350000Y-86199570D01*
X112396170Y-86153400D01*
X112508344Y-85985520D01*
X112585610Y-85798982D01*
X112625000Y-85600954D01*
X112625000Y-85399046D01*
X112585610Y-85201018D01*
X112508344Y-85014480D01*
X112396170Y-84846600D01*
X112253400Y-84703830D01*
X112085520Y-84591656D01*
X111898982Y-84514390D01*
X111700954Y-84475000D01*
X111499046Y-84475000D01*
X111301018Y-84514390D01*
X111114480Y-84591656D01*
X110946600Y-84703830D01*
X110803830Y-84846600D01*
X110691656Y-85014480D01*
X110614390Y-85201018D01*
X110575000Y-85399046D01*
X105659706Y-85399046D01*
X105575000Y-85314341D01*
X105575000Y-85249046D01*
X105535610Y-85051018D01*
X105458344Y-84864480D01*
X105348442Y-84700000D01*
X105458344Y-84535520D01*
X105535610Y-84348982D01*
X105575000Y-84150954D01*
X105575000Y-83949046D01*
X105535610Y-83751018D01*
X105458344Y-83564480D01*
X105346170Y-83396600D01*
X105203400Y-83253830D01*
X105035520Y-83141656D01*
X104848982Y-83064390D01*
X104650954Y-83025000D01*
X104449046Y-83025000D01*
X104251018Y-83064390D01*
X104064480Y-83141656D01*
X103896600Y-83253830D01*
X103753830Y-83396600D01*
X103641656Y-83564480D01*
X103564390Y-83751018D01*
X103525000Y-83949046D01*
X103525000Y-84014341D01*
X103295715Y-84243626D01*
X103267106Y-84267105D01*
X103243627Y-84295714D01*
X103243624Y-84295717D01*
X103219592Y-84325000D01*
X103173382Y-84381307D01*
X103141125Y-84441656D01*
X103103739Y-84511600D01*
X103060853Y-84652975D01*
X103046373Y-84800000D01*
X103050001Y-84836837D01*
X103050000Y-85963172D01*
X103046373Y-86000000D01*
X103050000Y-86036827D01*
X103050000Y-86036834D01*
X103060853Y-86147025D01*
X103103739Y-86288400D01*
X103173381Y-86418692D01*
X103267105Y-86532895D01*
X103295719Y-86556378D01*
X104150001Y-87410661D01*
X104150000Y-99700430D01*
X104103830Y-99746600D01*
X103991656Y-99914480D01*
X103914390Y-100101018D01*
X103900000Y-100173362D01*
X103900000Y-97560423D01*
X103933344Y-97510520D01*
X104010610Y-97323982D01*
X104050000Y-97125954D01*
X104050000Y-96924046D01*
X104010610Y-96726018D01*
X103933344Y-96539480D01*
X103821170Y-96371600D01*
X103678400Y-96228830D01*
X103510520Y-96116656D01*
X103323982Y-96039390D01*
X103125954Y-96000000D01*
X102924046Y-96000000D01*
X102726018Y-96039390D01*
X102539480Y-96116656D01*
X102371600Y-96228830D01*
X102228830Y-96371600D01*
X102116656Y-96539480D01*
X102039390Y-96726018D01*
X102000000Y-96924046D01*
X102000000Y-97125954D01*
X102039390Y-97323982D01*
X102116656Y-97510520D01*
X102150000Y-97560423D01*
X102150001Y-100475000D01*
X97350954Y-100475000D01*
X97548982Y-100435610D01*
X97735520Y-100358344D01*
X97903400Y-100246170D01*
X98046170Y-100103400D01*
X98158344Y-99935520D01*
X98235610Y-99748982D01*
X98275000Y-99550954D01*
X98275000Y-99349046D01*
X98235610Y-99151018D01*
X98158344Y-98964480D01*
X98046170Y-98796600D01*
X98000000Y-98750430D01*
X98000000Y-88036816D01*
X98003626Y-87999999D01*
X98000000Y-87963182D01*
X98000000Y-87963165D01*
X97989147Y-87852974D01*
X97946261Y-87711599D01*
X97876619Y-87581307D01*
X97861730Y-87563165D01*
X97806376Y-87495715D01*
X97806369Y-87495708D01*
X97782895Y-87467105D01*
X97754291Y-87443630D01*
X96059707Y-85749046D01*
X99325000Y-85749046D01*
X99325000Y-85950954D01*
X99364390Y-86148982D01*
X99441656Y-86335520D01*
X99553830Y-86503400D01*
X99600001Y-86549571D01*
X99600000Y-91850430D01*
X99553830Y-91896600D01*
X99441656Y-92064480D01*
X99364390Y-92251018D01*
X99325000Y-92449046D01*
X99325000Y-92650954D01*
X99364390Y-92848982D01*
X99441656Y-93035520D01*
X99553830Y-93203400D01*
X99696600Y-93346170D01*
X99864480Y-93458344D01*
X100051018Y-93535610D01*
X100249046Y-93575000D01*
X100450954Y-93575000D01*
X100648982Y-93535610D01*
X100835520Y-93458344D01*
X101003400Y-93346170D01*
X101146170Y-93203400D01*
X101258344Y-93035520D01*
X101335610Y-92848982D01*
X101375000Y-92650954D01*
X101375000Y-92449046D01*
X101335610Y-92251018D01*
X101258344Y-92064480D01*
X101146170Y-91896600D01*
X101100000Y-91850430D01*
X101100000Y-86549570D01*
X101146170Y-86503400D01*
X101258344Y-86335520D01*
X101335610Y-86148982D01*
X101375000Y-85950954D01*
X101375000Y-85749046D01*
X101335610Y-85551018D01*
X101258344Y-85364480D01*
X101146170Y-85196600D01*
X101003400Y-85053830D01*
X100835520Y-84941656D01*
X100648982Y-84864390D01*
X100450954Y-84825000D01*
X100249046Y-84825000D01*
X100051018Y-84864390D01*
X99864480Y-84941656D01*
X99696600Y-85053830D01*
X99553830Y-85196600D01*
X99441656Y-85364480D01*
X99364390Y-85551018D01*
X99325000Y-85749046D01*
X96059707Y-85749046D01*
X93225000Y-82914341D01*
X93225000Y-82849046D01*
X93185610Y-82651018D01*
X93108344Y-82464480D01*
X92996170Y-82296600D01*
X92853400Y-82153830D01*
X92685520Y-82041656D01*
X92498982Y-81964390D01*
X92300954Y-81925000D01*
X92099046Y-81925000D01*
X91901018Y-81964390D01*
X91714480Y-82041656D01*
X91546600Y-82153830D01*
X91403830Y-82296600D01*
X91291656Y-82464480D01*
X91214390Y-82651018D01*
X91175000Y-82849046D01*
X91175000Y-83050954D01*
X91214390Y-83248982D01*
X91291656Y-83435520D01*
X91403830Y-83603400D01*
X91546600Y-83746170D01*
X91714480Y-83858344D01*
X91901018Y-83935610D01*
X92099046Y-83975000D01*
X92164341Y-83975000D01*
X96500001Y-88310662D01*
X96500000Y-98750430D01*
X96453830Y-98796600D01*
X96341656Y-98964480D01*
X96264390Y-99151018D01*
X96225000Y-99349046D01*
X96225000Y-99550954D01*
X96264390Y-99748982D01*
X96341656Y-99935520D01*
X96453830Y-100103400D01*
X96596600Y-100246170D01*
X96764480Y-100358344D01*
X96951018Y-100435610D01*
X97149046Y-100475000D01*
X95274597Y-100475000D01*
X95435520Y-100408344D01*
X95603400Y-100296170D01*
X95746170Y-100153400D01*
X95858344Y-99985520D01*
X95935610Y-99798982D01*
X95975000Y-99600954D01*
X95975000Y-99399046D01*
X95935610Y-99201018D01*
X95858344Y-99014480D01*
X95746170Y-98846600D01*
X95700000Y-98800430D01*
X95700000Y-89536827D01*
X95703627Y-89499999D01*
X95700000Y-89463171D01*
X95700000Y-89463165D01*
X95689147Y-89352974D01*
X95646261Y-89211599D01*
X95576619Y-89081307D01*
X95544236Y-89041849D01*
X95506376Y-88995715D01*
X95506369Y-88995708D01*
X95482895Y-88967105D01*
X95454291Y-88943630D01*
X91825000Y-85314341D01*
X91825000Y-85249046D01*
X91785610Y-85051018D01*
X91708344Y-84864480D01*
X91596170Y-84696600D01*
X91453400Y-84553830D01*
X91285520Y-84441656D01*
X91098982Y-84364390D01*
X90900954Y-84325000D01*
X90699046Y-84325000D01*
X90501018Y-84364390D01*
X90314480Y-84441656D01*
X90146600Y-84553830D01*
X90003830Y-84696600D01*
X89891656Y-84864480D01*
X89854450Y-84954304D01*
X89835520Y-84941656D01*
X89648982Y-84864390D01*
X89450954Y-84825000D01*
X89249046Y-84825000D01*
X89051018Y-84864390D01*
X88864480Y-84941656D01*
X88696600Y-85053830D01*
X88553830Y-85196600D01*
X88441656Y-85364480D01*
X88364390Y-85551018D01*
X88325000Y-85749046D01*
X88325000Y-85950954D01*
X88364390Y-86148982D01*
X88441656Y-86335520D01*
X88553830Y-86503400D01*
X88600001Y-86549571D01*
X88600000Y-92100430D01*
X88553830Y-92146600D01*
X88441656Y-92314480D01*
X88364390Y-92501018D01*
X88325000Y-92699046D01*
X88325000Y-92900954D01*
X88364390Y-93098982D01*
X88441656Y-93285520D01*
X88553830Y-93453400D01*
X88696600Y-93596170D01*
X88864480Y-93708344D01*
X89051018Y-93785610D01*
X89249046Y-93825000D01*
X89450954Y-93825000D01*
X89648982Y-93785610D01*
X89835520Y-93708344D01*
X90003400Y-93596170D01*
X90146170Y-93453400D01*
X90258344Y-93285520D01*
X90335610Y-93098982D01*
X90375000Y-92900954D01*
X90375000Y-92699046D01*
X90335610Y-92501018D01*
X90258344Y-92314480D01*
X90146170Y-92146600D01*
X90100000Y-92100430D01*
X90100000Y-86549570D01*
X90146170Y-86503400D01*
X90258344Y-86335520D01*
X90295550Y-86245696D01*
X90314480Y-86258344D01*
X90501018Y-86335610D01*
X90699046Y-86375000D01*
X90764341Y-86375000D01*
X94200001Y-89810662D01*
X94200000Y-98800430D01*
X94153830Y-98846600D01*
X94041656Y-99014480D01*
X93964390Y-99201018D01*
X93925000Y-99399046D01*
X93925000Y-99600954D01*
X93964390Y-99798982D01*
X94041656Y-99985520D01*
X94153830Y-100153400D01*
X94296600Y-100296170D01*
X94464480Y-100408344D01*
X94625403Y-100475000D01*
X93525000Y-100475000D01*
X93525000Y-97692979D01*
X93529233Y-97650000D01*
X93512339Y-97478470D01*
X93462305Y-97313532D01*
X93444946Y-97281055D01*
X93381056Y-97161524D01*
X93271712Y-97028288D01*
X93238325Y-97000888D01*
X92847319Y-96609882D01*
X92835610Y-96551018D01*
X92758344Y-96364480D01*
X92646170Y-96196600D01*
X92503400Y-96053830D01*
X92335520Y-95941656D01*
X92148982Y-95864390D01*
X91950954Y-95825000D01*
X91749046Y-95825000D01*
X91551018Y-95864390D01*
X91364480Y-95941656D01*
X91196600Y-96053830D01*
X91053830Y-96196600D01*
X90941656Y-96364480D01*
X90864390Y-96551018D01*
X90825000Y-96749046D01*
X90825000Y-96950954D01*
X90864390Y-97148982D01*
X90941656Y-97335520D01*
X91053830Y-97503400D01*
X91196600Y-97646170D01*
X91364480Y-97758344D01*
X91551018Y-97835610D01*
X91609882Y-97847319D01*
X91775001Y-98012438D01*
X91775001Y-98975000D01*
X91735661Y-98975000D01*
X81950000Y-89189341D01*
X81950000Y-83749570D01*
X81996170Y-83703400D01*
X82108344Y-83535520D01*
X82185610Y-83348982D01*
X82225000Y-83150954D01*
X82225000Y-82949046D01*
X82185610Y-82751018D01*
X82108344Y-82564480D01*
X81996170Y-82396600D01*
X81853400Y-82253830D01*
X81685520Y-82141656D01*
X81498982Y-82064390D01*
X81300954Y-82025000D01*
X81099046Y-82025000D01*
X80901018Y-82064390D01*
X80714480Y-82141656D01*
X80546600Y-82253830D01*
X80403830Y-82396600D01*
X80291656Y-82564480D01*
X80214390Y-82751018D01*
X80175000Y-82949046D01*
X80175000Y-83150954D01*
X80214390Y-83348982D01*
X80291656Y-83535520D01*
X80403830Y-83703400D01*
X80450001Y-83749571D01*
X80450001Y-84600431D01*
X80403400Y-84553830D01*
X80235520Y-84441656D01*
X80048982Y-84364390D01*
X79850954Y-84325000D01*
X79649046Y-84325000D01*
X79451018Y-84364390D01*
X79264480Y-84441656D01*
X79096600Y-84553830D01*
X78953830Y-84696600D01*
X78841656Y-84864480D01*
X78826053Y-84902149D01*
X78735520Y-84841656D01*
X78548982Y-84764390D01*
X78350954Y-84725000D01*
X78149046Y-84725000D01*
X77951018Y-84764390D01*
X77764480Y-84841656D01*
X77596600Y-84953830D01*
X77453830Y-85096600D01*
X77341656Y-85264480D01*
X77315000Y-85328834D01*
X77315000Y-70421168D01*
X77351829Y-70405913D01*
X77667116Y-70195245D01*
X77935245Y-69927116D01*
X78145913Y-69611829D01*
X78291023Y-69261502D01*
X78365000Y-68889596D01*
X78365000Y-68510404D01*
X78291023Y-68138498D01*
X78275768Y-68101669D01*
X79302437Y-67075000D01*
X80487076Y-67075000D01*
X80292884Y-67204755D01*
X80024755Y-67472884D01*
X79814087Y-67788171D01*
X79668977Y-68138498D01*
X79595000Y-68510404D01*
X79595000Y-68889596D01*
X79668977Y-69261502D01*
X79814087Y-69611829D01*
X80024755Y-69927116D01*
X80292884Y-70195245D01*
X80608171Y-70405913D01*
X80958498Y-70551023D01*
X81330404Y-70625000D01*
X81709596Y-70625000D01*
X82081502Y-70551023D01*
X82431829Y-70405913D01*
X82747116Y-70195245D01*
X83015245Y-69927116D01*
X83225913Y-69611829D01*
X83371023Y-69261502D01*
X83445000Y-68889596D01*
X83445000Y-68510404D01*
X83371023Y-68138498D01*
X83225913Y-67788171D01*
X83015245Y-67472884D01*
X82747116Y-67204755D01*
X82552924Y-67075000D01*
X85567076Y-67075000D01*
X85372884Y-67204755D01*
X85104755Y-67472884D01*
X84894087Y-67788171D01*
X84748977Y-68138498D01*
X84675000Y-68510404D01*
X84675000Y-68889596D01*
X84748977Y-69261502D01*
X84894087Y-69611829D01*
X85104755Y-69927116D01*
X85372884Y-70195245D01*
X85688171Y-70405913D01*
X86038498Y-70551023D01*
X86410404Y-70625000D01*
X86789596Y-70625000D01*
X87161502Y-70551023D01*
X87511829Y-70405913D01*
X87827116Y-70195245D01*
X87979802Y-70042559D01*
X90514218Y-70042559D01*
X90646542Y-70335095D01*
X90985391Y-70505295D01*
X91350934Y-70606118D01*
X91729122Y-70633690D01*
X92105422Y-70586951D01*
X92465374Y-70467698D01*
X92713458Y-70335095D01*
X92845782Y-70042559D01*
X91680000Y-68876777D01*
X90514218Y-70042559D01*
X87979802Y-70042559D01*
X88095245Y-69927116D01*
X88305913Y-69611829D01*
X88451023Y-69261502D01*
X88525000Y-68889596D01*
X88525000Y-68749122D01*
X89746310Y-68749122D01*
X89793049Y-69125422D01*
X89912302Y-69485374D01*
X90044905Y-69733458D01*
X90337441Y-69865782D01*
X91503223Y-68700000D01*
X91856777Y-68700000D01*
X93022559Y-69865782D01*
X93315095Y-69733458D01*
X93485295Y-69394609D01*
X93586118Y-69029066D01*
X93613690Y-68650878D01*
X93566951Y-68274578D01*
X93447698Y-67914626D01*
X93315095Y-67666542D01*
X93022559Y-67534218D01*
X91856777Y-68700000D01*
X91503223Y-68700000D01*
X90337441Y-67534218D01*
X90044905Y-67666542D01*
X89874705Y-68005391D01*
X89773882Y-68370934D01*
X89746310Y-68749122D01*
X88525000Y-68749122D01*
X88525000Y-68510404D01*
X88451023Y-68138498D01*
X88305913Y-67788171D01*
X88095245Y-67472884D01*
X87827116Y-67204755D01*
X87632924Y-67075000D01*
X90641976Y-67075000D01*
X90514218Y-67357441D01*
X91680000Y-68523223D01*
X92845782Y-67357441D01*
X92718024Y-67075000D01*
X93897564Y-67075000D01*
X94924232Y-68101669D01*
X94908977Y-68138498D01*
X94835000Y-68510404D01*
X94835000Y-68889596D01*
X94908977Y-69261502D01*
X95054087Y-69611829D01*
X95264755Y-69927116D01*
X95532884Y-70195245D01*
X95848171Y-70405913D01*
X96198498Y-70551023D01*
X96570404Y-70625000D01*
X96949596Y-70625000D01*
X97321502Y-70551023D01*
X97671829Y-70405913D01*
X97987116Y-70195245D01*
X98255245Y-69927116D01*
X98465913Y-69611829D01*
X98611023Y-69261502D01*
X98685000Y-68889596D01*
X98685000Y-68510404D01*
X99915000Y-68510404D01*
X99915000Y-68889596D01*
X99988977Y-69261502D01*
X100134087Y-69611829D01*
X100344755Y-69927116D01*
X100612884Y-70195245D01*
X100928171Y-70405913D01*
X101278498Y-70551023D01*
X101650404Y-70625000D01*
X102029596Y-70625000D01*
X102401502Y-70551023D01*
X102751829Y-70405913D01*
X103067116Y-70195245D01*
X103335245Y-69927116D01*
X103545913Y-69611829D01*
X103691023Y-69261502D01*
X103765000Y-68889596D01*
X103765000Y-68510404D01*
X104995000Y-68510404D01*
X104995000Y-68889596D01*
X105068977Y-69261502D01*
X105214087Y-69611829D01*
X105424755Y-69927116D01*
X105692884Y-70195245D01*
X106008171Y-70405913D01*
X106358498Y-70551023D01*
X106730404Y-70625000D01*
X107109596Y-70625000D01*
X107481502Y-70551023D01*
X107831829Y-70405913D01*
X108147116Y-70195245D01*
X108342361Y-70000000D01*
X110071976Y-70000000D01*
X110084043Y-70122521D01*
X110119781Y-70240334D01*
X110177817Y-70348911D01*
X110255920Y-70444080D01*
X110351089Y-70522183D01*
X110459666Y-70580219D01*
X110577479Y-70615957D01*
X110700000Y-70628024D01*
X111718750Y-70625000D01*
X111875000Y-70468750D01*
X111875000Y-68825000D01*
X112125000Y-68825000D01*
X112125000Y-70468750D01*
X112281250Y-70625000D01*
X113300000Y-70628024D01*
X113422521Y-70615957D01*
X113540334Y-70580219D01*
X113648911Y-70522183D01*
X113744080Y-70444080D01*
X113822183Y-70348911D01*
X113880219Y-70240334D01*
X113915957Y-70122521D01*
X113928024Y-70000000D01*
X113925000Y-68981250D01*
X113768750Y-68825000D01*
X112125000Y-68825000D01*
X111875000Y-68825000D01*
X110231250Y-68825000D01*
X110075000Y-68981250D01*
X110071976Y-70000000D01*
X108342361Y-70000000D01*
X108415245Y-69927116D01*
X108625913Y-69611829D01*
X108771023Y-69261502D01*
X108845000Y-68889596D01*
X108845000Y-68510404D01*
X108771023Y-68138498D01*
X108625913Y-67788171D01*
X108415245Y-67472884D01*
X108342361Y-67400000D01*
X110071976Y-67400000D01*
X110075000Y-68418750D01*
X110231250Y-68575000D01*
X111875000Y-68575000D01*
X111875000Y-66931250D01*
X112125000Y-66931250D01*
X112125000Y-68575000D01*
X113768750Y-68575000D01*
X113925000Y-68418750D01*
X113928024Y-67400000D01*
X113915957Y-67277479D01*
X113880219Y-67159666D01*
X113822183Y-67051089D01*
X113744080Y-66955920D01*
X113648911Y-66877817D01*
X113540334Y-66819781D01*
X113422521Y-66784043D01*
X113300000Y-66771976D01*
X112281250Y-66775000D01*
X112125000Y-66931250D01*
X111875000Y-66931250D01*
X111718750Y-66775000D01*
X110700000Y-66771976D01*
X110577479Y-66784043D01*
X110459666Y-66819781D01*
X110351089Y-66877817D01*
X110255920Y-66955920D01*
X110177817Y-67051089D01*
X110119781Y-67159666D01*
X110084043Y-67277479D01*
X110071976Y-67400000D01*
X108342361Y-67400000D01*
X108147116Y-67204755D01*
X107831829Y-66994087D01*
X107481502Y-66848977D01*
X107109596Y-66775000D01*
X106730404Y-66775000D01*
X106358498Y-66848977D01*
X106008171Y-66994087D01*
X105692884Y-67204755D01*
X105424755Y-67472884D01*
X105214087Y-67788171D01*
X105068977Y-68138498D01*
X104995000Y-68510404D01*
X103765000Y-68510404D01*
X103691023Y-68138498D01*
X103545913Y-67788171D01*
X103335245Y-67472884D01*
X103067116Y-67204755D01*
X102751829Y-66994087D01*
X102401502Y-66848977D01*
X102029596Y-66775000D01*
X101650404Y-66775000D01*
X101278498Y-66848977D01*
X100928171Y-66994087D01*
X100612884Y-67204755D01*
X100344755Y-67472884D01*
X100134087Y-67788171D01*
X99988977Y-68138498D01*
X99915000Y-68510404D01*
X98685000Y-68510404D01*
X98611023Y-68138498D01*
X98465913Y-67788171D01*
X98255245Y-67472884D01*
X97987116Y-67204755D01*
X97671829Y-66994087D01*
X97321502Y-66848977D01*
X96949596Y-66775000D01*
X96570404Y-66775000D01*
X96198498Y-66848977D01*
X96161669Y-66864232D01*
X94909117Y-65611681D01*
X94881712Y-65578288D01*
X94748476Y-65468944D01*
X94596468Y-65387695D01*
X94431530Y-65337661D01*
X94302979Y-65325000D01*
X94260000Y-65320767D01*
X94217021Y-65325000D01*
X78982979Y-65325000D01*
X78940000Y-65320767D01*
X78897021Y-65325000D01*
X78768470Y-65337661D01*
X78603532Y-65387695D01*
X78451524Y-65468944D01*
X78318288Y-65578288D01*
X78290888Y-65611675D01*
X77038331Y-66864232D01*
X77001502Y-66848977D01*
X76629596Y-66775000D01*
X76250404Y-66775000D01*
X75878498Y-66848977D01*
X75841669Y-66864232D01*
X74589117Y-65611681D01*
X74561712Y-65578288D01*
X74428476Y-65468944D01*
X74276468Y-65387695D01*
X74111530Y-65337661D01*
X73982979Y-65325000D01*
X73940000Y-65320767D01*
X73897021Y-65325000D01*
X58662979Y-65325000D01*
X58620000Y-65320767D01*
X58577021Y-65325000D01*
X58448470Y-65337661D01*
X58283532Y-65387695D01*
X58131524Y-65468944D01*
X57998288Y-65578288D01*
X57970888Y-65611675D01*
X56718331Y-66864232D01*
X56681502Y-66848977D01*
X56309596Y-66775000D01*
X55930404Y-66775000D01*
X55558498Y-66848977D01*
X55208171Y-66994087D01*
X54892884Y-67204755D01*
X54624755Y-67472884D01*
X54414087Y-67788171D01*
X54268977Y-68138498D01*
X54195000Y-68510404D01*
X50675000Y-68510404D01*
X50675000Y-63675000D01*
X117325001Y-63675000D01*
X117325000Y-126148224D01*
X117325000Y-126148224D01*
G37*
X117325000Y-126148224D02*
X115588388Y-124411612D01*
X115569446Y-124396066D01*
X115547835Y-124384515D01*
X115524386Y-124377402D01*
X115500000Y-124375000D01*
X112500000Y-124375000D01*
X112475614Y-124377402D01*
X112452165Y-124384515D01*
X112430554Y-124396066D01*
X112411612Y-124411612D01*
X112072362Y-124750862D01*
X112063525Y-124755798D01*
X112056108Y-124761028D01*
X112006213Y-124796731D01*
X111987132Y-124806930D01*
X111912960Y-124867801D01*
X110912962Y-125867800D01*
X110888157Y-125888157D01*
X110863071Y-125918725D01*
X110806930Y-125987132D01*
X110783975Y-126030078D01*
X110773445Y-126049779D01*
X110411612Y-126411612D01*
X110396066Y-126430554D01*
X110384515Y-126452165D01*
X110377402Y-126475614D01*
X110375000Y-126500000D01*
X110375000Y-129500000D01*
X110377402Y-129524386D01*
X110384515Y-129547835D01*
X110396066Y-129569446D01*
X110411612Y-129588388D01*
X110699438Y-129876214D01*
X110700001Y-129881932D01*
X110705092Y-129933624D01*
X110709406Y-129977422D01*
X110746573Y-130099947D01*
X110806930Y-130212868D01*
X110867802Y-130287040D01*
X110867805Y-130287043D01*
X110888158Y-130311843D01*
X110912957Y-130332195D01*
X111912960Y-131332199D01*
X111914721Y-131333644D01*
X111949219Y-131367664D01*
X111988913Y-131399808D01*
X112027370Y-131433458D01*
X112034788Y-131438687D01*
X112119982Y-131497867D01*
X112171359Y-131526564D01*
X112222438Y-131556038D01*
X112230730Y-131559727D01*
X112325796Y-131601233D01*
X112381840Y-131619428D01*
X112437607Y-131638397D01*
X112446445Y-131640402D01*
X112446454Y-131640405D01*
X112446463Y-131640406D01*
X112547775Y-131662655D01*
X112606248Y-131669613D01*
X112664672Y-131677394D01*
X112673744Y-131677645D01*
X112777453Y-131679792D01*
X112836207Y-131675257D01*
X112894988Y-131671544D01*
X112903924Y-131670030D01*
X112903935Y-131670029D01*
X112903945Y-131670026D01*
X113006087Y-131651990D01*
X113062789Y-131636144D01*
X113104924Y-131625000D01*
X115500000Y-131625000D01*
X115524386Y-131622598D01*
X115547835Y-131615485D01*
X115569446Y-131603934D01*
X115588388Y-131588388D01*
X117325000Y-129851776D01*
X117325000Y-149325000D01*
X50675000Y-149325000D01*
X50675000Y-145600000D01*
X54171976Y-145600000D01*
X54184043Y-145722521D01*
X54219781Y-145840334D01*
X54277817Y-145948911D01*
X54355920Y-146044080D01*
X54451089Y-146122183D01*
X54559666Y-146180219D01*
X54677479Y-146215957D01*
X54800000Y-146228024D01*
X55818750Y-146225000D01*
X55975000Y-146068750D01*
X55975000Y-144425000D01*
X56225000Y-144425000D01*
X56225000Y-146068750D01*
X56381250Y-146225000D01*
X57400000Y-146228024D01*
X57522521Y-146215957D01*
X57640334Y-146180219D01*
X57748911Y-146122183D01*
X57844080Y-146044080D01*
X57922183Y-145948911D01*
X57980219Y-145840334D01*
X58015957Y-145722521D01*
X58028024Y-145600000D01*
X58025000Y-144581250D01*
X57868750Y-144425000D01*
X56225000Y-144425000D01*
X55975000Y-144425000D01*
X54331250Y-144425000D01*
X54175000Y-144581250D01*
X54171976Y-145600000D01*
X50675000Y-145600000D01*
X50675000Y-143000000D01*
X54171976Y-143000000D01*
X54175000Y-144018750D01*
X54331250Y-144175000D01*
X55975000Y-144175000D01*
X55975000Y-142531250D01*
X56225000Y-142531250D01*
X56225000Y-144175000D01*
X57868750Y-144175000D01*
X57933346Y-144110404D01*
X59255000Y-144110404D01*
X59255000Y-144489596D01*
X59328977Y-144861502D01*
X59474087Y-145211829D01*
X59684755Y-145527116D01*
X59952884Y-145795245D01*
X60268171Y-146005913D01*
X60618498Y-146151023D01*
X60990404Y-146225000D01*
X61369596Y-146225000D01*
X61741502Y-146151023D01*
X62091829Y-146005913D01*
X62407116Y-145795245D01*
X62675245Y-145527116D01*
X62885913Y-145211829D01*
X63031023Y-144861502D01*
X63105000Y-144489596D01*
X63105000Y-144110404D01*
X64335000Y-144110404D01*
X64335000Y-144489596D01*
X64408977Y-144861502D01*
X64554087Y-145211829D01*
X64764755Y-145527116D01*
X65032884Y-145795245D01*
X65348171Y-146005913D01*
X65698498Y-146151023D01*
X66070404Y-146225000D01*
X66449596Y-146225000D01*
X66821502Y-146151023D01*
X67171829Y-146005913D01*
X67487116Y-145795245D01*
X67755245Y-145527116D01*
X67965913Y-145211829D01*
X68111023Y-144861502D01*
X68185000Y-144489596D01*
X68185000Y-144110404D01*
X69415000Y-144110404D01*
X69415000Y-144489596D01*
X69488977Y-144861502D01*
X69634087Y-145211829D01*
X69844755Y-145527116D01*
X70112884Y-145795245D01*
X70428171Y-146005913D01*
X70778498Y-146151023D01*
X71150404Y-146225000D01*
X71529596Y-146225000D01*
X71901502Y-146151023D01*
X72251829Y-146005913D01*
X72567116Y-145795245D01*
X72835245Y-145527116D01*
X73045913Y-145211829D01*
X73191023Y-144861502D01*
X73265000Y-144489596D01*
X73265000Y-144110404D01*
X73191023Y-143738498D01*
X73045913Y-143388171D01*
X72835245Y-143072884D01*
X72762361Y-143000000D01*
X83164719Y-143000000D01*
X83164719Y-145600000D01*
X83205748Y-146016573D01*
X83327258Y-146417137D01*
X83524579Y-146786299D01*
X83790128Y-147109872D01*
X84113701Y-147375421D01*
X84482863Y-147572742D01*
X84883427Y-147694252D01*
X85300000Y-147735281D01*
X87900000Y-147735281D01*
X88316573Y-147694252D01*
X88717137Y-147572742D01*
X89086299Y-147375421D01*
X89409872Y-147109872D01*
X89519859Y-146975852D01*
X90057654Y-147335196D01*
X90680964Y-147593379D01*
X91342667Y-147725000D01*
X92017333Y-147725000D01*
X92679036Y-147593379D01*
X93302346Y-147335196D01*
X93863310Y-146960371D01*
X94220000Y-146603681D01*
X94576690Y-146960371D01*
X95137654Y-147335196D01*
X95760964Y-147593379D01*
X96422667Y-147725000D01*
X97097333Y-147725000D01*
X97759036Y-147593379D01*
X98382346Y-147335196D01*
X98943310Y-146960371D01*
X99300000Y-146603681D01*
X99656690Y-146960371D01*
X100217654Y-147335196D01*
X100840964Y-147593379D01*
X101502667Y-147725000D01*
X102177333Y-147725000D01*
X102839036Y-147593379D01*
X103462346Y-147335196D01*
X104023310Y-146960371D01*
X104380000Y-146603681D01*
X104736690Y-146960371D01*
X105297654Y-147335196D01*
X105920964Y-147593379D01*
X106582667Y-147725000D01*
X107257333Y-147725000D01*
X107919036Y-147593379D01*
X108542346Y-147335196D01*
X109103310Y-146960371D01*
X109460000Y-146603681D01*
X109816690Y-146960371D01*
X110377654Y-147335196D01*
X111000964Y-147593379D01*
X111662667Y-147725000D01*
X112337333Y-147725000D01*
X112999036Y-147593379D01*
X113622346Y-147335196D01*
X114183310Y-146960371D01*
X114660371Y-146483310D01*
X115035196Y-145922346D01*
X115293379Y-145299036D01*
X115425000Y-144637333D01*
X115425000Y-143962667D01*
X115293379Y-143300964D01*
X115035196Y-142677654D01*
X114660371Y-142116690D01*
X114183310Y-141639629D01*
X113622346Y-141264804D01*
X112999036Y-141006621D01*
X112337333Y-140875000D01*
X111662667Y-140875000D01*
X111000964Y-141006621D01*
X110377654Y-141264804D01*
X109816690Y-141639629D01*
X109460000Y-141996319D01*
X109103310Y-141639629D01*
X108542346Y-141264804D01*
X107919036Y-141006621D01*
X107257333Y-140875000D01*
X106582667Y-140875000D01*
X105920964Y-141006621D01*
X105297654Y-141264804D01*
X104736690Y-141639629D01*
X104380000Y-141996319D01*
X104023310Y-141639629D01*
X103462346Y-141264804D01*
X102839036Y-141006621D01*
X102177333Y-140875000D01*
X101502667Y-140875000D01*
X100840964Y-141006621D01*
X100217654Y-141264804D01*
X99656690Y-141639629D01*
X99300000Y-141996319D01*
X98943310Y-141639629D01*
X98382346Y-141264804D01*
X97759036Y-141006621D01*
X97097333Y-140875000D01*
X96422667Y-140875000D01*
X95760964Y-141006621D01*
X95137654Y-141264804D01*
X94576690Y-141639629D01*
X94220000Y-141996319D01*
X93863310Y-141639629D01*
X93302346Y-141264804D01*
X92679036Y-141006621D01*
X92017333Y-140875000D01*
X91342667Y-140875000D01*
X90680964Y-141006621D01*
X90057654Y-141264804D01*
X89519859Y-141624148D01*
X89409872Y-141490128D01*
X89086299Y-141224579D01*
X88717137Y-141027258D01*
X88316573Y-140905748D01*
X87900000Y-140864719D01*
X85300000Y-140864719D01*
X84883427Y-140905748D01*
X84482863Y-141027258D01*
X84113701Y-141224579D01*
X83790128Y-141490128D01*
X83524579Y-141813701D01*
X83327258Y-142182863D01*
X83205748Y-142583427D01*
X83164719Y-143000000D01*
X72762361Y-143000000D01*
X72567116Y-142804755D01*
X72251829Y-142594087D01*
X71901502Y-142448977D01*
X71529596Y-142375000D01*
X71150404Y-142375000D01*
X70778498Y-142448977D01*
X70428171Y-142594087D01*
X70112884Y-142804755D01*
X69844755Y-143072884D01*
X69634087Y-143388171D01*
X69488977Y-143738498D01*
X69415000Y-144110404D01*
X68185000Y-144110404D01*
X68111023Y-143738498D01*
X67965913Y-143388171D01*
X67755245Y-143072884D01*
X67487116Y-142804755D01*
X67171829Y-142594087D01*
X66821502Y-142448977D01*
X66449596Y-142375000D01*
X66070404Y-142375000D01*
X65698498Y-142448977D01*
X65348171Y-142594087D01*
X65032884Y-142804755D01*
X64764755Y-143072884D01*
X64554087Y-143388171D01*
X64408977Y-143738498D01*
X64335000Y-144110404D01*
X63105000Y-144110404D01*
X63031023Y-143738498D01*
X62885913Y-143388171D01*
X62675245Y-143072884D01*
X62407116Y-142804755D01*
X62091829Y-142594087D01*
X61741502Y-142448977D01*
X61369596Y-142375000D01*
X60990404Y-142375000D01*
X60618498Y-142448977D01*
X60268171Y-142594087D01*
X59952884Y-142804755D01*
X59684755Y-143072884D01*
X59474087Y-143388171D01*
X59328977Y-143738498D01*
X59255000Y-144110404D01*
X57933346Y-144110404D01*
X58025000Y-144018750D01*
X58028024Y-143000000D01*
X58015957Y-142877479D01*
X57980219Y-142759666D01*
X57922183Y-142651089D01*
X57844080Y-142555920D01*
X57748911Y-142477817D01*
X57640334Y-142419781D01*
X57522521Y-142384043D01*
X57400000Y-142371976D01*
X56381250Y-142375000D01*
X56225000Y-142531250D01*
X55975000Y-142531250D01*
X55818750Y-142375000D01*
X54800000Y-142371976D01*
X54677479Y-142384043D01*
X54559666Y-142419781D01*
X54451089Y-142477817D01*
X54355920Y-142555920D01*
X54277817Y-142651089D01*
X54219781Y-142759666D01*
X54184043Y-142877479D01*
X54171976Y-143000000D01*
X50675000Y-143000000D01*
X50675000Y-134486065D01*
X52690712Y-134486065D01*
X52762693Y-134727479D01*
X53016330Y-134847735D01*
X53288553Y-134916198D01*
X53568903Y-134930237D01*
X53846604Y-134889314D01*
X54110986Y-134795000D01*
X54237307Y-134727479D01*
X54309288Y-134486065D01*
X53500000Y-133676777D01*
X52690712Y-134486065D01*
X50675000Y-134486065D01*
X50675000Y-133568903D01*
X52069763Y-133568903D01*
X52110686Y-133846604D01*
X52205000Y-134110986D01*
X52272521Y-134237307D01*
X52513935Y-134309288D01*
X53323223Y-133500000D01*
X53676777Y-133500000D01*
X54486065Y-134309288D01*
X54571976Y-134283672D01*
X54571976Y-134300000D01*
X54584043Y-134422521D01*
X54619781Y-134540334D01*
X54677817Y-134648911D01*
X54755920Y-134744080D01*
X54851089Y-134822183D01*
X54959666Y-134880219D01*
X55077479Y-134915957D01*
X55200000Y-134928024D01*
X56800000Y-134928024D01*
X56922521Y-134915957D01*
X57040334Y-134880219D01*
X57148911Y-134822183D01*
X57244080Y-134744080D01*
X57322183Y-134648911D01*
X57380219Y-134540334D01*
X57415957Y-134422521D01*
X57428024Y-134300000D01*
X57428024Y-132700000D01*
X57415957Y-132577479D01*
X57392455Y-132500000D01*
X75175000Y-132500000D01*
X75175000Y-135500000D01*
X75177402Y-135524386D01*
X75184515Y-135547835D01*
X75196066Y-135569446D01*
X75211612Y-135588388D01*
X77211612Y-137588388D01*
X77230554Y-137603934D01*
X77252165Y-137615485D01*
X77275614Y-137622598D01*
X77300000Y-137625000D01*
X80300000Y-137625000D01*
X80324386Y-137622598D01*
X80347835Y-137615485D01*
X80369446Y-137603934D01*
X80388388Y-137588388D01*
X82388388Y-135588388D01*
X82403934Y-135569446D01*
X82415485Y-135547835D01*
X82422598Y-135524386D01*
X82425000Y-135500000D01*
X82425000Y-132500000D01*
X82422598Y-132475614D01*
X82415485Y-132452165D01*
X82403934Y-132430554D01*
X82388388Y-132411612D01*
X80388388Y-130411612D01*
X80369446Y-130396066D01*
X80347835Y-130384515D01*
X80324386Y-130377402D01*
X80300000Y-130375000D01*
X77300000Y-130375000D01*
X77275614Y-130377402D01*
X77252165Y-130384515D01*
X77230554Y-130396066D01*
X77211612Y-130411612D01*
X75211612Y-132411612D01*
X75196066Y-132430554D01*
X75184515Y-132452165D01*
X75177402Y-132475614D01*
X75175000Y-132500000D01*
X57392455Y-132500000D01*
X57380219Y-132459666D01*
X57322183Y-132351089D01*
X57244080Y-132255920D01*
X57148911Y-132177817D01*
X57040334Y-132119781D01*
X56922521Y-132084043D01*
X56800000Y-132071976D01*
X55200000Y-132071976D01*
X55077479Y-132084043D01*
X54959666Y-132119781D01*
X54851089Y-132177817D01*
X54755920Y-132255920D01*
X54677817Y-132351089D01*
X54619781Y-132459666D01*
X54584043Y-132577479D01*
X54571976Y-132700000D01*
X54571976Y-132716328D01*
X54486065Y-132690712D01*
X53676777Y-133500000D01*
X53323223Y-133500000D01*
X52513935Y-132690712D01*
X52272521Y-132762693D01*
X52152265Y-133016330D01*
X52083802Y-133288553D01*
X52069763Y-133568903D01*
X50675000Y-133568903D01*
X50675000Y-132513935D01*
X52690712Y-132513935D01*
X53500000Y-133323223D01*
X54309288Y-132513935D01*
X54237307Y-132272521D01*
X53983670Y-132152265D01*
X53711447Y-132083802D01*
X53431097Y-132069763D01*
X53153396Y-132110686D01*
X52889014Y-132205000D01*
X52762693Y-132272521D01*
X52690712Y-132513935D01*
X50675000Y-132513935D01*
X50675000Y-131486065D01*
X70190712Y-131486065D01*
X70262693Y-131727479D01*
X70516330Y-131847735D01*
X70788553Y-131916198D01*
X71068903Y-131930237D01*
X71346604Y-131889314D01*
X71610986Y-131795000D01*
X71737307Y-131727479D01*
X71809288Y-131486065D01*
X71000000Y-130676777D01*
X70190712Y-131486065D01*
X50675000Y-131486065D01*
X50675000Y-130568903D01*
X69569763Y-130568903D01*
X69610686Y-130846604D01*
X69705000Y-131110986D01*
X69772521Y-131237307D01*
X70013935Y-131309288D01*
X70823223Y-130500000D01*
X71176777Y-130500000D01*
X71986065Y-131309288D01*
X72227479Y-131237307D01*
X72347735Y-130983670D01*
X72416198Y-130711447D01*
X72430237Y-130431097D01*
X72389314Y-130153396D01*
X72295000Y-129889014D01*
X72227479Y-129762693D01*
X71986065Y-129690712D01*
X71176777Y-130500000D01*
X70823223Y-130500000D01*
X70013935Y-129690712D01*
X69772521Y-129762693D01*
X69652265Y-130016330D01*
X69583802Y-130288553D01*
X69569763Y-130568903D01*
X50675000Y-130568903D01*
X50675000Y-124547500D01*
X55371976Y-124547500D01*
X55371976Y-126452500D01*
X55384043Y-126575021D01*
X55419781Y-126692834D01*
X55477817Y-126801411D01*
X55555920Y-126896580D01*
X55651089Y-126974683D01*
X55759666Y-127032719D01*
X55877479Y-127068457D01*
X56000000Y-127080524D01*
X58000000Y-127080524D01*
X58122521Y-127068457D01*
X58240334Y-127032719D01*
X58348911Y-126974683D01*
X58444080Y-126896580D01*
X58522183Y-126801411D01*
X58580219Y-126692834D01*
X58615957Y-126575021D01*
X58628024Y-126452500D01*
X58628024Y-125486065D01*
X70190712Y-125486065D01*
X70262693Y-125727479D01*
X70516330Y-125847735D01*
X70788553Y-125916198D01*
X71068903Y-125930237D01*
X71346604Y-125889314D01*
X71610986Y-125795000D01*
X71737307Y-125727479D01*
X71809288Y-125486065D01*
X71000000Y-124676777D01*
X70190712Y-125486065D01*
X58628024Y-125486065D01*
X58628024Y-124547500D01*
X58615957Y-124424979D01*
X58580219Y-124307166D01*
X58522183Y-124198589D01*
X58444080Y-124103420D01*
X58348911Y-124025317D01*
X58240334Y-123967281D01*
X58122521Y-123931543D01*
X58000000Y-123919476D01*
X56000000Y-123919476D01*
X55877479Y-123931543D01*
X55759666Y-123967281D01*
X55651089Y-124025317D01*
X55555920Y-124103420D01*
X55477817Y-124198589D01*
X55419781Y-124307166D01*
X55384043Y-124424979D01*
X55371976Y-124547500D01*
X50675000Y-124547500D01*
X50675000Y-120420000D01*
X55367368Y-120420000D01*
X55397826Y-120729244D01*
X55488029Y-121026604D01*
X55634511Y-121300652D01*
X55831642Y-121540858D01*
X56071848Y-121737989D01*
X56345896Y-121884471D01*
X56643256Y-121974674D01*
X56875011Y-121997500D01*
X57124989Y-121997500D01*
X57356744Y-121974674D01*
X57654104Y-121884471D01*
X57928152Y-121737989D01*
X58168358Y-121540858D01*
X58365489Y-121300652D01*
X58511971Y-121026604D01*
X58602174Y-120729244D01*
X58632632Y-120420000D01*
X58602174Y-120110756D01*
X58511971Y-119813396D01*
X58365489Y-119539348D01*
X58168358Y-119299142D01*
X57928152Y-119102011D01*
X57654104Y-118955529D01*
X57356744Y-118865326D01*
X57124989Y-118842500D01*
X56875011Y-118842500D01*
X56643256Y-118865326D01*
X56345896Y-118955529D01*
X56071848Y-119102011D01*
X55831642Y-119299142D01*
X55634511Y-119539348D01*
X55488029Y-119813396D01*
X55397826Y-120110756D01*
X55367368Y-120420000D01*
X50675000Y-120420000D01*
X50675000Y-117899046D01*
X62125000Y-117899046D01*
X62125000Y-118100954D01*
X62164390Y-118298982D01*
X62241656Y-118485520D01*
X62275001Y-118535424D01*
X62275000Y-123864577D01*
X62241656Y-123914480D01*
X62164390Y-124101018D01*
X62125000Y-124299046D01*
X62125000Y-124500954D01*
X62164390Y-124698982D01*
X62241656Y-124885520D01*
X62353830Y-125053400D01*
X62496600Y-125196170D01*
X62664480Y-125308344D01*
X62851018Y-125385610D01*
X63049046Y-125425000D01*
X63250954Y-125425000D01*
X63448982Y-125385610D01*
X63635520Y-125308344D01*
X63803400Y-125196170D01*
X63946170Y-125053400D01*
X64058344Y-124885520D01*
X64135610Y-124698982D01*
X64161484Y-124568903D01*
X69569763Y-124568903D01*
X69610686Y-124846604D01*
X69705000Y-125110986D01*
X69772521Y-125237307D01*
X70013935Y-125309288D01*
X70823223Y-124500000D01*
X70013935Y-123690712D01*
X69772521Y-123762693D01*
X69652265Y-124016330D01*
X69583802Y-124288553D01*
X69569763Y-124568903D01*
X64161484Y-124568903D01*
X64175000Y-124500954D01*
X64175000Y-124299046D01*
X64135610Y-124101018D01*
X64058344Y-123914480D01*
X64025000Y-123864577D01*
X64025000Y-121200000D01*
X69571976Y-121200000D01*
X69571976Y-122800000D01*
X69584043Y-122922521D01*
X69619781Y-123040334D01*
X69677817Y-123148911D01*
X69755920Y-123244080D01*
X69851089Y-123322183D01*
X69959666Y-123380219D01*
X70077479Y-123415957D01*
X70200000Y-123428024D01*
X70216328Y-123428024D01*
X70190712Y-123513935D01*
X71000000Y-124323223D01*
X71014142Y-124309081D01*
X71190919Y-124485858D01*
X71176777Y-124500000D01*
X71986065Y-125309288D01*
X72227479Y-125237307D01*
X72347735Y-124983670D01*
X72416198Y-124711447D01*
X72418955Y-124656391D01*
X74934491Y-127171928D01*
X74821530Y-127137661D01*
X74692979Y-127125000D01*
X74650000Y-127120767D01*
X74607021Y-127125000D01*
X72420637Y-127125000D01*
X72415957Y-127077479D01*
X72380219Y-126959666D01*
X72322183Y-126851089D01*
X72244080Y-126755920D01*
X72148911Y-126677817D01*
X72040334Y-126619781D01*
X71922521Y-126584043D01*
X71800000Y-126571976D01*
X70200000Y-126571976D01*
X70077479Y-126584043D01*
X69959666Y-126619781D01*
X69851089Y-126677817D01*
X69755920Y-126755920D01*
X69677817Y-126851089D01*
X69619781Y-126959666D01*
X69584043Y-127077479D01*
X69571976Y-127200000D01*
X69571976Y-128800000D01*
X69584043Y-128922521D01*
X69619781Y-129040334D01*
X69677817Y-129148911D01*
X69755920Y-129244080D01*
X69851089Y-129322183D01*
X69959666Y-129380219D01*
X70077479Y-129415957D01*
X70200000Y-129428024D01*
X70216328Y-129428024D01*
X70190712Y-129513935D01*
X71000000Y-130323223D01*
X71809288Y-129513935D01*
X71783672Y-129428024D01*
X71800000Y-129428024D01*
X71922521Y-129415957D01*
X72040334Y-129380219D01*
X72148911Y-129322183D01*
X72244080Y-129244080D01*
X72322183Y-129148911D01*
X72380219Y-129040334D01*
X72415957Y-128922521D01*
X72420637Y-128875000D01*
X74287564Y-128875000D01*
X74950888Y-129538325D01*
X74978288Y-129571712D01*
X75111524Y-129681056D01*
X75243018Y-129751340D01*
X75263532Y-129762305D01*
X75428470Y-129812339D01*
X75600000Y-129829233D01*
X75642979Y-129825000D01*
X84087564Y-129825000D01*
X87775000Y-133512437D01*
X87775001Y-134707012D01*
X87770767Y-134750000D01*
X87787661Y-134921529D01*
X87837695Y-135086467D01*
X87875516Y-135157226D01*
X87918945Y-135238476D01*
X88028289Y-135371712D01*
X88061676Y-135399112D01*
X89400888Y-136738325D01*
X89428288Y-136771712D01*
X89561524Y-136881056D01*
X89713532Y-136962305D01*
X89878470Y-137012339D01*
X90050000Y-137029233D01*
X90092979Y-137025000D01*
X91957021Y-137025000D01*
X92000000Y-137029233D01*
X92042979Y-137025000D01*
X92171530Y-137012339D01*
X92336468Y-136962305D01*
X92488476Y-136881056D01*
X92621712Y-136771712D01*
X92649117Y-136738319D01*
X94088320Y-135299116D01*
X94121712Y-135271712D01*
X94231056Y-135138476D01*
X94312305Y-134986468D01*
X94357299Y-134838145D01*
X94362339Y-134821531D01*
X94379233Y-134650001D01*
X94375000Y-134607022D01*
X94375000Y-134262436D01*
X96184186Y-132453251D01*
X96177402Y-132475614D01*
X96175000Y-132500000D01*
X96175000Y-135500000D01*
X96177402Y-135524386D01*
X96184515Y-135547835D01*
X96196066Y-135569446D01*
X96211612Y-135588388D01*
X98211612Y-137588388D01*
X98230554Y-137603934D01*
X98252165Y-137615485D01*
X98275614Y-137622598D01*
X98300000Y-137625000D01*
X101300000Y-137625000D01*
X101324386Y-137622598D01*
X101347835Y-137615485D01*
X101369446Y-137603934D01*
X101388388Y-137588388D01*
X103388388Y-135588388D01*
X103403934Y-135569446D01*
X103415485Y-135547835D01*
X103422598Y-135524386D01*
X103425000Y-135500000D01*
X103425000Y-132500000D01*
X103422598Y-132475614D01*
X103415485Y-132452165D01*
X103403934Y-132430554D01*
X103388388Y-132411612D01*
X101388388Y-130411612D01*
X101369446Y-130396066D01*
X101347835Y-130384515D01*
X101324386Y-130377402D01*
X101300000Y-130375000D01*
X98300000Y-130375000D01*
X98275614Y-130377402D01*
X98253251Y-130384186D01*
X99762437Y-128875000D01*
X105737564Y-128875000D01*
X110252501Y-133389938D01*
X110247056Y-133403083D01*
X110175000Y-133765329D01*
X110175000Y-134134671D01*
X110247056Y-134496917D01*
X110388397Y-134838145D01*
X110593593Y-135145243D01*
X110854757Y-135406407D01*
X111161855Y-135611603D01*
X111503083Y-135752944D01*
X111865329Y-135825000D01*
X112234671Y-135825000D01*
X112596917Y-135752944D01*
X112938145Y-135611603D01*
X113245243Y-135406407D01*
X113506407Y-135145243D01*
X113711603Y-134838145D01*
X113852944Y-134496917D01*
X113925000Y-134134671D01*
X113925000Y-133765329D01*
X113852944Y-133403083D01*
X113711603Y-133061855D01*
X113506407Y-132754757D01*
X113245243Y-132493593D01*
X112938145Y-132288397D01*
X112596917Y-132147056D01*
X112234671Y-132075000D01*
X111865329Y-132075000D01*
X111503083Y-132147056D01*
X111489938Y-132152501D01*
X106749117Y-127411681D01*
X106721712Y-127378288D01*
X106588476Y-127268944D01*
X106436468Y-127187695D01*
X106271530Y-127137661D01*
X106142979Y-127125000D01*
X106100000Y-127120767D01*
X106057021Y-127125000D01*
X99442978Y-127125000D01*
X99399999Y-127120767D01*
X99228470Y-127137661D01*
X99063532Y-127187695D01*
X98911524Y-127268944D01*
X98778288Y-127378288D01*
X98750888Y-127411675D01*
X96615814Y-129546749D01*
X96622598Y-129524386D01*
X96625000Y-129500000D01*
X96625000Y-126500000D01*
X96622598Y-126475614D01*
X96615485Y-126452165D01*
X96603934Y-126430554D01*
X96588388Y-126411612D01*
X94588388Y-124411612D01*
X94569446Y-124396066D01*
X94547835Y-124384515D01*
X94524386Y-124377402D01*
X94500000Y-124375000D01*
X91500000Y-124375000D01*
X91475614Y-124377402D01*
X91452165Y-124384515D01*
X91430554Y-124396066D01*
X91411612Y-124411612D01*
X91072362Y-124750862D01*
X91063525Y-124755798D01*
X91056108Y-124761028D01*
X91006213Y-124796731D01*
X90987132Y-124806930D01*
X90912960Y-124867801D01*
X89912962Y-125867800D01*
X89888157Y-125888157D01*
X89863071Y-125918725D01*
X89806930Y-125987132D01*
X89783975Y-126030078D01*
X89773445Y-126049779D01*
X89411612Y-126411612D01*
X89396066Y-126430554D01*
X89384515Y-126452165D01*
X89377402Y-126475614D01*
X89375000Y-126500000D01*
X89375000Y-129500000D01*
X89377402Y-129524386D01*
X89384515Y-129547835D01*
X89396066Y-129569446D01*
X89411612Y-129588388D01*
X89699438Y-129876214D01*
X89700001Y-129881932D01*
X89705092Y-129933624D01*
X89709406Y-129977422D01*
X89746573Y-130099947D01*
X89806930Y-130212868D01*
X89867802Y-130287040D01*
X89867805Y-130287043D01*
X89888158Y-130311843D01*
X89912957Y-130332195D01*
X90912960Y-131332199D01*
X90914721Y-131333644D01*
X90949219Y-131367664D01*
X90988913Y-131399808D01*
X91027370Y-131433458D01*
X91034788Y-131438687D01*
X91119982Y-131497867D01*
X91171359Y-131526564D01*
X91222438Y-131556038D01*
X91230730Y-131559727D01*
X91325796Y-131601233D01*
X91381840Y-131619428D01*
X91437607Y-131638397D01*
X91446445Y-131640402D01*
X91446454Y-131640405D01*
X91446463Y-131640406D01*
X91547775Y-131662655D01*
X91606248Y-131669613D01*
X91664672Y-131677394D01*
X91673744Y-131677645D01*
X91777453Y-131679792D01*
X91836207Y-131675257D01*
X91894988Y-131671544D01*
X91903924Y-131670030D01*
X91903935Y-131670029D01*
X91903945Y-131670026D01*
X92006087Y-131651990D01*
X92062789Y-131636144D01*
X92104924Y-131625000D01*
X94500000Y-131625000D01*
X94524386Y-131622598D01*
X94546749Y-131615814D01*
X92911676Y-133250888D01*
X92878289Y-133278288D01*
X92827092Y-133340671D01*
X92711603Y-133061855D01*
X92506407Y-132754757D01*
X92245243Y-132493593D01*
X91938145Y-132288397D01*
X91596917Y-132147056D01*
X91234671Y-132075000D01*
X90865329Y-132075000D01*
X90503083Y-132147056D01*
X90489938Y-132152501D01*
X85649117Y-127311681D01*
X85621712Y-127278288D01*
X85488476Y-127168944D01*
X85336468Y-127087695D01*
X85171530Y-127037661D01*
X85042979Y-127025000D01*
X85000000Y-127020767D01*
X84957021Y-127025000D01*
X77262437Y-127025000D01*
X72428024Y-122190588D01*
X72428024Y-121200000D01*
X72415957Y-121077479D01*
X72380219Y-120959666D01*
X72322183Y-120851089D01*
X72244080Y-120755920D01*
X72148911Y-120677817D01*
X72040334Y-120619781D01*
X71922521Y-120584043D01*
X71800000Y-120571976D01*
X70200000Y-120571976D01*
X70077479Y-120584043D01*
X69959666Y-120619781D01*
X69851089Y-120677817D01*
X69755920Y-120755920D01*
X69677817Y-120851089D01*
X69619781Y-120959666D01*
X69584043Y-121077479D01*
X69571976Y-121200000D01*
X64025000Y-121200000D01*
X64025000Y-118535423D01*
X64058344Y-118485520D01*
X64135610Y-118298982D01*
X64175000Y-118100954D01*
X64175000Y-117899046D01*
X64135610Y-117701018D01*
X64058344Y-117514480D01*
X63946170Y-117346600D01*
X63803400Y-117203830D01*
X63797669Y-117200000D01*
X74071976Y-117200000D01*
X74071976Y-118800000D01*
X74084043Y-118922521D01*
X74119781Y-119040334D01*
X74177817Y-119148911D01*
X74255920Y-119244080D01*
X74351089Y-119322183D01*
X74459666Y-119380219D01*
X74577479Y-119415957D01*
X74700000Y-119428024D01*
X76152737Y-119428024D01*
X75517802Y-120062960D01*
X75516362Y-120064715D01*
X75482336Y-120099219D01*
X75450197Y-120138908D01*
X75416542Y-120177370D01*
X75411313Y-120184788D01*
X75352133Y-120269982D01*
X75350730Y-120272494D01*
X75261612Y-120361612D01*
X75246066Y-120380554D01*
X75234515Y-120402165D01*
X75227402Y-120425614D01*
X75225000Y-120450000D01*
X75225000Y-120548222D01*
X75211603Y-120587608D01*
X75209598Y-120596445D01*
X75209595Y-120596454D01*
X75209595Y-120596458D01*
X75187345Y-120697776D01*
X75180387Y-120756243D01*
X75172606Y-120814672D01*
X75172355Y-120823744D01*
X75170208Y-120927454D01*
X75174743Y-120986210D01*
X75178456Y-121044988D01*
X75179970Y-121053924D01*
X75179971Y-121053935D01*
X75179974Y-121053945D01*
X75198010Y-121156087D01*
X75213856Y-121212789D01*
X75225000Y-121254924D01*
X75225000Y-123450000D01*
X75227402Y-123474386D01*
X75234515Y-123497835D01*
X75246066Y-123519446D01*
X75261612Y-123538388D01*
X77261612Y-125538388D01*
X77280554Y-125553934D01*
X77302165Y-125565485D01*
X77325614Y-125572598D01*
X77350000Y-125575000D01*
X80350000Y-125575000D01*
X80374386Y-125572598D01*
X80397835Y-125565485D01*
X80419446Y-125553934D01*
X80438388Y-125538388D01*
X82438388Y-123538388D01*
X82453934Y-123519446D01*
X82465485Y-123497835D01*
X82472598Y-123474386D01*
X82475000Y-123450000D01*
X82475000Y-121765329D01*
X89175000Y-121765329D01*
X89175000Y-122134671D01*
X89247056Y-122496917D01*
X89388397Y-122838145D01*
X89593593Y-123145243D01*
X89854757Y-123406407D01*
X90161855Y-123611603D01*
X90503083Y-123752944D01*
X90865329Y-123825000D01*
X91234671Y-123825000D01*
X91596917Y-123752944D01*
X91938145Y-123611603D01*
X92245243Y-123406407D01*
X92506407Y-123145243D01*
X92711603Y-122838145D01*
X92852944Y-122496917D01*
X92925000Y-122134671D01*
X92925000Y-121765329D01*
X92852944Y-121403083D01*
X92711603Y-121061855D01*
X92506407Y-120754757D01*
X92245243Y-120493593D01*
X91938145Y-120288397D01*
X91596917Y-120147056D01*
X91234671Y-120075000D01*
X90865329Y-120075000D01*
X90503083Y-120147056D01*
X90161855Y-120288397D01*
X89854757Y-120493593D01*
X89593593Y-120754757D01*
X89388397Y-121061855D01*
X89247056Y-121403083D01*
X89175000Y-121765329D01*
X82475000Y-121765329D01*
X82475000Y-120450000D01*
X82472598Y-120425614D01*
X82465485Y-120402165D01*
X82453934Y-120380554D01*
X82438388Y-120361612D01*
X81305029Y-119228253D01*
X81375518Y-119190576D01*
X81592502Y-119012502D01*
X81770576Y-118795518D01*
X81852095Y-118643008D01*
X81974980Y-118848274D01*
X82162471Y-119055357D01*
X82386760Y-119221883D01*
X82639227Y-119341453D01*
X82774479Y-119382476D01*
X82995000Y-119262577D01*
X82995000Y-118125000D01*
X82975000Y-118125000D01*
X82975000Y-117875000D01*
X82995000Y-117875000D01*
X82995000Y-116737423D01*
X83245000Y-116737423D01*
X83245000Y-117875000D01*
X83265000Y-117875000D01*
X83265000Y-118125000D01*
X83245000Y-118125000D01*
X83245000Y-119262577D01*
X83465521Y-119382476D01*
X83600773Y-119341453D01*
X83853240Y-119221883D01*
X84077529Y-119055357D01*
X84265020Y-118848274D01*
X84387905Y-118643008D01*
X84469424Y-118795518D01*
X84647498Y-119012502D01*
X84864482Y-119190576D01*
X85112038Y-119322898D01*
X85380651Y-119404381D01*
X85590003Y-119425000D01*
X85729997Y-119425000D01*
X85939349Y-119404381D01*
X86207962Y-119322898D01*
X86455518Y-119190576D01*
X86672502Y-119012502D01*
X86850576Y-118795518D01*
X86930000Y-118646927D01*
X87009424Y-118795518D01*
X87187498Y-119012502D01*
X87404482Y-119190576D01*
X87652038Y-119322898D01*
X87920651Y-119404381D01*
X88130003Y-119425000D01*
X88269997Y-119425000D01*
X88479349Y-119404381D01*
X88747962Y-119322898D01*
X88995518Y-119190576D01*
X89212502Y-119012502D01*
X89390576Y-118795518D01*
X89470000Y-118646927D01*
X89549424Y-118795518D01*
X89727498Y-119012502D01*
X89944482Y-119190576D01*
X90192038Y-119322898D01*
X90460651Y-119404381D01*
X90670003Y-119425000D01*
X90809997Y-119425000D01*
X91019349Y-119404381D01*
X91287962Y-119322898D01*
X91535518Y-119190576D01*
X91752502Y-119012502D01*
X91930576Y-118795518D01*
X92010000Y-118646927D01*
X92089424Y-118795518D01*
X92267498Y-119012502D01*
X92484482Y-119190576D01*
X92732038Y-119322898D01*
X93000651Y-119404381D01*
X93210003Y-119425000D01*
X93349997Y-119425000D01*
X93559349Y-119404381D01*
X93827962Y-119322898D01*
X94075518Y-119190576D01*
X94292502Y-119012502D01*
X94470576Y-118795518D01*
X94550000Y-118646927D01*
X94629424Y-118795518D01*
X94807498Y-119012502D01*
X95024482Y-119190576D01*
X95272038Y-119322898D01*
X95540651Y-119404381D01*
X95750003Y-119425000D01*
X95889997Y-119425000D01*
X96099349Y-119404381D01*
X96367962Y-119322898D01*
X96615518Y-119190576D01*
X96832502Y-119012502D01*
X97010576Y-118795518D01*
X97090000Y-118646927D01*
X97169424Y-118795518D01*
X97347498Y-119012502D01*
X97468750Y-119112011D01*
X96517802Y-120062960D01*
X96516362Y-120064715D01*
X96482336Y-120099219D01*
X96450197Y-120138908D01*
X96416542Y-120177370D01*
X96411313Y-120184788D01*
X96352133Y-120269982D01*
X96350730Y-120272494D01*
X96261612Y-120361612D01*
X96246066Y-120380554D01*
X96234515Y-120402165D01*
X96227402Y-120425614D01*
X96225000Y-120450000D01*
X96225000Y-120548222D01*
X96211603Y-120587608D01*
X96209598Y-120596445D01*
X96209595Y-120596454D01*
X96209595Y-120596458D01*
X96187345Y-120697776D01*
X96180387Y-120756243D01*
X96172606Y-120814672D01*
X96172355Y-120823744D01*
X96170208Y-120927454D01*
X96174743Y-120986210D01*
X96178456Y-121044988D01*
X96179970Y-121053924D01*
X96179971Y-121053935D01*
X96179974Y-121053945D01*
X96198010Y-121156087D01*
X96213856Y-121212789D01*
X96225000Y-121254924D01*
X96225000Y-123450000D01*
X96227402Y-123474386D01*
X96234515Y-123497835D01*
X96246066Y-123519446D01*
X96261612Y-123538388D01*
X98261612Y-125538388D01*
X98280554Y-125553934D01*
X98302165Y-125565485D01*
X98325614Y-125572598D01*
X98350000Y-125575000D01*
X101350000Y-125575000D01*
X101374386Y-125572598D01*
X101397835Y-125565485D01*
X101419446Y-125553934D01*
X101438388Y-125538388D01*
X103438388Y-123538388D01*
X103453934Y-123519446D01*
X103465485Y-123497835D01*
X103472598Y-123474386D01*
X103475000Y-123450000D01*
X103475000Y-121765329D01*
X110175000Y-121765329D01*
X110175000Y-122134671D01*
X110247056Y-122496917D01*
X110388397Y-122838145D01*
X110593593Y-123145243D01*
X110854757Y-123406407D01*
X111161855Y-123611603D01*
X111503083Y-123752944D01*
X111865329Y-123825000D01*
X112234671Y-123825000D01*
X112596917Y-123752944D01*
X112938145Y-123611603D01*
X113245243Y-123406407D01*
X113506407Y-123145243D01*
X113711603Y-122838145D01*
X113852944Y-122496917D01*
X113925000Y-122134671D01*
X113925000Y-121765329D01*
X113852944Y-121403083D01*
X113711603Y-121061855D01*
X113506407Y-120754757D01*
X113245243Y-120493593D01*
X112938145Y-120288397D01*
X112596917Y-120147056D01*
X112234671Y-120075000D01*
X111865329Y-120075000D01*
X111503083Y-120147056D01*
X111161855Y-120288397D01*
X110854757Y-120493593D01*
X110593593Y-120754757D01*
X110388397Y-121061855D01*
X110247056Y-121403083D01*
X110175000Y-121765329D01*
X103475000Y-121765329D01*
X103475000Y-120450000D01*
X103472598Y-120425614D01*
X103465485Y-120402165D01*
X103453934Y-120380554D01*
X103438388Y-120361612D01*
X101992185Y-118915409D01*
X102090576Y-118795518D01*
X102170000Y-118646927D01*
X102249424Y-118795518D01*
X102427498Y-119012502D01*
X102644482Y-119190576D01*
X102892038Y-119322898D01*
X103160651Y-119404381D01*
X103370003Y-119425000D01*
X103509997Y-119425000D01*
X103719349Y-119404381D01*
X103987962Y-119322898D01*
X104235518Y-119190576D01*
X104452502Y-119012502D01*
X104630576Y-118795518D01*
X104710000Y-118646927D01*
X104789424Y-118795518D01*
X104967498Y-119012502D01*
X105184482Y-119190576D01*
X105432038Y-119322898D01*
X105700651Y-119404381D01*
X105910003Y-119425000D01*
X106049997Y-119425000D01*
X106259349Y-119404381D01*
X106527962Y-119322898D01*
X106775518Y-119190576D01*
X106992502Y-119012502D01*
X107170576Y-118795518D01*
X107250000Y-118646927D01*
X107329424Y-118795518D01*
X107507498Y-119012502D01*
X107724482Y-119190576D01*
X107972038Y-119322898D01*
X108240651Y-119404381D01*
X108450003Y-119425000D01*
X108589997Y-119425000D01*
X108799349Y-119404381D01*
X109067962Y-119322898D01*
X109315518Y-119190576D01*
X109532502Y-119012502D01*
X109710576Y-118795518D01*
X109790000Y-118646927D01*
X109869424Y-118795518D01*
X110047498Y-119012502D01*
X110264482Y-119190576D01*
X110512038Y-119322898D01*
X110780651Y-119404381D01*
X110990003Y-119425000D01*
X111129997Y-119425000D01*
X111339349Y-119404381D01*
X111607962Y-119322898D01*
X111855518Y-119190576D01*
X112072502Y-119012502D01*
X112250576Y-118795518D01*
X112382898Y-118547962D01*
X112464381Y-118279349D01*
X112491894Y-118000000D01*
X112464381Y-117720651D01*
X112382898Y-117452038D01*
X112250576Y-117204482D01*
X112072502Y-116987498D01*
X111855518Y-116809424D01*
X111607962Y-116677102D01*
X111339349Y-116595619D01*
X111129997Y-116575000D01*
X110990003Y-116575000D01*
X110780651Y-116595619D01*
X110512038Y-116677102D01*
X110264482Y-116809424D01*
X110047498Y-116987498D01*
X109869424Y-117204482D01*
X109790000Y-117353073D01*
X109710576Y-117204482D01*
X109532502Y-116987498D01*
X109315518Y-116809424D01*
X109067962Y-116677102D01*
X108799349Y-116595619D01*
X108589997Y-116575000D01*
X108450003Y-116575000D01*
X108240651Y-116595619D01*
X107972038Y-116677102D01*
X107724482Y-116809424D01*
X107507498Y-116987498D01*
X107329424Y-117204482D01*
X107250000Y-117353073D01*
X107170576Y-117204482D01*
X106992502Y-116987498D01*
X106775518Y-116809424D01*
X106527962Y-116677102D01*
X106259349Y-116595619D01*
X106049997Y-116575000D01*
X105910003Y-116575000D01*
X105700651Y-116595619D01*
X105432038Y-116677102D01*
X105184482Y-116809424D01*
X104967498Y-116987498D01*
X104789424Y-117204482D01*
X104710000Y-117353073D01*
X104630576Y-117204482D01*
X104452502Y-116987498D01*
X104235518Y-116809424D01*
X103987962Y-116677102D01*
X103719349Y-116595619D01*
X103509997Y-116575000D01*
X103370003Y-116575000D01*
X103160651Y-116595619D01*
X102892038Y-116677102D01*
X102644482Y-116809424D01*
X102427498Y-116987498D01*
X102249424Y-117204482D01*
X102170000Y-117353073D01*
X102090576Y-117204482D01*
X101912502Y-116987498D01*
X101695518Y-116809424D01*
X101447962Y-116677102D01*
X101179349Y-116595619D01*
X100969997Y-116575000D01*
X100830003Y-116575000D01*
X100620651Y-116595619D01*
X100352038Y-116677102D01*
X100104482Y-116809424D01*
X99887498Y-116987498D01*
X99709424Y-117204482D01*
X99630000Y-117353073D01*
X99550576Y-117204482D01*
X99372502Y-116987498D01*
X99155518Y-116809424D01*
X98907962Y-116677102D01*
X98639349Y-116595619D01*
X98429997Y-116575000D01*
X98290003Y-116575000D01*
X98080651Y-116595619D01*
X97812038Y-116677102D01*
X97564482Y-116809424D01*
X97347498Y-116987498D01*
X97169424Y-117204482D01*
X97090000Y-117353073D01*
X97010576Y-117204482D01*
X96832502Y-116987498D01*
X96615518Y-116809424D01*
X96367962Y-116677102D01*
X96099349Y-116595619D01*
X95889997Y-116575000D01*
X95750003Y-116575000D01*
X95540651Y-116595619D01*
X95272038Y-116677102D01*
X95024482Y-116809424D01*
X94807498Y-116987498D01*
X94629424Y-117204482D01*
X94550000Y-117353073D01*
X94470576Y-117204482D01*
X94292502Y-116987498D01*
X94075518Y-116809424D01*
X93827962Y-116677102D01*
X93559349Y-116595619D01*
X93349997Y-116575000D01*
X93210003Y-116575000D01*
X93000651Y-116595619D01*
X92732038Y-116677102D01*
X92484482Y-116809424D01*
X92267498Y-116987498D01*
X92089424Y-117204482D01*
X92010000Y-117353073D01*
X91930576Y-117204482D01*
X91752502Y-116987498D01*
X91535518Y-116809424D01*
X91287962Y-116677102D01*
X91019349Y-116595619D01*
X90809997Y-116575000D01*
X90670003Y-116575000D01*
X90460651Y-116595619D01*
X90192038Y-116677102D01*
X89944482Y-116809424D01*
X89727498Y-116987498D01*
X89549424Y-117204482D01*
X89470000Y-117353073D01*
X89390576Y-117204482D01*
X89212502Y-116987498D01*
X88995518Y-116809424D01*
X88747962Y-116677102D01*
X88479349Y-116595619D01*
X88269997Y-116575000D01*
X88130003Y-116575000D01*
X87920651Y-116595619D01*
X87652038Y-116677102D01*
X87404482Y-116809424D01*
X87187498Y-116987498D01*
X87009424Y-117204482D01*
X86930000Y-117353073D01*
X86850576Y-117204482D01*
X86672502Y-116987498D01*
X86455518Y-116809424D01*
X86207962Y-116677102D01*
X85939349Y-116595619D01*
X85729997Y-116575000D01*
X85590003Y-116575000D01*
X85380651Y-116595619D01*
X85112038Y-116677102D01*
X84864482Y-116809424D01*
X84647498Y-116987498D01*
X84469424Y-117204482D01*
X84387905Y-117356992D01*
X84265020Y-117151726D01*
X84077529Y-116944643D01*
X83853240Y-116778117D01*
X83600773Y-116658547D01*
X83465521Y-116617524D01*
X83245000Y-116737423D01*
X82995000Y-116737423D01*
X82774479Y-116617524D01*
X82639227Y-116658547D01*
X82386760Y-116778117D01*
X82162471Y-116944643D01*
X81974980Y-117151726D01*
X81852095Y-117356992D01*
X81770576Y-117204482D01*
X81592502Y-116987498D01*
X81375518Y-116809424D01*
X81127962Y-116677102D01*
X80859349Y-116595619D01*
X80649997Y-116575000D01*
X80510003Y-116575000D01*
X80300651Y-116595619D01*
X80032038Y-116677102D01*
X79784482Y-116809424D01*
X79567498Y-116987498D01*
X79389424Y-117204482D01*
X79310000Y-117353073D01*
X79230576Y-117204482D01*
X79052502Y-116987498D01*
X78835518Y-116809424D01*
X78587962Y-116677102D01*
X78319349Y-116595619D01*
X78109997Y-116575000D01*
X77970003Y-116575000D01*
X77760651Y-116595619D01*
X77492038Y-116677102D01*
X77244482Y-116809424D01*
X77027498Y-116987498D01*
X76919996Y-117118490D01*
X76915957Y-117077479D01*
X76880219Y-116959666D01*
X76822183Y-116851089D01*
X76744080Y-116755920D01*
X76648911Y-116677817D01*
X76540334Y-116619781D01*
X76422521Y-116584043D01*
X76300000Y-116571976D01*
X74700000Y-116571976D01*
X74577479Y-116584043D01*
X74459666Y-116619781D01*
X74351089Y-116677817D01*
X74255920Y-116755920D01*
X74177817Y-116851089D01*
X74119781Y-116959666D01*
X74084043Y-117077479D01*
X74071976Y-117200000D01*
X63797669Y-117200000D01*
X63635520Y-117091656D01*
X63448982Y-117014390D01*
X63250954Y-116975000D01*
X63049046Y-116975000D01*
X62851018Y-117014390D01*
X62664480Y-117091656D01*
X62496600Y-117203830D01*
X62353830Y-117346600D01*
X62241656Y-117514480D01*
X62164390Y-117701018D01*
X62125000Y-117899046D01*
X50675000Y-117899046D01*
X50675000Y-112486065D01*
X52690712Y-112486065D01*
X52762693Y-112727479D01*
X53016330Y-112847735D01*
X53288553Y-112916198D01*
X53568903Y-112930237D01*
X53846604Y-112889314D01*
X54110986Y-112795000D01*
X54237307Y-112727479D01*
X54309288Y-112486065D01*
X53500000Y-111676777D01*
X52690712Y-112486065D01*
X50675000Y-112486065D01*
X50675000Y-111568903D01*
X52069763Y-111568903D01*
X52110686Y-111846604D01*
X52205000Y-112110986D01*
X52272521Y-112237307D01*
X52513935Y-112309288D01*
X53323223Y-111500000D01*
X53676777Y-111500000D01*
X54486065Y-112309288D01*
X54571976Y-112283672D01*
X54571976Y-112300000D01*
X54584043Y-112422521D01*
X54619781Y-112540334D01*
X54677817Y-112648911D01*
X54755920Y-112744080D01*
X54851089Y-112822183D01*
X54959666Y-112880219D01*
X55077479Y-112915957D01*
X55200000Y-112928024D01*
X56800000Y-112928024D01*
X56922521Y-112915957D01*
X57040334Y-112880219D01*
X57148911Y-112822183D01*
X57244080Y-112744080D01*
X57322183Y-112648911D01*
X57380219Y-112540334D01*
X57415957Y-112422521D01*
X57428024Y-112300000D01*
X57428024Y-110700000D01*
X57415957Y-110577479D01*
X57380219Y-110459666D01*
X57322183Y-110351089D01*
X57244080Y-110255920D01*
X57148911Y-110177817D01*
X57040334Y-110119781D01*
X56922521Y-110084043D01*
X56800000Y-110071976D01*
X55200000Y-110071976D01*
X55077479Y-110084043D01*
X54959666Y-110119781D01*
X54851089Y-110177817D01*
X54755920Y-110255920D01*
X54677817Y-110351089D01*
X54619781Y-110459666D01*
X54584043Y-110577479D01*
X54571976Y-110700000D01*
X54571976Y-110716328D01*
X54486065Y-110690712D01*
X53676777Y-111500000D01*
X53323223Y-111500000D01*
X52513935Y-110690712D01*
X52272521Y-110762693D01*
X52152265Y-111016330D01*
X52083802Y-111288553D01*
X52069763Y-111568903D01*
X50675000Y-111568903D01*
X50675000Y-110513935D01*
X52690712Y-110513935D01*
X53500000Y-111323223D01*
X54309288Y-110513935D01*
X54237307Y-110272521D01*
X53983670Y-110152265D01*
X53711447Y-110083802D01*
X53431097Y-110069763D01*
X53153396Y-110110686D01*
X52889014Y-110205000D01*
X52762693Y-110272521D01*
X52690712Y-110513935D01*
X50675000Y-110513935D01*
X50675000Y-108999046D01*
X86625000Y-108999046D01*
X86625000Y-109200954D01*
X86664390Y-109398982D01*
X86741656Y-109585520D01*
X86853830Y-109753400D01*
X86996600Y-109896170D01*
X87164480Y-110008344D01*
X87351018Y-110085610D01*
X87409883Y-110097319D01*
X89775001Y-112462438D01*
X89775000Y-112864577D01*
X89741656Y-112914480D01*
X89664390Y-113101018D01*
X89625000Y-113299046D01*
X89625000Y-113500954D01*
X89664390Y-113698982D01*
X89741656Y-113885520D01*
X89853830Y-114053400D01*
X89996600Y-114196170D01*
X90164480Y-114308344D01*
X90351018Y-114385610D01*
X90549046Y-114425000D01*
X90750954Y-114425000D01*
X90948982Y-114385610D01*
X91135520Y-114308344D01*
X91303400Y-114196170D01*
X91446170Y-114053400D01*
X91531964Y-113925000D01*
X98114577Y-113925000D01*
X98164480Y-113958344D01*
X98351018Y-114035610D01*
X98549046Y-114075000D01*
X98750954Y-114075000D01*
X98948982Y-114035610D01*
X99135520Y-113958344D01*
X99303400Y-113846170D01*
X99446170Y-113703400D01*
X99558344Y-113535520D01*
X99635610Y-113348982D01*
X99675000Y-113150954D01*
X99675000Y-112949046D01*
X99635610Y-112751018D01*
X99558344Y-112564480D01*
X99446170Y-112396600D01*
X99303400Y-112253830D01*
X99135520Y-112141656D01*
X98948982Y-112064390D01*
X98750954Y-112025000D01*
X98549046Y-112025000D01*
X98351018Y-112064390D01*
X98164480Y-112141656D01*
X98114577Y-112175000D01*
X91525000Y-112175000D01*
X91525000Y-112142979D01*
X91529233Y-112100000D01*
X91512339Y-111928470D01*
X91462305Y-111763532D01*
X91381056Y-111611524D01*
X91346078Y-111568903D01*
X91271712Y-111478288D01*
X91238325Y-111450888D01*
X88647319Y-108859883D01*
X88635610Y-108801018D01*
X88558344Y-108614480D01*
X88446170Y-108446600D01*
X88303400Y-108303830D01*
X88135520Y-108191656D01*
X87948982Y-108114390D01*
X87750954Y-108075000D01*
X87549046Y-108075000D01*
X87351018Y-108114390D01*
X87164480Y-108191656D01*
X86996600Y-108303830D01*
X86853830Y-108446600D01*
X86741656Y-108614480D01*
X86664390Y-108801018D01*
X86625000Y-108999046D01*
X50675000Y-108999046D01*
X50675000Y-102760000D01*
X74068106Y-102760000D01*
X74095619Y-103039349D01*
X74177102Y-103307962D01*
X74309424Y-103555518D01*
X74487498Y-103772502D01*
X74704482Y-103950576D01*
X74952038Y-104082898D01*
X75220651Y-104164381D01*
X75430003Y-104185000D01*
X75569997Y-104185000D01*
X75779349Y-104164381D01*
X76047962Y-104082898D01*
X76295518Y-103950576D01*
X76512502Y-103772502D01*
X76690576Y-103555518D01*
X76772095Y-103403008D01*
X76894980Y-103608274D01*
X77082471Y-103815357D01*
X77306760Y-103981883D01*
X77559227Y-104101453D01*
X77694479Y-104142476D01*
X77915000Y-104022577D01*
X77915000Y-102885000D01*
X77895000Y-102885000D01*
X77895000Y-102635000D01*
X77915000Y-102635000D01*
X77915000Y-101497423D01*
X77694479Y-101377524D01*
X77559227Y-101418547D01*
X77306760Y-101538117D01*
X77082471Y-101704643D01*
X76894980Y-101911726D01*
X76772095Y-102116992D01*
X76690576Y-101964482D01*
X76512502Y-101747498D01*
X76295518Y-101569424D01*
X76047962Y-101437102D01*
X75779349Y-101355619D01*
X75569997Y-101335000D01*
X75430003Y-101335000D01*
X75220651Y-101355619D01*
X74952038Y-101437102D01*
X74704482Y-101569424D01*
X74487498Y-101747498D01*
X74309424Y-101964482D01*
X74177102Y-102212038D01*
X74095619Y-102480651D01*
X74068106Y-102760000D01*
X50675000Y-102760000D01*
X50675000Y-68510404D01*
X54195000Y-68510404D01*
X54195000Y-68889596D01*
X54268977Y-69261502D01*
X54414087Y-69611829D01*
X54624755Y-69927116D01*
X54892884Y-70195245D01*
X55208171Y-70405913D01*
X55558498Y-70551023D01*
X55930404Y-70625000D01*
X56309596Y-70625000D01*
X56681502Y-70551023D01*
X57031829Y-70405913D01*
X57347116Y-70195245D01*
X57615245Y-69927116D01*
X57825913Y-69611829D01*
X57971023Y-69261502D01*
X58045000Y-68889596D01*
X58045000Y-68510404D01*
X57971023Y-68138498D01*
X57955768Y-68101669D01*
X58982437Y-67075000D01*
X60167076Y-67075000D01*
X59972884Y-67204755D01*
X59704755Y-67472884D01*
X59494087Y-67788171D01*
X59348977Y-68138498D01*
X59275000Y-68510404D01*
X59275000Y-68889596D01*
X59348977Y-69261502D01*
X59494087Y-69611829D01*
X59704755Y-69927116D01*
X59972884Y-70195245D01*
X60288171Y-70405913D01*
X60638498Y-70551023D01*
X61010404Y-70625000D01*
X61389596Y-70625000D01*
X61761502Y-70551023D01*
X62111829Y-70405913D01*
X62427116Y-70195245D01*
X62695245Y-69927116D01*
X62905913Y-69611829D01*
X63051023Y-69261502D01*
X63125000Y-68889596D01*
X63125000Y-68510404D01*
X63051023Y-68138498D01*
X62905913Y-67788171D01*
X62695245Y-67472884D01*
X62427116Y-67204755D01*
X62232924Y-67075000D01*
X65247076Y-67075000D01*
X65052884Y-67204755D01*
X64784755Y-67472884D01*
X64574087Y-67788171D01*
X64428977Y-68138498D01*
X64355000Y-68510404D01*
X64355000Y-68889596D01*
X64428977Y-69261502D01*
X64574087Y-69611829D01*
X64784755Y-69927116D01*
X65052884Y-70195245D01*
X65368171Y-70405913D01*
X65718498Y-70551023D01*
X66090404Y-70625000D01*
X66469596Y-70625000D01*
X66841502Y-70551023D01*
X67191829Y-70405913D01*
X67507116Y-70195245D01*
X67659802Y-70042559D01*
X70194218Y-70042559D01*
X70326542Y-70335095D01*
X70665391Y-70505295D01*
X71030934Y-70606118D01*
X71409122Y-70633690D01*
X71785422Y-70586951D01*
X72145374Y-70467698D01*
X72393458Y-70335095D01*
X72525782Y-70042559D01*
X71360000Y-68876777D01*
X70194218Y-70042559D01*
X67659802Y-70042559D01*
X67775245Y-69927116D01*
X67985913Y-69611829D01*
X68131023Y-69261502D01*
X68205000Y-68889596D01*
X68205000Y-68749122D01*
X69426310Y-68749122D01*
X69473049Y-69125422D01*
X69592302Y-69485374D01*
X69724905Y-69733458D01*
X70017441Y-69865782D01*
X71183223Y-68700000D01*
X71536777Y-68700000D01*
X72702559Y-69865782D01*
X72995095Y-69733458D01*
X73165295Y-69394609D01*
X73266118Y-69029066D01*
X73293690Y-68650878D01*
X73246951Y-68274578D01*
X73127698Y-67914626D01*
X72995095Y-67666542D01*
X72702559Y-67534218D01*
X71536777Y-68700000D01*
X71183223Y-68700000D01*
X70017441Y-67534218D01*
X69724905Y-67666542D01*
X69554705Y-68005391D01*
X69453882Y-68370934D01*
X69426310Y-68749122D01*
X68205000Y-68749122D01*
X68205000Y-68510404D01*
X68131023Y-68138498D01*
X67985913Y-67788171D01*
X67775245Y-67472884D01*
X67507116Y-67204755D01*
X67312924Y-67075000D01*
X70321976Y-67075000D01*
X70194218Y-67357441D01*
X71360000Y-68523223D01*
X72525782Y-67357441D01*
X72398024Y-67075000D01*
X73577564Y-67075000D01*
X74604232Y-68101669D01*
X74588977Y-68138498D01*
X74515000Y-68510404D01*
X74515000Y-68889596D01*
X74588977Y-69261502D01*
X74734087Y-69611829D01*
X74944755Y-69927116D01*
X75212884Y-70195245D01*
X75528171Y-70405913D01*
X75565000Y-70421168D01*
X75565001Y-94697562D01*
X73761680Y-96500883D01*
X73728288Y-96528288D01*
X73618944Y-96661525D01*
X73563914Y-96764480D01*
X73537695Y-96813533D01*
X73487661Y-96978471D01*
X73470767Y-97150000D01*
X73475000Y-97192979D01*
X73475001Y-99737562D01*
X72237564Y-100975000D01*
X70324833Y-100975000D01*
X70335610Y-100948982D01*
X70342004Y-100916835D01*
X70498982Y-100885610D01*
X70685520Y-100808344D01*
X70853400Y-100696170D01*
X70996170Y-100553400D01*
X71108344Y-100385520D01*
X71185610Y-100198982D01*
X71225000Y-100000954D01*
X71225000Y-99799046D01*
X71185610Y-99601018D01*
X71108344Y-99414480D01*
X70996170Y-99246600D01*
X70950000Y-99200430D01*
X70950000Y-83749570D01*
X70996170Y-83703400D01*
X71108344Y-83535520D01*
X71185610Y-83348982D01*
X71225000Y-83150954D01*
X71225000Y-82949046D01*
X71185610Y-82751018D01*
X71108344Y-82564480D01*
X70996170Y-82396600D01*
X70853400Y-82253830D01*
X70685520Y-82141656D01*
X70498982Y-82064390D01*
X70300954Y-82025000D01*
X70099046Y-82025000D01*
X69901018Y-82064390D01*
X69714480Y-82141656D01*
X69546600Y-82253830D01*
X69403830Y-82396600D01*
X69291656Y-82564480D01*
X69214390Y-82751018D01*
X69175000Y-82949046D01*
X69175000Y-83150954D01*
X69214390Y-83348982D01*
X69291656Y-83535520D01*
X69403830Y-83703400D01*
X69450001Y-83749571D01*
X69450001Y-84600431D01*
X69403400Y-84553830D01*
X69235520Y-84441656D01*
X69048982Y-84364390D01*
X68850954Y-84325000D01*
X68649046Y-84325000D01*
X68451018Y-84364390D01*
X68264480Y-84441656D01*
X68096600Y-84553830D01*
X67953830Y-84696600D01*
X67841656Y-84864480D01*
X67793611Y-84980471D01*
X67735520Y-84941656D01*
X67548982Y-84864390D01*
X67350954Y-84825000D01*
X67149046Y-84825000D01*
X66951018Y-84864390D01*
X66764480Y-84941656D01*
X66596600Y-85053830D01*
X66453830Y-85196600D01*
X66341656Y-85364480D01*
X66264390Y-85551018D01*
X66225000Y-85749046D01*
X66225000Y-85950954D01*
X66264390Y-86148982D01*
X66341656Y-86335520D01*
X66453830Y-86503400D01*
X66500001Y-86549571D01*
X66500000Y-92000430D01*
X66453830Y-92046600D01*
X66341656Y-92214480D01*
X66264390Y-92401018D01*
X66225000Y-92599046D01*
X66225000Y-92800954D01*
X66264390Y-92998982D01*
X66341656Y-93185520D01*
X66453830Y-93353400D01*
X66596600Y-93496170D01*
X66764480Y-93608344D01*
X66951018Y-93685610D01*
X67149046Y-93725000D01*
X67350954Y-93725000D01*
X67548982Y-93685610D01*
X67735520Y-93608344D01*
X67903400Y-93496170D01*
X68046170Y-93353400D01*
X68158344Y-93185520D01*
X68235610Y-92998982D01*
X68275000Y-92800954D01*
X68275000Y-92599046D01*
X68235610Y-92401018D01*
X68158344Y-92214480D01*
X68046170Y-92046600D01*
X68000000Y-92000430D01*
X68000000Y-86549570D01*
X68046170Y-86503400D01*
X68158344Y-86335520D01*
X68206389Y-86219529D01*
X68264480Y-86258344D01*
X68451018Y-86335610D01*
X68649046Y-86375000D01*
X68650001Y-86375000D01*
X68650000Y-96034756D01*
X68600954Y-96025000D01*
X68399046Y-96025000D01*
X68201018Y-96064390D01*
X68014480Y-96141656D01*
X67846600Y-96253830D01*
X67703830Y-96396600D01*
X67591656Y-96564480D01*
X67514390Y-96751018D01*
X67475000Y-96949046D01*
X67475000Y-97150954D01*
X67475400Y-97152963D01*
X67470767Y-97200000D01*
X67475000Y-97242979D01*
X67475001Y-100975000D01*
X59283412Y-100975000D01*
X59335610Y-100848982D01*
X59362715Y-100712715D01*
X59498982Y-100685610D01*
X59685520Y-100608344D01*
X59853400Y-100496170D01*
X59996170Y-100353400D01*
X60108344Y-100185520D01*
X60185610Y-99998982D01*
X60225000Y-99800954D01*
X60225000Y-99599046D01*
X60185610Y-99401018D01*
X60108344Y-99214480D01*
X59996170Y-99046600D01*
X59950000Y-99000430D01*
X59950000Y-83699570D01*
X59996170Y-83653400D01*
X60108344Y-83485520D01*
X60185610Y-83298982D01*
X60225000Y-83100954D01*
X60225000Y-82899046D01*
X60185610Y-82701018D01*
X60108344Y-82514480D01*
X59996170Y-82346600D01*
X59853400Y-82203830D01*
X59685520Y-82091656D01*
X59498982Y-82014390D01*
X59300954Y-81975000D01*
X59099046Y-81975000D01*
X58901018Y-82014390D01*
X58714480Y-82091656D01*
X58546600Y-82203830D01*
X58403830Y-82346600D01*
X58291656Y-82514480D01*
X58214390Y-82701018D01*
X58175000Y-82899046D01*
X58175000Y-83100954D01*
X58214390Y-83298982D01*
X58291656Y-83485520D01*
X58403830Y-83653400D01*
X58450001Y-83699571D01*
X58450001Y-84600431D01*
X58403400Y-84553830D01*
X58235520Y-84441656D01*
X58048982Y-84364390D01*
X57850954Y-84325000D01*
X57649046Y-84325000D01*
X57451018Y-84364390D01*
X57264480Y-84441656D01*
X57096600Y-84553830D01*
X56953830Y-84696600D01*
X56841656Y-84864480D01*
X56782773Y-85006638D01*
X56685520Y-84941656D01*
X56498982Y-84864390D01*
X56300954Y-84825000D01*
X56099046Y-84825000D01*
X55901018Y-84864390D01*
X55714480Y-84941656D01*
X55546600Y-85053830D01*
X55403830Y-85196600D01*
X55291656Y-85364480D01*
X55214390Y-85551018D01*
X55175000Y-85749046D01*
X55175000Y-85950954D01*
X55214390Y-86148982D01*
X55291656Y-86335520D01*
X55403830Y-86503400D01*
X55450001Y-86549571D01*
X55450000Y-92050430D01*
X55403830Y-92096600D01*
X55291656Y-92264480D01*
X55214390Y-92451018D01*
X55175000Y-92649046D01*
X55175000Y-92850954D01*
X55214390Y-93048982D01*
X55291656Y-93235520D01*
X55403830Y-93403400D01*
X55546600Y-93546170D01*
X55714480Y-93658344D01*
X55901018Y-93735610D01*
X56099046Y-93775000D01*
X56300954Y-93775000D01*
X56498982Y-93735610D01*
X56685520Y-93658344D01*
X56853400Y-93546170D01*
X56996170Y-93403400D01*
X57108344Y-93235520D01*
X57185610Y-93048982D01*
X57225000Y-92850954D01*
X57225000Y-92649046D01*
X57185610Y-92451018D01*
X57108344Y-92264480D01*
X56996170Y-92096600D01*
X56950000Y-92050430D01*
X56950000Y-86549570D01*
X56996170Y-86503400D01*
X57108344Y-86335520D01*
X57167227Y-86193362D01*
X57264480Y-86258344D01*
X57451018Y-86335610D01*
X57600001Y-86365244D01*
X57600000Y-95925000D01*
X57449046Y-95925000D01*
X57251018Y-95964390D01*
X57064480Y-96041656D01*
X56896600Y-96153830D01*
X56753830Y-96296600D01*
X56641656Y-96464480D01*
X56564390Y-96651018D01*
X56553065Y-96707955D01*
X56528289Y-96728288D01*
X56418945Y-96861524D01*
X56409887Y-96878471D01*
X56337695Y-97013533D01*
X56287661Y-97178471D01*
X56270767Y-97350000D01*
X56275001Y-97392989D01*
X56275000Y-101307021D01*
X56270767Y-101350000D01*
X56275000Y-101392978D01*
X56287661Y-101521529D01*
X56337695Y-101686467D01*
X56418944Y-101838475D01*
X56528288Y-101971712D01*
X56561681Y-101999117D01*
X57000883Y-102438319D01*
X57028288Y-102471712D01*
X57161524Y-102581056D01*
X57313532Y-102662305D01*
X57478470Y-102712339D01*
X57650000Y-102729233D01*
X57692979Y-102725000D01*
X68307021Y-102725000D01*
X68350000Y-102729233D01*
X68392979Y-102725000D01*
X72557021Y-102725000D01*
X72600000Y-102729233D01*
X72642979Y-102725000D01*
X72771530Y-102712339D01*
X72936468Y-102662305D01*
X73088476Y-102581056D01*
X73221712Y-102471712D01*
X73249116Y-102438320D01*
X74938325Y-100749112D01*
X74971712Y-100721712D01*
X75081056Y-100588476D01*
X75162305Y-100436468D01*
X75212339Y-100271530D01*
X75225000Y-100142979D01*
X75229233Y-100100000D01*
X75225000Y-100057021D01*
X75225000Y-97512436D01*
X76712437Y-96025000D01*
X78937564Y-96025000D01*
X79702681Y-96790118D01*
X79714390Y-96848982D01*
X79735522Y-96900000D01*
X79714390Y-96951018D01*
X79675000Y-97149046D01*
X79675000Y-97350954D01*
X79714390Y-97548982D01*
X79791656Y-97735520D01*
X79903830Y-97903400D01*
X80046600Y-98046170D01*
X80214480Y-98158344D01*
X80401018Y-98235610D01*
X80459883Y-98247319D01*
X82245001Y-100032438D01*
X82245000Y-101634653D01*
X82107498Y-101747498D01*
X81929424Y-101964482D01*
X81850000Y-102113073D01*
X81770576Y-101964482D01*
X81592502Y-101747498D01*
X81375518Y-101569424D01*
X81127962Y-101437102D01*
X80859349Y-101355619D01*
X80649997Y-101335000D01*
X80510003Y-101335000D01*
X80300651Y-101355619D01*
X80032038Y-101437102D01*
X79784482Y-101569424D01*
X79567498Y-101747498D01*
X79389424Y-101964482D01*
X79307905Y-102116992D01*
X79185020Y-101911726D01*
X78997529Y-101704643D01*
X78773240Y-101538117D01*
X78520773Y-101418547D01*
X78385521Y-101377524D01*
X78165000Y-101497423D01*
X78165000Y-102635000D01*
X78185000Y-102635000D01*
X78185000Y-102885000D01*
X78165000Y-102885000D01*
X78165000Y-104022577D01*
X78385521Y-104142476D01*
X78520773Y-104101453D01*
X78773240Y-103981883D01*
X78997529Y-103815357D01*
X79185020Y-103608274D01*
X79307905Y-103403008D01*
X79389424Y-103555518D01*
X79567498Y-103772502D01*
X79784482Y-103950576D01*
X80032038Y-104082898D01*
X80300651Y-104164381D01*
X80462266Y-104180298D01*
X79417564Y-105225000D01*
X76035423Y-105225000D01*
X75985520Y-105191656D01*
X75798982Y-105114390D01*
X75600954Y-105075000D01*
X75399046Y-105075000D01*
X75201018Y-105114390D01*
X75014480Y-105191656D01*
X74846600Y-105303830D01*
X74703830Y-105446600D01*
X74591656Y-105614480D01*
X74514390Y-105801018D01*
X74475000Y-105999046D01*
X74475000Y-106200954D01*
X74514390Y-106398982D01*
X74591656Y-106585520D01*
X74703830Y-106753400D01*
X74846600Y-106896170D01*
X75014480Y-107008344D01*
X75201018Y-107085610D01*
X75399046Y-107125000D01*
X75600954Y-107125000D01*
X75798982Y-107085610D01*
X75985520Y-107008344D01*
X76035423Y-106975000D01*
X79737021Y-106975000D01*
X79780000Y-106979233D01*
X79822979Y-106975000D01*
X79951530Y-106962339D01*
X80116468Y-106912305D01*
X80268476Y-106831056D01*
X80401712Y-106721712D01*
X80429117Y-106688319D01*
X82942977Y-104174459D01*
X83050003Y-104185000D01*
X83189997Y-104185000D01*
X83399349Y-104164381D01*
X83667962Y-104082898D01*
X83915518Y-103950576D01*
X84132502Y-103772502D01*
X84310576Y-103555518D01*
X84390000Y-103406927D01*
X84469424Y-103555518D01*
X84647498Y-103772502D01*
X84864482Y-103950576D01*
X85112038Y-104082898D01*
X85380651Y-104164381D01*
X85590003Y-104185000D01*
X85729997Y-104185000D01*
X85939349Y-104164381D01*
X86207962Y-104082898D01*
X86455518Y-103950576D01*
X86672502Y-103772502D01*
X86850576Y-103555518D01*
X86930000Y-103406927D01*
X87009424Y-103555518D01*
X87187498Y-103772502D01*
X87404482Y-103950576D01*
X87652038Y-104082898D01*
X87920651Y-104164381D01*
X88130003Y-104185000D01*
X88269997Y-104185000D01*
X88479349Y-104164381D01*
X88747962Y-104082898D01*
X88995518Y-103950576D01*
X89212502Y-103772502D01*
X89390576Y-103555518D01*
X89470000Y-103406927D01*
X89549424Y-103555518D01*
X89727498Y-103772502D01*
X89944482Y-103950576D01*
X90192038Y-104082898D01*
X90460651Y-104164381D01*
X90670003Y-104185000D01*
X90809997Y-104185000D01*
X91019349Y-104164381D01*
X91287962Y-104082898D01*
X91535518Y-103950576D01*
X91752502Y-103772502D01*
X91930576Y-103555518D01*
X92010000Y-103406927D01*
X92089424Y-103555518D01*
X92267498Y-103772502D01*
X92484482Y-103950576D01*
X92732038Y-104082898D01*
X93000651Y-104164381D01*
X93210003Y-104185000D01*
X93349997Y-104185000D01*
X93559349Y-104164381D01*
X93827962Y-104082898D01*
X94075518Y-103950576D01*
X94292502Y-103772502D01*
X94470576Y-103555518D01*
X94550000Y-103406927D01*
X94629424Y-103555518D01*
X94807498Y-103772502D01*
X95024482Y-103950576D01*
X95272038Y-104082898D01*
X95540651Y-104164381D01*
X95750003Y-104185000D01*
X95889997Y-104185000D01*
X96099349Y-104164381D01*
X96367962Y-104082898D01*
X96615518Y-103950576D01*
X96832502Y-103772502D01*
X97010576Y-103555518D01*
X97090000Y-103406927D01*
X97169424Y-103555518D01*
X97347498Y-103772502D01*
X97564482Y-103950576D01*
X97812038Y-104082898D01*
X98080651Y-104164381D01*
X98290003Y-104185000D01*
X98429997Y-104185000D01*
X98639349Y-104164381D01*
X98907962Y-104082898D01*
X99155518Y-103950576D01*
X99372502Y-103772502D01*
X99550576Y-103555518D01*
X99630000Y-103406927D01*
X99709424Y-103555518D01*
X99887498Y-103772502D01*
X100104482Y-103950576D01*
X100352038Y-104082898D01*
X100620651Y-104164381D01*
X100830003Y-104185000D01*
X100969997Y-104185000D01*
X101179349Y-104164381D01*
X101447962Y-104082898D01*
X101695518Y-103950576D01*
X101912502Y-103772502D01*
X102090576Y-103555518D01*
X102170000Y-103406927D01*
X102249424Y-103555518D01*
X102427498Y-103772502D01*
X102644482Y-103950576D01*
X102892038Y-104082898D01*
X103160651Y-104164381D01*
X103370003Y-104185000D01*
X103509997Y-104185000D01*
X103719349Y-104164381D01*
X103987962Y-104082898D01*
X104235518Y-103950576D01*
X104452502Y-103772502D01*
X104630576Y-103555518D01*
X104710000Y-103406927D01*
X104789424Y-103555518D01*
X104967498Y-103772502D01*
X105184482Y-103950576D01*
X105432038Y-104082898D01*
X105700651Y-104164381D01*
X105910003Y-104185000D01*
X106049997Y-104185000D01*
X106259349Y-104164381D01*
X106527962Y-104082898D01*
X106775518Y-103950576D01*
X106992502Y-103772502D01*
X107170576Y-103555518D01*
X107250000Y-103406927D01*
X107329424Y-103555518D01*
X107507498Y-103772502D01*
X107724482Y-103950576D01*
X107972038Y-104082898D01*
X108240651Y-104164381D01*
X108450003Y-104185000D01*
X108589997Y-104185000D01*
X108799349Y-104164381D01*
X109067962Y-104082898D01*
X109315518Y-103950576D01*
X109532502Y-103772502D01*
X109710576Y-103555518D01*
X109790000Y-103406927D01*
X109869424Y-103555518D01*
X110047498Y-103772502D01*
X110264482Y-103950576D01*
X110512038Y-104082898D01*
X110780651Y-104164381D01*
X110990003Y-104185000D01*
X111129997Y-104185000D01*
X111339349Y-104164381D01*
X111607962Y-104082898D01*
X111855518Y-103950576D01*
X112072502Y-103772502D01*
X112250576Y-103555518D01*
X112382898Y-103307962D01*
X112464381Y-103039349D01*
X112491894Y-102760000D01*
X112464381Y-102480651D01*
X112382898Y-102212038D01*
X112250576Y-101964482D01*
X112072502Y-101747498D01*
X111855518Y-101569424D01*
X111607962Y-101437102D01*
X111410296Y-101377140D01*
X112645766Y-100141671D01*
X112753830Y-100303400D01*
X112896600Y-100446170D01*
X113064480Y-100558344D01*
X113251018Y-100635610D01*
X113449046Y-100675000D01*
X113650954Y-100675000D01*
X113848982Y-100635610D01*
X114035520Y-100558344D01*
X114203400Y-100446170D01*
X114346170Y-100303400D01*
X114458344Y-100135520D01*
X114535610Y-99948982D01*
X114542004Y-99916835D01*
X114698982Y-99885610D01*
X114885520Y-99808344D01*
X115053400Y-99696170D01*
X115196170Y-99553400D01*
X115308344Y-99385520D01*
X115385610Y-99198982D01*
X115425000Y-99000954D01*
X115425000Y-98799046D01*
X115385610Y-98601018D01*
X115308344Y-98414480D01*
X115196170Y-98246600D01*
X115150000Y-98200430D01*
X115150000Y-86760659D01*
X115535660Y-86375000D01*
X115600954Y-86375000D01*
X115798982Y-86335610D01*
X115985520Y-86258344D01*
X116153400Y-86146170D01*
X116296170Y-86003400D01*
X116408344Y-85835520D01*
X116485610Y-85648982D01*
X116525000Y-85450954D01*
X116525000Y-85249046D01*
X116485610Y-85051018D01*
X116408344Y-84864480D01*
X116296170Y-84696600D01*
X116153400Y-84553830D01*
X115985520Y-84441656D01*
X115798982Y-84364390D01*
X115600954Y-84325000D01*
X115399046Y-84325000D01*
X115201018Y-84364390D01*
X115014480Y-84441656D01*
X114846600Y-84553830D01*
X114703830Y-84696600D01*
X114591656Y-84864480D01*
X114514390Y-85051018D01*
X114475000Y-85249046D01*
X114475000Y-85314340D01*
X114300000Y-85489341D01*
X114300000Y-83699570D01*
X114346170Y-83653400D01*
X114458344Y-83485520D01*
X114535610Y-83298982D01*
X114575000Y-83100954D01*
X114575000Y-82899046D01*
X114535610Y-82701018D01*
X114458344Y-82514480D01*
X114346170Y-82346600D01*
X114203400Y-82203830D01*
X114035520Y-82091656D01*
X113848982Y-82014390D01*
X113650954Y-81975000D01*
X113449046Y-81975000D01*
X113251018Y-82014390D01*
X113064480Y-82091656D01*
X112896600Y-82203830D01*
X112753830Y-82346600D01*
X112641656Y-82514480D01*
X112564390Y-82701018D01*
X112525000Y-82899046D01*
X112525000Y-83100954D01*
X112564390Y-83298982D01*
X112641656Y-83485520D01*
X112753830Y-83653400D01*
X112800001Y-83699571D01*
X112800000Y-87636834D01*
X112800001Y-87636844D01*
X112800000Y-95834756D01*
X112750954Y-95825000D01*
X112549046Y-95825000D01*
X112351018Y-95864390D01*
X112164480Y-95941656D01*
X111996600Y-96053830D01*
X111853830Y-96196600D01*
X111741656Y-96364480D01*
X111664390Y-96551018D01*
X111625000Y-96749046D01*
X111625000Y-96950954D01*
X111664390Y-97148982D01*
X111741656Y-97335520D01*
X111775001Y-97385424D01*
X111775000Y-98537563D01*
X109837564Y-100475000D01*
X106324570Y-100475000D01*
X106446170Y-100353400D01*
X106558344Y-100185520D01*
X106635610Y-99998982D01*
X106675000Y-99800954D01*
X106675000Y-99599046D01*
X106635610Y-99401018D01*
X106558344Y-99214480D01*
X106446170Y-99046600D01*
X106400000Y-99000430D01*
X106400000Y-86486827D01*
X106403627Y-86450000D01*
X106400000Y-86413172D01*
X106400000Y-86413165D01*
X106389147Y-86302974D01*
X106346261Y-86161599D01*
X106276619Y-86031307D01*
X106220696Y-85963165D01*
X106206376Y-85945716D01*
X106206374Y-85945714D01*
X106182895Y-85917105D01*
X106154286Y-85893626D01*
X105659706Y-85399046D01*
X110575000Y-85399046D01*
X110575000Y-85600954D01*
X110614390Y-85798982D01*
X110691656Y-85985520D01*
X110803830Y-86153400D01*
X110850000Y-86199570D01*
X110850001Y-92100429D01*
X110803830Y-92146600D01*
X110691656Y-92314480D01*
X110614390Y-92501018D01*
X110575000Y-92699046D01*
X110575000Y-92900954D01*
X110614390Y-93098982D01*
X110691656Y-93285520D01*
X110803830Y-93453400D01*
X110946600Y-93596170D01*
X111114480Y-93708344D01*
X111301018Y-93785610D01*
X111499046Y-93825000D01*
X111700954Y-93825000D01*
X111898982Y-93785610D01*
X112085520Y-93708344D01*
X112253400Y-93596170D01*
X112396170Y-93453400D01*
X112508344Y-93285520D01*
X112585610Y-93098982D01*
X112625000Y-92900954D01*
X112625000Y-92699046D01*
X112585610Y-92501018D01*
X112508344Y-92314480D01*
X112396170Y-92146600D01*
X112350000Y-92100430D01*
X112350000Y-86199570D01*
X112396170Y-86153400D01*
X112508344Y-85985520D01*
X112585610Y-85798982D01*
X112625000Y-85600954D01*
X112625000Y-85399046D01*
X112585610Y-85201018D01*
X112508344Y-85014480D01*
X112396170Y-84846600D01*
X112253400Y-84703830D01*
X112085520Y-84591656D01*
X111898982Y-84514390D01*
X111700954Y-84475000D01*
X111499046Y-84475000D01*
X111301018Y-84514390D01*
X111114480Y-84591656D01*
X110946600Y-84703830D01*
X110803830Y-84846600D01*
X110691656Y-85014480D01*
X110614390Y-85201018D01*
X110575000Y-85399046D01*
X105659706Y-85399046D01*
X105575000Y-85314341D01*
X105575000Y-85249046D01*
X105535610Y-85051018D01*
X105458344Y-84864480D01*
X105348442Y-84700000D01*
X105458344Y-84535520D01*
X105535610Y-84348982D01*
X105575000Y-84150954D01*
X105575000Y-83949046D01*
X105535610Y-83751018D01*
X105458344Y-83564480D01*
X105346170Y-83396600D01*
X105203400Y-83253830D01*
X105035520Y-83141656D01*
X104848982Y-83064390D01*
X104650954Y-83025000D01*
X104449046Y-83025000D01*
X104251018Y-83064390D01*
X104064480Y-83141656D01*
X103896600Y-83253830D01*
X103753830Y-83396600D01*
X103641656Y-83564480D01*
X103564390Y-83751018D01*
X103525000Y-83949046D01*
X103525000Y-84014341D01*
X103295715Y-84243626D01*
X103267106Y-84267105D01*
X103243627Y-84295714D01*
X103243624Y-84295717D01*
X103219592Y-84325000D01*
X103173382Y-84381307D01*
X103141125Y-84441656D01*
X103103739Y-84511600D01*
X103060853Y-84652975D01*
X103046373Y-84800000D01*
X103050001Y-84836837D01*
X103050000Y-85963172D01*
X103046373Y-86000000D01*
X103050000Y-86036827D01*
X103050000Y-86036834D01*
X103060853Y-86147025D01*
X103103739Y-86288400D01*
X103173381Y-86418692D01*
X103267105Y-86532895D01*
X103295719Y-86556378D01*
X104150001Y-87410661D01*
X104150000Y-99700430D01*
X104103830Y-99746600D01*
X103991656Y-99914480D01*
X103914390Y-100101018D01*
X103900000Y-100173362D01*
X103900000Y-97560423D01*
X103933344Y-97510520D01*
X104010610Y-97323982D01*
X104050000Y-97125954D01*
X104050000Y-96924046D01*
X104010610Y-96726018D01*
X103933344Y-96539480D01*
X103821170Y-96371600D01*
X103678400Y-96228830D01*
X103510520Y-96116656D01*
X103323982Y-96039390D01*
X103125954Y-96000000D01*
X102924046Y-96000000D01*
X102726018Y-96039390D01*
X102539480Y-96116656D01*
X102371600Y-96228830D01*
X102228830Y-96371600D01*
X102116656Y-96539480D01*
X102039390Y-96726018D01*
X102000000Y-96924046D01*
X102000000Y-97125954D01*
X102039390Y-97323982D01*
X102116656Y-97510520D01*
X102150000Y-97560423D01*
X102150001Y-100475000D01*
X97350954Y-100475000D01*
X97548982Y-100435610D01*
X97735520Y-100358344D01*
X97903400Y-100246170D01*
X98046170Y-100103400D01*
X98158344Y-99935520D01*
X98235610Y-99748982D01*
X98275000Y-99550954D01*
X98275000Y-99349046D01*
X98235610Y-99151018D01*
X98158344Y-98964480D01*
X98046170Y-98796600D01*
X98000000Y-98750430D01*
X98000000Y-88036816D01*
X98003626Y-87999999D01*
X98000000Y-87963182D01*
X98000000Y-87963165D01*
X97989147Y-87852974D01*
X97946261Y-87711599D01*
X97876619Y-87581307D01*
X97861730Y-87563165D01*
X97806376Y-87495715D01*
X97806369Y-87495708D01*
X97782895Y-87467105D01*
X97754291Y-87443630D01*
X96059707Y-85749046D01*
X99325000Y-85749046D01*
X99325000Y-85950954D01*
X99364390Y-86148982D01*
X99441656Y-86335520D01*
X99553830Y-86503400D01*
X99600001Y-86549571D01*
X99600000Y-91850430D01*
X99553830Y-91896600D01*
X99441656Y-92064480D01*
X99364390Y-92251018D01*
X99325000Y-92449046D01*
X99325000Y-92650954D01*
X99364390Y-92848982D01*
X99441656Y-93035520D01*
X99553830Y-93203400D01*
X99696600Y-93346170D01*
X99864480Y-93458344D01*
X100051018Y-93535610D01*
X100249046Y-93575000D01*
X100450954Y-93575000D01*
X100648982Y-93535610D01*
X100835520Y-93458344D01*
X101003400Y-93346170D01*
X101146170Y-93203400D01*
X101258344Y-93035520D01*
X101335610Y-92848982D01*
X101375000Y-92650954D01*
X101375000Y-92449046D01*
X101335610Y-92251018D01*
X101258344Y-92064480D01*
X101146170Y-91896600D01*
X101100000Y-91850430D01*
X101100000Y-86549570D01*
X101146170Y-86503400D01*
X101258344Y-86335520D01*
X101335610Y-86148982D01*
X101375000Y-85950954D01*
X101375000Y-85749046D01*
X101335610Y-85551018D01*
X101258344Y-85364480D01*
X101146170Y-85196600D01*
X101003400Y-85053830D01*
X100835520Y-84941656D01*
X100648982Y-84864390D01*
X100450954Y-84825000D01*
X100249046Y-84825000D01*
X100051018Y-84864390D01*
X99864480Y-84941656D01*
X99696600Y-85053830D01*
X99553830Y-85196600D01*
X99441656Y-85364480D01*
X99364390Y-85551018D01*
X99325000Y-85749046D01*
X96059707Y-85749046D01*
X93225000Y-82914341D01*
X93225000Y-82849046D01*
X93185610Y-82651018D01*
X93108344Y-82464480D01*
X92996170Y-82296600D01*
X92853400Y-82153830D01*
X92685520Y-82041656D01*
X92498982Y-81964390D01*
X92300954Y-81925000D01*
X92099046Y-81925000D01*
X91901018Y-81964390D01*
X91714480Y-82041656D01*
X91546600Y-82153830D01*
X91403830Y-82296600D01*
X91291656Y-82464480D01*
X91214390Y-82651018D01*
X91175000Y-82849046D01*
X91175000Y-83050954D01*
X91214390Y-83248982D01*
X91291656Y-83435520D01*
X91403830Y-83603400D01*
X91546600Y-83746170D01*
X91714480Y-83858344D01*
X91901018Y-83935610D01*
X92099046Y-83975000D01*
X92164341Y-83975000D01*
X96500001Y-88310662D01*
X96500000Y-98750430D01*
X96453830Y-98796600D01*
X96341656Y-98964480D01*
X96264390Y-99151018D01*
X96225000Y-99349046D01*
X96225000Y-99550954D01*
X96264390Y-99748982D01*
X96341656Y-99935520D01*
X96453830Y-100103400D01*
X96596600Y-100246170D01*
X96764480Y-100358344D01*
X96951018Y-100435610D01*
X97149046Y-100475000D01*
X95274597Y-100475000D01*
X95435520Y-100408344D01*
X95603400Y-100296170D01*
X95746170Y-100153400D01*
X95858344Y-99985520D01*
X95935610Y-99798982D01*
X95975000Y-99600954D01*
X95975000Y-99399046D01*
X95935610Y-99201018D01*
X95858344Y-99014480D01*
X95746170Y-98846600D01*
X95700000Y-98800430D01*
X95700000Y-89536827D01*
X95703627Y-89499999D01*
X95700000Y-89463171D01*
X95700000Y-89463165D01*
X95689147Y-89352974D01*
X95646261Y-89211599D01*
X95576619Y-89081307D01*
X95544236Y-89041849D01*
X95506376Y-88995715D01*
X95506369Y-88995708D01*
X95482895Y-88967105D01*
X95454291Y-88943630D01*
X91825000Y-85314341D01*
X91825000Y-85249046D01*
X91785610Y-85051018D01*
X91708344Y-84864480D01*
X91596170Y-84696600D01*
X91453400Y-84553830D01*
X91285520Y-84441656D01*
X91098982Y-84364390D01*
X90900954Y-84325000D01*
X90699046Y-84325000D01*
X90501018Y-84364390D01*
X90314480Y-84441656D01*
X90146600Y-84553830D01*
X90003830Y-84696600D01*
X89891656Y-84864480D01*
X89854450Y-84954304D01*
X89835520Y-84941656D01*
X89648982Y-84864390D01*
X89450954Y-84825000D01*
X89249046Y-84825000D01*
X89051018Y-84864390D01*
X88864480Y-84941656D01*
X88696600Y-85053830D01*
X88553830Y-85196600D01*
X88441656Y-85364480D01*
X88364390Y-85551018D01*
X88325000Y-85749046D01*
X88325000Y-85950954D01*
X88364390Y-86148982D01*
X88441656Y-86335520D01*
X88553830Y-86503400D01*
X88600001Y-86549571D01*
X88600000Y-92100430D01*
X88553830Y-92146600D01*
X88441656Y-92314480D01*
X88364390Y-92501018D01*
X88325000Y-92699046D01*
X88325000Y-92900954D01*
X88364390Y-93098982D01*
X88441656Y-93285520D01*
X88553830Y-93453400D01*
X88696600Y-93596170D01*
X88864480Y-93708344D01*
X89051018Y-93785610D01*
X89249046Y-93825000D01*
X89450954Y-93825000D01*
X89648982Y-93785610D01*
X89835520Y-93708344D01*
X90003400Y-93596170D01*
X90146170Y-93453400D01*
X90258344Y-93285520D01*
X90335610Y-93098982D01*
X90375000Y-92900954D01*
X90375000Y-92699046D01*
X90335610Y-92501018D01*
X90258344Y-92314480D01*
X90146170Y-92146600D01*
X90100000Y-92100430D01*
X90100000Y-86549570D01*
X90146170Y-86503400D01*
X90258344Y-86335520D01*
X90295550Y-86245696D01*
X90314480Y-86258344D01*
X90501018Y-86335610D01*
X90699046Y-86375000D01*
X90764341Y-86375000D01*
X94200001Y-89810662D01*
X94200000Y-98800430D01*
X94153830Y-98846600D01*
X94041656Y-99014480D01*
X93964390Y-99201018D01*
X93925000Y-99399046D01*
X93925000Y-99600954D01*
X93964390Y-99798982D01*
X94041656Y-99985520D01*
X94153830Y-100153400D01*
X94296600Y-100296170D01*
X94464480Y-100408344D01*
X94625403Y-100475000D01*
X93525000Y-100475000D01*
X93525000Y-97692979D01*
X93529233Y-97650000D01*
X93512339Y-97478470D01*
X93462305Y-97313532D01*
X93444946Y-97281055D01*
X93381056Y-97161524D01*
X93271712Y-97028288D01*
X93238325Y-97000888D01*
X92847319Y-96609882D01*
X92835610Y-96551018D01*
X92758344Y-96364480D01*
X92646170Y-96196600D01*
X92503400Y-96053830D01*
X92335520Y-95941656D01*
X92148982Y-95864390D01*
X91950954Y-95825000D01*
X91749046Y-95825000D01*
X91551018Y-95864390D01*
X91364480Y-95941656D01*
X91196600Y-96053830D01*
X91053830Y-96196600D01*
X90941656Y-96364480D01*
X90864390Y-96551018D01*
X90825000Y-96749046D01*
X90825000Y-96950954D01*
X90864390Y-97148982D01*
X90941656Y-97335520D01*
X91053830Y-97503400D01*
X91196600Y-97646170D01*
X91364480Y-97758344D01*
X91551018Y-97835610D01*
X91609882Y-97847319D01*
X91775001Y-98012438D01*
X91775001Y-98975000D01*
X91735661Y-98975000D01*
X81950000Y-89189341D01*
X81950000Y-83749570D01*
X81996170Y-83703400D01*
X82108344Y-83535520D01*
X82185610Y-83348982D01*
X82225000Y-83150954D01*
X82225000Y-82949046D01*
X82185610Y-82751018D01*
X82108344Y-82564480D01*
X81996170Y-82396600D01*
X81853400Y-82253830D01*
X81685520Y-82141656D01*
X81498982Y-82064390D01*
X81300954Y-82025000D01*
X81099046Y-82025000D01*
X80901018Y-82064390D01*
X80714480Y-82141656D01*
X80546600Y-82253830D01*
X80403830Y-82396600D01*
X80291656Y-82564480D01*
X80214390Y-82751018D01*
X80175000Y-82949046D01*
X80175000Y-83150954D01*
X80214390Y-83348982D01*
X80291656Y-83535520D01*
X80403830Y-83703400D01*
X80450001Y-83749571D01*
X80450001Y-84600431D01*
X80403400Y-84553830D01*
X80235520Y-84441656D01*
X80048982Y-84364390D01*
X79850954Y-84325000D01*
X79649046Y-84325000D01*
X79451018Y-84364390D01*
X79264480Y-84441656D01*
X79096600Y-84553830D01*
X78953830Y-84696600D01*
X78841656Y-84864480D01*
X78826053Y-84902149D01*
X78735520Y-84841656D01*
X78548982Y-84764390D01*
X78350954Y-84725000D01*
X78149046Y-84725000D01*
X77951018Y-84764390D01*
X77764480Y-84841656D01*
X77596600Y-84953830D01*
X77453830Y-85096600D01*
X77341656Y-85264480D01*
X77315000Y-85328834D01*
X77315000Y-70421168D01*
X77351829Y-70405913D01*
X77667116Y-70195245D01*
X77935245Y-69927116D01*
X78145913Y-69611829D01*
X78291023Y-69261502D01*
X78365000Y-68889596D01*
X78365000Y-68510404D01*
X78291023Y-68138498D01*
X78275768Y-68101669D01*
X79302437Y-67075000D01*
X80487076Y-67075000D01*
X80292884Y-67204755D01*
X80024755Y-67472884D01*
X79814087Y-67788171D01*
X79668977Y-68138498D01*
X79595000Y-68510404D01*
X79595000Y-68889596D01*
X79668977Y-69261502D01*
X79814087Y-69611829D01*
X80024755Y-69927116D01*
X80292884Y-70195245D01*
X80608171Y-70405913D01*
X80958498Y-70551023D01*
X81330404Y-70625000D01*
X81709596Y-70625000D01*
X82081502Y-70551023D01*
X82431829Y-70405913D01*
X82747116Y-70195245D01*
X83015245Y-69927116D01*
X83225913Y-69611829D01*
X83371023Y-69261502D01*
X83445000Y-68889596D01*
X83445000Y-68510404D01*
X83371023Y-68138498D01*
X83225913Y-67788171D01*
X83015245Y-67472884D01*
X82747116Y-67204755D01*
X82552924Y-67075000D01*
X85567076Y-67075000D01*
X85372884Y-67204755D01*
X85104755Y-67472884D01*
X84894087Y-67788171D01*
X84748977Y-68138498D01*
X84675000Y-68510404D01*
X84675000Y-68889596D01*
X84748977Y-69261502D01*
X84894087Y-69611829D01*
X85104755Y-69927116D01*
X85372884Y-70195245D01*
X85688171Y-70405913D01*
X86038498Y-70551023D01*
X86410404Y-70625000D01*
X86789596Y-70625000D01*
X87161502Y-70551023D01*
X87511829Y-70405913D01*
X87827116Y-70195245D01*
X87979802Y-70042559D01*
X90514218Y-70042559D01*
X90646542Y-70335095D01*
X90985391Y-70505295D01*
X91350934Y-70606118D01*
X91729122Y-70633690D01*
X92105422Y-70586951D01*
X92465374Y-70467698D01*
X92713458Y-70335095D01*
X92845782Y-70042559D01*
X91680000Y-68876777D01*
X90514218Y-70042559D01*
X87979802Y-70042559D01*
X88095245Y-69927116D01*
X88305913Y-69611829D01*
X88451023Y-69261502D01*
X88525000Y-68889596D01*
X88525000Y-68749122D01*
X89746310Y-68749122D01*
X89793049Y-69125422D01*
X89912302Y-69485374D01*
X90044905Y-69733458D01*
X90337441Y-69865782D01*
X91503223Y-68700000D01*
X91856777Y-68700000D01*
X93022559Y-69865782D01*
X93315095Y-69733458D01*
X93485295Y-69394609D01*
X93586118Y-69029066D01*
X93613690Y-68650878D01*
X93566951Y-68274578D01*
X93447698Y-67914626D01*
X93315095Y-67666542D01*
X93022559Y-67534218D01*
X91856777Y-68700000D01*
X91503223Y-68700000D01*
X90337441Y-67534218D01*
X90044905Y-67666542D01*
X89874705Y-68005391D01*
X89773882Y-68370934D01*
X89746310Y-68749122D01*
X88525000Y-68749122D01*
X88525000Y-68510404D01*
X88451023Y-68138498D01*
X88305913Y-67788171D01*
X88095245Y-67472884D01*
X87827116Y-67204755D01*
X87632924Y-67075000D01*
X90641976Y-67075000D01*
X90514218Y-67357441D01*
X91680000Y-68523223D01*
X92845782Y-67357441D01*
X92718024Y-67075000D01*
X93897564Y-67075000D01*
X94924232Y-68101669D01*
X94908977Y-68138498D01*
X94835000Y-68510404D01*
X94835000Y-68889596D01*
X94908977Y-69261502D01*
X95054087Y-69611829D01*
X95264755Y-69927116D01*
X95532884Y-70195245D01*
X95848171Y-70405913D01*
X96198498Y-70551023D01*
X96570404Y-70625000D01*
X96949596Y-70625000D01*
X97321502Y-70551023D01*
X97671829Y-70405913D01*
X97987116Y-70195245D01*
X98255245Y-69927116D01*
X98465913Y-69611829D01*
X98611023Y-69261502D01*
X98685000Y-68889596D01*
X98685000Y-68510404D01*
X99915000Y-68510404D01*
X99915000Y-68889596D01*
X99988977Y-69261502D01*
X100134087Y-69611829D01*
X100344755Y-69927116D01*
X100612884Y-70195245D01*
X100928171Y-70405913D01*
X101278498Y-70551023D01*
X101650404Y-70625000D01*
X102029596Y-70625000D01*
X102401502Y-70551023D01*
X102751829Y-70405913D01*
X103067116Y-70195245D01*
X103335245Y-69927116D01*
X103545913Y-69611829D01*
X103691023Y-69261502D01*
X103765000Y-68889596D01*
X103765000Y-68510404D01*
X104995000Y-68510404D01*
X104995000Y-68889596D01*
X105068977Y-69261502D01*
X105214087Y-69611829D01*
X105424755Y-69927116D01*
X105692884Y-70195245D01*
X106008171Y-70405913D01*
X106358498Y-70551023D01*
X106730404Y-70625000D01*
X107109596Y-70625000D01*
X107481502Y-70551023D01*
X107831829Y-70405913D01*
X108147116Y-70195245D01*
X108342361Y-70000000D01*
X110071976Y-70000000D01*
X110084043Y-70122521D01*
X110119781Y-70240334D01*
X110177817Y-70348911D01*
X110255920Y-70444080D01*
X110351089Y-70522183D01*
X110459666Y-70580219D01*
X110577479Y-70615957D01*
X110700000Y-70628024D01*
X111718750Y-70625000D01*
X111875000Y-70468750D01*
X111875000Y-68825000D01*
X112125000Y-68825000D01*
X112125000Y-70468750D01*
X112281250Y-70625000D01*
X113300000Y-70628024D01*
X113422521Y-70615957D01*
X113540334Y-70580219D01*
X113648911Y-70522183D01*
X113744080Y-70444080D01*
X113822183Y-70348911D01*
X113880219Y-70240334D01*
X113915957Y-70122521D01*
X113928024Y-70000000D01*
X113925000Y-68981250D01*
X113768750Y-68825000D01*
X112125000Y-68825000D01*
X111875000Y-68825000D01*
X110231250Y-68825000D01*
X110075000Y-68981250D01*
X110071976Y-70000000D01*
X108342361Y-70000000D01*
X108415245Y-69927116D01*
X108625913Y-69611829D01*
X108771023Y-69261502D01*
X108845000Y-68889596D01*
X108845000Y-68510404D01*
X108771023Y-68138498D01*
X108625913Y-67788171D01*
X108415245Y-67472884D01*
X108342361Y-67400000D01*
X110071976Y-67400000D01*
X110075000Y-68418750D01*
X110231250Y-68575000D01*
X111875000Y-68575000D01*
X111875000Y-66931250D01*
X112125000Y-66931250D01*
X112125000Y-68575000D01*
X113768750Y-68575000D01*
X113925000Y-68418750D01*
X113928024Y-67400000D01*
X113915957Y-67277479D01*
X113880219Y-67159666D01*
X113822183Y-67051089D01*
X113744080Y-66955920D01*
X113648911Y-66877817D01*
X113540334Y-66819781D01*
X113422521Y-66784043D01*
X113300000Y-66771976D01*
X112281250Y-66775000D01*
X112125000Y-66931250D01*
X111875000Y-66931250D01*
X111718750Y-66775000D01*
X110700000Y-66771976D01*
X110577479Y-66784043D01*
X110459666Y-66819781D01*
X110351089Y-66877817D01*
X110255920Y-66955920D01*
X110177817Y-67051089D01*
X110119781Y-67159666D01*
X110084043Y-67277479D01*
X110071976Y-67400000D01*
X108342361Y-67400000D01*
X108147116Y-67204755D01*
X107831829Y-66994087D01*
X107481502Y-66848977D01*
X107109596Y-66775000D01*
X106730404Y-66775000D01*
X106358498Y-66848977D01*
X106008171Y-66994087D01*
X105692884Y-67204755D01*
X105424755Y-67472884D01*
X105214087Y-67788171D01*
X105068977Y-68138498D01*
X104995000Y-68510404D01*
X103765000Y-68510404D01*
X103691023Y-68138498D01*
X103545913Y-67788171D01*
X103335245Y-67472884D01*
X103067116Y-67204755D01*
X102751829Y-66994087D01*
X102401502Y-66848977D01*
X102029596Y-66775000D01*
X101650404Y-66775000D01*
X101278498Y-66848977D01*
X100928171Y-66994087D01*
X100612884Y-67204755D01*
X100344755Y-67472884D01*
X100134087Y-67788171D01*
X99988977Y-68138498D01*
X99915000Y-68510404D01*
X98685000Y-68510404D01*
X98611023Y-68138498D01*
X98465913Y-67788171D01*
X98255245Y-67472884D01*
X97987116Y-67204755D01*
X97671829Y-66994087D01*
X97321502Y-66848977D01*
X96949596Y-66775000D01*
X96570404Y-66775000D01*
X96198498Y-66848977D01*
X96161669Y-66864232D01*
X94909117Y-65611681D01*
X94881712Y-65578288D01*
X94748476Y-65468944D01*
X94596468Y-65387695D01*
X94431530Y-65337661D01*
X94302979Y-65325000D01*
X94260000Y-65320767D01*
X94217021Y-65325000D01*
X78982979Y-65325000D01*
X78940000Y-65320767D01*
X78897021Y-65325000D01*
X78768470Y-65337661D01*
X78603532Y-65387695D01*
X78451524Y-65468944D01*
X78318288Y-65578288D01*
X78290888Y-65611675D01*
X77038331Y-66864232D01*
X77001502Y-66848977D01*
X76629596Y-66775000D01*
X76250404Y-66775000D01*
X75878498Y-66848977D01*
X75841669Y-66864232D01*
X74589117Y-65611681D01*
X74561712Y-65578288D01*
X74428476Y-65468944D01*
X74276468Y-65387695D01*
X74111530Y-65337661D01*
X73982979Y-65325000D01*
X73940000Y-65320767D01*
X73897021Y-65325000D01*
X58662979Y-65325000D01*
X58620000Y-65320767D01*
X58577021Y-65325000D01*
X58448470Y-65337661D01*
X58283532Y-65387695D01*
X58131524Y-65468944D01*
X57998288Y-65578288D01*
X57970888Y-65611675D01*
X56718331Y-66864232D01*
X56681502Y-66848977D01*
X56309596Y-66775000D01*
X55930404Y-66775000D01*
X55558498Y-66848977D01*
X55208171Y-66994087D01*
X54892884Y-67204755D01*
X54624755Y-67472884D01*
X54414087Y-67788171D01*
X54268977Y-68138498D01*
X54195000Y-68510404D01*
X50675000Y-68510404D01*
X50675000Y-63675000D01*
X117325001Y-63675000D01*
X117325000Y-126148224D01*
G36*
X79010853Y-90547025D02*
G01*
X79053739Y-90688400D01*
X79123381Y-90818692D01*
X79217105Y-90932895D01*
X79245720Y-90956379D01*
X88764339Y-100475000D01*
X84572978Y-100475000D01*
X84529999Y-100470767D01*
X84358469Y-100487661D01*
X84235381Y-100525000D01*
X84193532Y-100537695D01*
X84041524Y-100618944D01*
X83995000Y-100657125D01*
X83995000Y-99712979D01*
X83999233Y-99670000D01*
X83982339Y-99498470D01*
X83932305Y-99333532D01*
X83881061Y-99237661D01*
X83851056Y-99181524D01*
X83741712Y-99048288D01*
X83708325Y-99020888D01*
X81697319Y-97009883D01*
X81685610Y-96951018D01*
X81664478Y-96900000D01*
X81685610Y-96848982D01*
X81725000Y-96650954D01*
X81725000Y-96449046D01*
X81685610Y-96251018D01*
X81608344Y-96064480D01*
X81496170Y-95896600D01*
X81353400Y-95753830D01*
X81185520Y-95641656D01*
X80998982Y-95564390D01*
X80940118Y-95552681D01*
X79949116Y-94561680D01*
X79921712Y-94528288D01*
X79788476Y-94418944D01*
X79636468Y-94337695D01*
X79471530Y-94287661D01*
X79342979Y-94275000D01*
X79300000Y-94270767D01*
X79257021Y-94275000D01*
X77315000Y-94275000D01*
X77315000Y-93221166D01*
X77341656Y-93285520D01*
X77453830Y-93453400D01*
X77596600Y-93596170D01*
X77764480Y-93708344D01*
X77951018Y-93785610D01*
X78149046Y-93825000D01*
X78350954Y-93825000D01*
X78548982Y-93785610D01*
X78735520Y-93708344D01*
X78903400Y-93596170D01*
X79046170Y-93453400D01*
X79158344Y-93285520D01*
X79235610Y-93098982D01*
X79275000Y-92900954D01*
X79275000Y-92699046D01*
X79235610Y-92501018D01*
X79158344Y-92314480D01*
X79046170Y-92146600D01*
X79000000Y-92100430D01*
X79000000Y-90436834D01*
X79010853Y-90547025D01*
X79010853Y-90547025D01*
G37*
X79010853Y-90547025D02*
X79053739Y-90688400D01*
X79123381Y-90818692D01*
X79217105Y-90932895D01*
X79245720Y-90956379D01*
X88764339Y-100475000D01*
X84572978Y-100475000D01*
X84529999Y-100470767D01*
X84358469Y-100487661D01*
X84235381Y-100525000D01*
X84193532Y-100537695D01*
X84041524Y-100618944D01*
X83995000Y-100657125D01*
X83995000Y-99712979D01*
X83999233Y-99670000D01*
X83982339Y-99498470D01*
X83932305Y-99333532D01*
X83881061Y-99237661D01*
X83851056Y-99181524D01*
X83741712Y-99048288D01*
X83708325Y-99020888D01*
X81697319Y-97009883D01*
X81685610Y-96951018D01*
X81664478Y-96900000D01*
X81685610Y-96848982D01*
X81725000Y-96650954D01*
X81725000Y-96449046D01*
X81685610Y-96251018D01*
X81608344Y-96064480D01*
X81496170Y-95896600D01*
X81353400Y-95753830D01*
X81185520Y-95641656D01*
X80998982Y-95564390D01*
X80940118Y-95552681D01*
X79949116Y-94561680D01*
X79921712Y-94528288D01*
X79788476Y-94418944D01*
X79636468Y-94337695D01*
X79471530Y-94287661D01*
X79342979Y-94275000D01*
X79300000Y-94270767D01*
X79257021Y-94275000D01*
X77315000Y-94275000D01*
X77315000Y-93221166D01*
X77341656Y-93285520D01*
X77453830Y-93453400D01*
X77596600Y-93596170D01*
X77764480Y-93708344D01*
X77951018Y-93785610D01*
X78149046Y-93825000D01*
X78350954Y-93825000D01*
X78548982Y-93785610D01*
X78735520Y-93708344D01*
X78903400Y-93596170D01*
X79046170Y-93453400D01*
X79158344Y-93285520D01*
X79235610Y-93098982D01*
X79275000Y-92900954D01*
X79275000Y-92699046D01*
X79235610Y-92501018D01*
X79158344Y-92314480D01*
X79046170Y-92146600D01*
X79000000Y-92100430D01*
X79000000Y-90436834D01*
X79010853Y-90547025D01*
G36*
X77341656Y-86235520D02*
G01*
X77453830Y-86403400D01*
X77500000Y-86449570D01*
X77500001Y-92100429D01*
X77453830Y-92146600D01*
X77341656Y-92314480D01*
X77315000Y-92378834D01*
X77315000Y-86171166D01*
X77341656Y-86235520D01*
X77341656Y-86235520D01*
G37*
X77341656Y-86235520D02*
X77453830Y-86403400D01*
X77500000Y-86449570D01*
X77500001Y-92100429D01*
X77453830Y-92146600D01*
X77341656Y-92314480D01*
X77315000Y-92378834D01*
X77315000Y-86171166D01*
X77341656Y-86235520D01*
M02*
