%FSLAX45Y45*%
G04 Gerber Fmt 4.5, Leading zero omitted, Abs format (unit mm)*
G04 Created by KiCad (PCBNEW 5.1.4-e60b266~84~ubuntu18.04.1) date 2019-11-18 12:17:52*
%MOMM*%
%LPD*%
G04 APERTURE LIST*
%ADD10C,0.050000*%
%ADD11C,0.100000*%
%ADD12C,0.200000*%
%ADD13C,0.300000*%
G04 APERTURE END LIST*
D10*
X9135000Y-12685000D02*
X9135000Y-12935000D01*
X9135000Y-12935000D02*
X9185000Y-12985000D01*
X9135000Y-12685000D02*
X9185000Y-12635000D01*
X9210000Y-13010000D02*
G75*
G02X9135000Y-13085000I-35000J-40000D01*
G01*
X9035000Y-12635000D02*
X9135000Y-12535000D01*
X9185000Y-12985000D02*
X9210000Y-13010000D01*
X9135000Y-12535000D02*
G75*
G02X9210000Y-12610000I35000J-40000D01*
G01*
X9210000Y-12610000D02*
X9185000Y-12635000D01*
X9035000Y-12635000D02*
X9035000Y-12985000D01*
X9035000Y-12985000D02*
X9135000Y-13085000D01*
X11235000Y-12685000D02*
X11235000Y-12935000D01*
X11235000Y-12935000D02*
X11285000Y-12985000D01*
X11235000Y-12685000D02*
X11285000Y-12635000D01*
X11310000Y-13010000D02*
G75*
G02X11235000Y-13085000I-35000J-40000D01*
G01*
X11135000Y-12635000D02*
X11235000Y-12535000D01*
X11285000Y-12985000D02*
X11310000Y-13010000D01*
X11235000Y-12535000D02*
G75*
G02X11310000Y-12610000I35000J-40000D01*
G01*
X11310000Y-12610000D02*
X11285000Y-12635000D01*
X11135000Y-12635000D02*
X11135000Y-12985000D01*
X11135000Y-12985000D02*
X11235000Y-13085000D01*
X10100000Y-12050000D02*
X9850000Y-12050000D01*
X9850000Y-12050000D02*
X9800000Y-12100000D01*
X10100000Y-12050000D02*
X10150000Y-12100000D01*
X9775000Y-12125000D02*
G75*
G02X9700000Y-12050000I-40000J35000D01*
G01*
X10150000Y-11950000D02*
X10250000Y-12050000D01*
X9800000Y-12100000D02*
X9775000Y-12125000D01*
X10250000Y-12050000D02*
G75*
G02X10175000Y-12125000I-40000J-35000D01*
G01*
X10175000Y-12125000D02*
X10150000Y-12100000D01*
X10150000Y-11950000D02*
X9800000Y-11950000D01*
X9800000Y-11950000D02*
X9700000Y-12050000D01*
X8150000Y-12050000D02*
G75*
G02X8075000Y-12125000I-40000J-35000D01*
G01*
X7675000Y-12125000D02*
G75*
G02X7600000Y-12050000I-40000J35000D01*
G01*
X7700000Y-12100000D02*
X7675000Y-12125000D01*
X8075000Y-12125000D02*
X8050000Y-12100000D01*
X8050000Y-11950000D02*
X8150000Y-12050000D01*
X7700000Y-11950000D02*
X7600000Y-12050000D01*
X8050000Y-11950000D02*
X7700000Y-11950000D01*
X8000000Y-12050000D02*
X8050000Y-12100000D01*
X7750000Y-12050000D02*
X7700000Y-12100000D01*
X8000000Y-12050000D02*
X7750000Y-12050000D01*
D11*
X5000000Y-6300000D02*
X5000000Y-15000000D01*
X11800000Y-6300000D02*
X5000000Y-6300000D01*
X11800000Y-15000000D02*
X11800000Y-6300000D01*
X5000000Y-15000000D02*
X11800000Y-15000000D01*
D12*
D13*
X5281428Y-15470714D02*
X5281428Y-15170714D01*
X5352857Y-15170714D01*
X5395714Y-15185000D01*
X5424286Y-15213571D01*
X5438571Y-15242143D01*
X5452857Y-15299286D01*
X5452857Y-15342143D01*
X5438571Y-15399286D01*
X5424286Y-15427857D01*
X5395714Y-15456429D01*
X5352857Y-15470714D01*
X5281428Y-15470714D01*
X5581428Y-15470714D02*
X5581428Y-15270714D01*
X5581428Y-15327857D02*
X5595714Y-15299286D01*
X5610000Y-15285000D01*
X5638571Y-15270714D01*
X5667143Y-15270714D01*
X5767143Y-15470714D02*
X5767143Y-15270714D01*
X5767143Y-15170714D02*
X5752857Y-15185000D01*
X5767143Y-15199286D01*
X5781428Y-15185000D01*
X5767143Y-15170714D01*
X5767143Y-15199286D01*
X5952857Y-15470714D02*
X5924286Y-15456429D01*
X5910000Y-15427857D01*
X5910000Y-15170714D01*
X6110000Y-15470714D02*
X6081428Y-15456429D01*
X6067143Y-15427857D01*
X6067143Y-15170714D01*
X6452857Y-15470714D02*
X6452857Y-15170714D01*
X6552857Y-15385000D01*
X6652857Y-15170714D01*
X6652857Y-15470714D01*
X6924286Y-15470714D02*
X6924286Y-15313571D01*
X6910000Y-15285000D01*
X6881428Y-15270714D01*
X6824286Y-15270714D01*
X6795714Y-15285000D01*
X6924286Y-15456429D02*
X6895714Y-15470714D01*
X6824286Y-15470714D01*
X6795714Y-15456429D01*
X6781428Y-15427857D01*
X6781428Y-15399286D01*
X6795714Y-15370714D01*
X6824286Y-15356429D01*
X6895714Y-15356429D01*
X6924286Y-15342143D01*
X7067143Y-15270714D02*
X7067143Y-15570714D01*
X7067143Y-15285000D02*
X7095714Y-15270714D01*
X7152857Y-15270714D01*
X7181428Y-15285000D01*
X7195714Y-15299286D01*
X7210000Y-15327857D01*
X7210000Y-15413571D01*
X7195714Y-15442143D01*
X7181428Y-15456429D01*
X7152857Y-15470714D01*
X7095714Y-15470714D01*
X7067143Y-15456429D01*
X7338571Y-15442143D02*
X7352857Y-15456429D01*
X7338571Y-15470714D01*
X7324286Y-15456429D01*
X7338571Y-15442143D01*
X7338571Y-15470714D01*
X7338571Y-15285000D02*
X7352857Y-15299286D01*
X7338571Y-15313571D01*
X7324286Y-15299286D01*
X7338571Y-15285000D01*
X7338571Y-15313571D01*
M02*
