M48
; DRILL file {KiCad 5.1.4-e60b266~84~ubuntu18.04.1} date Po 18. november 2019, 12:17:36 CET
; FORMAT={-:-/ absolute / metric / decimal}
; #@! TF.CreationDate,2019-11-18T12:17:36+01:00
; #@! TF.GenerationSoftware,Kicad,Pcbnew,5.1.4-e60b266~84~ubuntu18.04.1
; #@! TF.FileFunction,Plated,1,2,PTH
FMAT,2
METRIC
T1C0.400
T2C0.800
T3C1.000
T4C1.100
T5C1.300
%
G90
G05
T1
X55.45Y-87.45
X55.45Y-93.6
X56.2Y-85.85
X56.2Y-92.75
X57.55Y-96.95
X57.75Y-85.35
X58.35Y-100.55
X59.2Y-83.0
X59.2Y-99.7
X63.15Y-118.0
X63.15Y-124.4
X66.5Y-87.5
X66.5Y-93.65
X67.25Y-85.85
X67.25Y-92.7
X68.5Y-97.05
X68.75Y-85.35
X69.35Y-100.65
X70.2Y-83.05
X70.2Y-99.9
X75.5Y-106.1
X77.45Y-87.45
X77.45Y-93.6
X78.05Y-96.55
X78.05Y-97.25
X78.25Y-85.75
X78.25Y-92.8
X78.85Y-96.55
X78.85Y-97.25
X79.75Y-85.35
X80.7Y-96.55
X80.7Y-97.25
X81.2Y-83.05
X87.65Y-109.1
X88.55Y-87.55
X88.55Y-93.75
X89.35Y-85.85
X89.35Y-92.8
X89.8Y-100.45
X90.65Y-113.4
X90.8Y-85.35
X91.7Y-100.0
X91.85Y-96.85
X92.2Y-82.95
X94.95Y-99.5
X97.25Y-99.45
X98.65Y-113.05
X99.55Y-87.45
X99.55Y-93.45
X100.35Y-85.85
X100.35Y-92.55
X103.025Y-97.025
X104.55Y-84.05
X104.55Y-85.35
X104.55Y-123.75
X104.9Y-100.4
X105.65Y-99.7
X110.65Y-87.3
X110.7Y-93.7
X111.6Y-85.5
X111.6Y-92.8
X112.65Y-96.85
X113.55Y-83.0
X113.55Y-99.65
X114.4Y-98.9
X115.5Y-85.35
T2
X71.0Y-128.0
X71.0Y-130.5
X75.5Y-102.76
X75.5Y-118.0
X78.04Y-102.76
X78.04Y-118.0
X80.58Y-102.76
X80.58Y-118.0
X83.12Y-102.76
X83.12Y-118.0
X85.66Y-102.76
X85.66Y-118.0
X88.2Y-102.76
X88.2Y-118.0
X90.74Y-102.76
X90.74Y-118.0
X93.28Y-102.76
X93.28Y-118.0
X95.82Y-102.76
X95.82Y-118.0
X98.36Y-102.76
X98.36Y-118.0
X100.9Y-102.76
X100.9Y-118.0
X103.44Y-102.76
X103.44Y-118.0
X105.98Y-102.76
X105.98Y-118.0
X108.52Y-102.76
X108.52Y-118.0
X111.06Y-102.76
X111.06Y-118.0
X71.0Y-122.0
X71.0Y-124.5
X53.5Y-133.5
X56.0Y-133.5
X53.5Y-111.5
X56.0Y-111.5
T3
X91.05Y-121.95
X91.05Y-133.95
X112.05Y-121.95
X112.05Y-133.95
T4
X57.0Y-120.42
X57.0Y-122.96
X57.0Y-125.5
T5
X86.6Y-144.3
X91.68Y-144.3
X96.76Y-144.3
X101.84Y-144.3
X106.92Y-144.3
X112.0Y-144.3
X56.1Y-144.3
X61.18Y-144.3
X66.26Y-144.3
X71.34Y-144.3
X56.12Y-68.7
X61.2Y-68.7
X66.28Y-68.7
X71.36Y-68.7
X76.44Y-68.7
X81.52Y-68.7
X86.6Y-68.7
X91.68Y-68.7
X96.76Y-68.7
X101.84Y-68.7
X106.92Y-68.7
X112.0Y-68.7
X78.8Y-134.0
X78.85Y-121.95
X93.0Y-128.0
X99.8Y-134.0
X99.85Y-121.95
X114.0Y-128.0
T0
M30
